<svg xmlns="http://www.w3.org/2000/svg" xmlns:xlink="http://www.w3.org/1999/xlink" id="Layer_1" width="21.9" height="34" x="0" style="enable-background:new 0 0 21.9 34" y="0" version="1.1" viewBox="0 0 21.9 34" xml:space="preserve"><style type="text/css">.st0{fill:#0acf83}.st1{fill:#a259ff}.st2{fill:#f24e1e}.st3{fill:#ff7262}.st4{fill:#1abcfe}</style><path d="M5.5,34c3,0,5.4-2.5,5.4-5.4v-5.4H5.5c-3,0-5.4,2.5-5.4,5.4S2.6,34,5.5,34z" class="st0"/><path d="M0.1,17.7c0-3,2.5-5.4,5.4-5.4H11v10.9H5.6C2.6,23.1,0.1,20.7,0.1,17.7z" class="st1"/><path d="M0.1,6.8c0-3,2.5-5.4,5.4-5.4H11v10.9H5.6C2.6,12.3,0.1,9.8,0.1,6.8z" class="st2"/><path d="M11,1.4h5.4c3,0,5.4,2.5,5.4,5.4s-2.5,5.4-5.4,5.4H11C11,12.3,11,1.4,11,1.4z" class="st3"/><path d="M21.8,17.7c0,3-2.5,5.4-5.4,5.4S11,20.7,11,17.7s2.5-5.4,5.4-5.4S21.8,14.7,21.8,17.7z" class="st4"/></svg>