<svg xmlns="http://www.w3.org/2000/svg" xmlns:xlink="http://www.w3.org/1999/xlink" id="svg2" width="1990" height="2500" x="0" style="enable-background:new 0 0 1990 2500" y="0" version="1.1" viewBox="0 0 1990 2500" xml:space="preserve"><style type="text/css">.st0{fill:#ee3c35;stroke:#000;stroke-width:20}.st1{fill:#fff}.st2,.st3{stroke:#000;stroke-width:3.7;stroke-linejoin:round}.st3{fill:#fbed24;stroke-width:5.5}.st4,.st5{stroke-width:2.4}.st4,.st5,.st6,.st7{fill:none;stroke:#000}.st5,.st6,.st7{stroke-linecap:round}.st6{stroke-width:3.6}.st7{stroke-width:2.4;stroke-linejoin:round}.st10,.st8,.st9{stroke:#000}.st8,.st9{stroke-width:14}.st9{stroke-width:6}.st10{stroke-width:8}.st11,.st12{fill:#ee3c35;stroke:#000;stroke-width:14}.st12{fill:#f9ed23;stroke-width:8}.st13,.st14{fill:none;stroke:#000;stroke-width:9.5}.st14{stroke-width:10}.st15,.st16,.st17{fill:none;stroke-linecap:round}.st15{stroke:#000;stroke-width:22;stroke-linejoin:round}.st16,.st17{stroke:#f6eb14}.st16{stroke-width:11;stroke-linejoin:round}.st17{stroke-width:22}.st18,.st19{fill:none;stroke:#000;stroke-width:20}.st19{stroke:#f6eb14;stroke-width:8}.st20{fill:#f6eb14}.st21{fill:none;stroke:#000}.st22{stroke-width:4}.st22,.st23,.st24{fill:none;stroke:#fff}.st24{stroke:#000;stroke-width:6}</style><g id="layer2"><path id="path2399" d="M16.9,17v1388.5c0,404.4,235.9,640.3,404.4,741.4c235.9,136.5,244.3,143.2,572.9,333.6 c328.6-188.7,337-195.5,572.9-333.6c193.8-118,404.4-345.4,406.1-741.4V17H16.9z" class="st0"/></g><g id="layer3"><path id="path3172" d="M786.9,33.8v770.1H33.7v480.2h753.2v1056.5l207.3,121.3l208.9-121.3V1284.1h753.2V803.9h-753.2 V33.8H786.9z" class="st1"/></g><g id="layer4"><g id="g3183"><path id="path3175" d="M123,905.8c0,5.1-4.9,9.3-11,9.3s-11-4.2-11-9.3s4.9-9.3,11-9.3S123,900.8,123,905.8z"/><path id="path3177" d="M151.7,877.2c0,6.1-5.2,11-11.8,11c-6.6,0-11.8-4.9-11.8-11c0-6.1,5.2-11,11.8-11 C146.4,866.2,151.7,871.1,151.7,877.2z"/><path id="path3179" d="M176.9,905.8c0,5.1-4.5,9.3-10.1,9.3s-10.1-4.2-10.1-9.3s4.5-9.3,10.1-9.3S176.9,900.8,176.9,905.8z"/><path id="path3181" d="M97.7,1034.7c18.5-27,38.8-85.9,42.1-131.4c5.1,45.5,18.5,104.5,37.1,131.4 c-10.1-8.4-15.2-15.2-25.3-27c-11.8,18.5-5.1,28.6-13.5,38.8c-8.4-10.1,0-20.2-11.8-38.8C116.8,1016.2,109.5,1024.6,97.7,1034.7z" class="st2"/></g><g id="g3189" transform="translate(145 -.5)"><path id="path3191" d="M222.3,905.5c0,5.1-4.9,9.3-11,9.3s-11-4.2-11-9.3s4.9-9.3,11-9.3S222.3,900.4,222.3,905.5z"/><path id="path3193" d="M251,876.8c0,6.1-5.2,11-11.8,11s-11.8-4.9-11.8-11s5.2-11,11.8-11S251,870.8,251,876.8z"/><path id="path3195" d="M276.3,905.5c0,5.1-4.5,9.3-10.1,9.3s-10.1-4.2-10.1-9.3s4.5-9.3,10.1-9.3S276.3,900.4,276.3,905.5z"/><path id="path3197" d="M197.1,1034.4c18.5-27,38.8-85.9,42.1-131.4c5.1,45.5,18.5,104.5,37.1,131.4 c-10.1-8.4-15.2-15.2-25.3-27c-11.8,18.5-5.1,28.6-13.5,38.8c-8.4-10.1,0-20.2-11.8-38.8C216.1,1015.9,208.9,1024.3,197.1,1034.4z" class="st2"/></g><g id="g3199" transform="translate(73 116)"><path id="path3201" d="M173,985.3c0,5.1-4.9,9.3-11,9.3c-6.1,0-11-4.2-11-9.3c0-5.1,4.9-9.3,11-9.3C168.1,976,173,980.2,173,985.3 z"/><path id="path3203" d="M201.7,956.7c0,6.1-5.2,11-11.8,11s-11.8-4.9-11.8-11c0-6.1,5.2-11,11.8-11S201.7,950.6,201.7,956.7z"/><path id="path3205" d="M226.9,985.3c0,5.1-4.5,9.3-10.1,9.3s-10.1-4.2-10.1-9.3c0-5.1,4.5-9.3,10.1-9.3S226.9,980.2,226.9,985.3z"/><path id="path3207" d="M147.7,1114.2c18.5-27,38.8-85.9,42.1-131.4c5.1,45.5,18.5,104.5,37.1,131.4 c-10.1-8.4-15.2-15.2-25.3-27c-11.8,18.5-5.1,28.6-13.5,38.8c-8.4-10.1,0-20.2-11.8-38.8C166.8,1095.7,159.5,1104.1,147.7,1114.2z" class="st2"/></g><g id="g3209" transform="translate(218 116)"><path id="path3211" d="M272.3,985.3c0,5.1-4.9,9.3-11,9.3s-11-4.2-11-9.3c0-5.1,4.9-9.3,11-9.3S272.3,980.2,272.3,985.3z"/><path id="path3213" d="M301,956.7c0,6.1-5.2,11-11.8,11c-6.6,0-11.8-4.9-11.8-11c0-6.1,5.2-11,11.8-11 C295.8,945.7,301,950.6,301,956.7z"/><path id="path3215" d="M326.3,985.3c0,5.1-4.5,9.3-10.1,9.3s-10.1-4.2-10.1-9.3c0-5.1,4.5-9.3,10.1-9.3S326.3,980.2,326.3,985.3z"/><path id="path3217" d="M247.1,1114.2c18.5-27,38.8-85.9,42.1-131.4c5.1,45.5,18.5,104.5,37.1,131.4 c-10.1-8.4-15.2-15.2-25.3-27c-11.8,18.5-5.1,28.6-13.5,38.8c-8.4-10.1,0-20.2-11.8-38.8C266.1,1095.7,258.9,1104.1,247.1,1114.2z" class="st2"/></g><g id="g3219" transform="translate(290 -.5)"><path id="path3221" d="M321.7,905.5c0,5.1-4.9,9.3-11,9.3s-11-4.2-11-9.3s4.9-9.3,11-9.3S321.7,900.4,321.7,905.5z"/><path id="path3223" d="M350.3,876.8c0,6.1-5.2,11-11.8,11s-11.8-4.9-11.8-11s5.2-11,11.8-11S350.3,870.8,350.3,876.8z"/><path id="path3225" d="M375.6,905.5c0,5.1-4.5,9.3-10.1,9.3s-10.1-4.2-10.1-9.3s4.5-9.3,10.1-9.3S375.6,900.4,375.6,905.5z"/><path id="path3227" d="M296.4,1034.4c18.5-27,38.8-85.9,42.1-131.4c5.1,45.5,18.5,104.5,37.1,131.4 c-10.1-8.4-15.2-15.2-25.3-27c-11.8,18.5-5.1,28.6-13.5,38.8c-8.4-10.1,0-20.2-11.8-38.8C315.4,1015.9,308.2,1024.3,296.4,1034.4z" class="st2"/></g><g id="g3229" transform="translate(447 -447.5)"><path id="path3231" d="M429.2,599.3c0,5.1-4.9,9.3-11,9.3s-11-4.2-11-9.3c0-5.1,4.9-9.3,11-9.3S429.2,594.2,429.2,599.3z"/><path id="path3233" d="M457.9,570.6c0,6.1-5.2,11-11.8,11s-11.8-4.9-11.8-11c0-6.1,5.2-11,11.8-11S457.9,564.6,457.9,570.6z"/><path id="path3235" d="M483.1,599.3c0,5.1-4.5,9.3-10.1,9.3s-10.1-4.2-10.1-9.3c0-5.1,4.5-9.3,10.1-9.3S483.1,594.2,483.1,599.3z"/><path id="path3237" d="M403.9,728.2c18.5-27,38.8-85.9,42.1-131.4c5.1,45.5,18.5,104.5,37.1,131.4 c-10.1-8.4-15.2-15.2-25.3-27c-11.8,18.5-5.1,28.6-13.5,38.8c-8.4-10.1,0-20.2-11.8-38.8C423,709.7,415.7,718.1,403.9,728.2z" class="st2"/></g><g id="g3239" transform="translate(569 -450)"><path id="path3241" d="M512.8,597.6c0,5.1-4.9,9.3-11,9.3s-11-4.2-11-9.3s4.9-9.3,11-9.3S512.8,592.5,512.8,597.6z"/><path id="path3243" d="M541.4,568.9c0,6.1-5.2,11-11.8,11c-6.6,0-11.8-4.9-11.8-11s5.2-11,11.8-11 C536.2,558,541.4,562.9,541.4,568.9z"/><path id="path3245" d="M566.7,597.6c0,5.1-4.5,9.3-10.1,9.3s-10.1-4.2-10.1-9.3s4.5-9.3,10.1-9.3S566.7,592.5,566.7,597.6z"/><path id="path3247" d="M487.5,726.5c18.5-27,38.8-85.9,42.1-131.4c5.1,45.5,18.5,104.5,37.1,131.4 c-10.1-8.4-15.2-15.2-25.3-27c-11.8,18.5-5.1,28.6-13.5,38.8c-8.4-10.1,0-20.2-11.8-38.8C506.5,707.9,499.3,716.4,487.5,726.5z" class="st2"/></g><g id="g3249" transform="translate(507.5 -316)"><path id="path3251" d="M470.6,689.4c0,5.1-4.9,9.3-11,9.3s-11-4.2-11-9.3c0-5.1,4.9-9.3,11-9.3S470.6,684.3,470.6,689.4z"/><path id="path3253" d="M499.3,660.7c0,6.1-5.2,11-11.8,11s-11.8-4.9-11.8-11c0-6.1,5.2-11,11.8-11S499.3,654.7,499.3,660.7z"/><path id="path3255" d="M524.6,689.4c0,5.1-4.5,9.3-10.1,9.3s-10.1-4.2-10.1-9.3c0-5.1,4.5-9.3,10.1-9.3S524.6,684.3,524.6,689.4z"/><path id="path3257" d="M445.4,818.3c18.5-27,38.8-85.9,42.1-131.4c5.1,45.5,18.5,104.5,37.1,131.4 c-10.1-8.4-15.2-15.2-25.3-27c-11.8,18.5-5.1,28.6-13.5,38.8c-8.4-10.1,0-20.2-11.8-38.8C464.4,799.7,457.2,808.2,445.4,818.3z" class="st2"/></g><g id="g3259" transform="translate(447 -176)"><path id="path3261" d="M429.2,785.3c0,5.1-4.9,9.3-11,9.3s-11-4.2-11-9.3s4.9-9.3,11-9.3S429.2,780.2,429.2,785.3z"/><path id="path3263" d="M457.9,756.6c0,6.1-5.2,11-11.8,11s-11.8-4.9-11.8-11s5.2-11,11.8-11S457.9,750.6,457.9,756.6z"/><path id="path3265" d="M483.1,785.3c0,5.1-4.5,9.3-10.1,9.3s-10.1-4.2-10.1-9.3s4.5-9.3,10.1-9.3S483.1,780.2,483.1,785.3z"/><path id="path3267" d="M403.9,914.2c18.5-27,38.8-85.9,42.1-131.4c5.1,45.5,18.5,104.5,37.1,131.4 c-10.1-8.4-15.2-15.2-25.3-27c-11.8,18.5-5.1,28.6-13.5,38.8c-8.4-10.1,0-20.2-11.8-38.8C423,895.6,415.7,904.1,403.9,914.2z" class="st2"/></g><g id="g3269" transform="translate(569 -176)"><path id="path3271" d="M512.8,785.3c0,5.1-4.9,9.3-11,9.3s-11-4.2-11-9.3s4.9-9.3,11-9.3S512.8,780.2,512.8,785.3z"/><path id="path3273" d="M541.4,756.6c0,6.1-5.2,11-11.8,11c-6.6,0-11.8-4.9-11.8-11s5.2-11,11.8-11 C536.2,745.7,541.4,750.6,541.4,756.6z"/><path id="path3275" d="M566.7,785.3c0,5.1-4.5,9.3-10.1,9.3s-10.1-4.2-10.1-9.3s4.5-9.3,10.1-9.3S566.7,780.2,566.7,785.3z"/><path id="path3277" d="M487.5,914.2c18.5-27,38.8-85.9,42.1-131.4c5.1,45.5,18.5,104.5,37.1,131.4 c-10.1-8.4-15.2-15.2-25.3-27c-11.8,18.5-5.1,28.6-13.5,38.8c-8.4-10.1,0-20.2-11.8-38.8C506.5,895.6,499.3,904.1,487.5,914.2z" class="st2"/></g><g id="g3279" transform="translate(730 -1.5)"><path id="path3281" d="M623.1,904.8c0,5.1-4.9,9.3-11,9.3s-11-4.2-11-9.3s4.9-9.3,11-9.3S623.1,899.8,623.1,904.8z"/><path id="path3283" d="M651.7,876.2c0,6.1-5.2,11-11.8,11c-6.6,0-11.8-4.9-11.8-11c0-6.1,5.2-11,11.8-11 C646.5,865.2,651.7,870.1,651.7,876.2z"/><path id="path3285" d="M677,904.8c0,5.1-4.5,9.3-10.1,9.3s-10.1-4.2-10.1-9.3s4.5-9.3,10.1-9.3S677,899.8,677,904.8z"/><path id="path3287" d="M597.8,1033.7c18.5-27,38.8-85.9,42.1-131.4c5.1,45.5,18.5,104.5,37.1,131.4 c-10.1-8.4-15.2-15.2-25.3-27c-11.8,18.5-5.1,28.6-13.5,38.8c-8.4-10.1,0-20.2-11.8-38.8C616.8,1015.2,609.6,1023.6,597.8,1033.7z" class="st2"/></g><g id="g3289" transform="translate(874.5 -2)"><path id="path3291" d="M722,904.5c0,5.1-4.9,9.3-11,9.3s-11-4.2-11-9.3c0-5.1,4.9-9.3,11-9.3S722,899.4,722,904.5z"/><path id="path3293" d="M750.7,875.8c0,6.1-5.2,11-11.8,11s-11.8-4.9-11.8-11c0-6.1,5.2-11,11.8-11S750.7,869.8,750.7,875.8z"/><path id="path3295" d="M776,904.5c0,5.1-4.5,9.3-10.1,9.3s-10.1-4.2-10.1-9.3c0-5.1,4.5-9.3,10.1-9.3S776,899.4,776,904.5z"/><path id="path3297" d="M696.8,1033.4c18.5-27,38.8-85.9,42.1-131.4c5.1,45.5,18.5,104.5,37.1,131.4 c-10.1-8.4-15.2-15.2-25.3-27c-11.8,18.5-5.1,28.6-13.5,38.8c-8.4-10.1,0-20.2-11.8-38.8C715.8,1014.8,708.6,1023.3,696.8,1033.4z" class="st2"/></g><g id="g3299" transform="translate(802.5 115)"><path id="path3301" d="M672.7,984.6c0,5.1-4.9,9.3-11,9.3s-11-4.2-11-9.3c0-5.1,4.9-9.3,11-9.3S672.7,979.6,672.7,984.6z"/><path id="path3303" d="M701.4,956c0,6.1-5.2,11-11.8,11s-11.8-4.9-11.8-11c0-6.1,5.2-11,11.8-11S701.4,949.9,701.4,956z"/><path id="path3305" d="M726.6,984.6c0,5.1-4.5,9.3-10.1,9.3s-10.1-4.2-10.1-9.3c0-5.1,4.5-9.3,10.1-9.3S726.6,979.6,726.6,984.6z"/><path id="path3307" d="M647.5,1113.5c18.5-27,38.8-85.9,42.1-131.4c5.1,45.5,18.5,104.5,37.1,131.4 c-10.1-8.4-15.2-15.2-25.3-27c-11.8,18.5-5.1,28.6-13.5,38.8c-8.4-10.1,0-20.2-11.8-38.8C666.5,1095,659.2,1103.4,647.5,1113.5z" class="st2"/></g><g id="g3309" transform="translate(947.5 115)"><path id="path3311" d="M772.1,984.6c0,5.1-4.9,9.3-11,9.3c-6.1,0-11-4.2-11-9.3c0-5.1,4.9-9.3,11-9.3 C767.2,975.3,772.1,979.6,772.1,984.6z"/><path id="path3313" d="M800.7,956c0,6.1-5.2,11-11.8,11s-11.8-4.9-11.8-11c0-6.1,5.2-11,11.8-11S800.7,949.9,800.7,956z"/><path id="path3315" d="M826,984.6c0,5.1-4.5,9.3-10.1,9.3s-10.1-4.2-10.1-9.3c0-5.1,4.5-9.3,10.1-9.3S826,979.6,826,984.6z"/><path id="path3317" d="M746.8,1113.5c18.5-27,38.8-85.9,42.1-131.4c5.1,45.5,18.5,104.5,37.1,131.4 c-10.1-8.4-15.2-15.2-25.3-27c-11.8,18.5-5.1,28.6-13.5,38.8c-8.4-10.1,0-20.2-11.8-38.8C765.8,1095,758.6,1103.4,746.8,1113.5z" class="st2"/></g><g id="g3319" transform="translate(1019.5 -2)"><path id="path3321" d="M821.4,904.5c0,5.1-4.9,9.3-11,9.3s-11-4.2-11-9.3c0-5.1,4.9-9.3,11-9.3S821.4,899.4,821.4,904.5z"/><path id="path3323" d="M850,875.8c0,6.1-5.2,11-11.8,11s-11.8-4.9-11.8-11c0-6.1,5.2-11,11.8-11S850,869.8,850,875.8z"/><path id="path3325" d="M875.3,904.5c0,5.1-4.5,9.3-10.1,9.3s-10.1-4.2-10.1-9.3c0-5.1,4.5-9.3,10.1-9.3S875.3,899.4,875.3,904.5z"/><path id="path3327" d="M796.1,1033.4c18.5-27,38.8-85.9,42.1-131.4c5.1,45.5,18.5,104.5,37.1,131.4 c-10.1-8.4-15.2-15.2-25.3-27c-11.8,18.5-5.1,28.6-13.5,38.8c-8.4-10.1,0-20.2-11.8-38.8C815.1,1014.8,807.9,1023.3,796.1,1033.4z" class="st2"/></g><g id="g3329" transform="translate(571 719.5)"><path id="path3331" d="M514.1,1398.7c0,5.1-4.9,9.3-11,9.3s-11-4.2-11-9.3c0-5.1,4.9-9.3,11-9.3S514.1,1393.6,514.1,1398.7z"/><path id="path3333" d="M542.8,1370.1c0,6.1-5.2,11-11.8,11c-6.6,0-11.8-4.9-11.8-11c0-6.1,5.2-11,11.8-11 C537.6,1359.1,542.8,1364,542.8,1370.1z"/><path id="path3335" d="M568.1,1398.7c0,5.1-4.5,9.3-10.1,9.3s-10.1-4.2-10.1-9.3c0-5.1,4.5-9.3,10.1-9.3 S568.1,1393.6,568.1,1398.7z"/><path id="path3337" d="M488.9,1527.6c18.5-27,38.8-85.9,42.1-131.4c5.1,45.5,18.5,104.5,37.1,131.4 c-10.1-8.4-15.2-15.2-25.3-27c-11.8,18.5-5.1,28.6-13.5,38.8c-8.4-10.1,0-20.2-11.8-38.8C507.9,1509.1,500.7,1517.5,488.9,1527.6z" class="st2"/></g><g id="g3339" transform="translate(447.5 719)"><path id="path3341" d="M429.5,1398.4c0,5.1-4.9,9.3-11,9.3s-11-4.2-11-9.3c0-5.1,4.9-9.3,11-9.3S429.5,1393.3,429.5,1398.4z"/><path id="path3343" d="M458.2,1369.7c0,6.1-5.2,11-11.8,11c-6.6,0-11.8-4.9-11.8-11s5.2-11,11.8-11 C453,1358.8,458.2,1363.6,458.2,1369.7z"/><path id="path3345" d="M483.5,1398.4c0,5.1-4.5,9.3-10.1,9.3s-10.1-4.2-10.1-9.3c0-5.1,4.5-9.3,10.1-9.3 S483.5,1393.3,483.5,1398.4z"/><path id="path3347" d="M404.3,1527.3c18.5-27,38.8-85.9,42.1-131.4c5.1,45.5,18.5,104.5,37.1,131.4 c-10.1-8.4-15.2-15.2-25.3-27c-11.8,18.5-5.1,28.6-13.5,38.8c-8.4-10.1,0-20.2-11.8-38.8C423.3,1508.7,416.1,1517.2,404.3,1527.3z" class="st2"/></g><g id="g3349" transform="translate(508 566)"><path id="path3351" d="M471,1293.6c0,5.1-4.9,9.3-11,9.3s-11-4.2-11-9.3s4.9-9.3,11-9.3S471,1288.5,471,1293.6z"/><path id="path3353" d="M499.6,1264.9c0,6.1-5.2,11-11.8,11c-6.6,0-11.8-4.9-11.8-11c0-6.1,5.2-11,11.8-11 C494.4,1254,499.6,1258.8,499.6,1264.9z"/><path id="path3355" d="M524.9,1293.6c0,5.1-4.5,9.3-10.1,9.3c-5.6,0-10.1-4.2-10.1-9.3s4.5-9.3,10.1-9.3 C520.4,1284.3,524.9,1288.5,524.9,1293.6z"/><path id="path3357" d="M445.7,1422.5c18.5-27,38.8-85.9,42.1-131.4c5.1,45.5,18.5,104.5,37.1,131.4 c-10.1-8.4-15.2-15.2-25.3-27c-11.8,18.5-5.1,28.6-13.5,38.8c-8.4-10.1,0-20.2-11.8-38.8C464.8,1403.9,457.5,1412.3,445.7,1422.5z" class="st2"/></g><g id="g3359" transform="translate(446.5 449)"><path id="path3361" d="M428.9,1213.4c0,5.1-4.9,9.3-11,9.3c-6.1,0-11-4.2-11-9.3s4.9-9.3,11-9.3 C424,1204.1,428.9,1208.4,428.9,1213.4z"/><path id="path3363" d="M457.5,1184.8c0,6.1-5.2,11-11.8,11c-6.6,0-11.8-4.9-11.8-11c0-6.1,5.2-11,11.8-11 C452.3,1173.8,457.5,1178.7,457.5,1184.8z"/><path id="path3365" d="M482.8,1213.4c0,5.1-4.5,9.3-10.1,9.3s-10.1-4.2-10.1-9.3s4.5-9.3,10.1-9.3S482.8,1208.4,482.8,1213.4z"/><path id="path3367" d="M403.6,1342.3c18.5-27,38.8-85.9,42.1-131.4c5.1,45.5,18.5,104.5,37.1,131.4 c-10.1-8.4-15.2-15.2-25.3-27c-11.8,18.5-5.1,28.6-13.5,38.8c-8.4-10.1,0-20.2-11.8-38.8C422.6,1323.8,415.4,1332.2,403.6,1342.3z" class="st2"/></g><g id="g3369" transform="translate(570.5 446)"><path id="path3371" d="M513.8,1211.4c0,5.1-4.9,9.3-11,9.3s-11-4.2-11-9.3s4.9-9.3,11-9.3S513.8,1206.3,513.8,1211.4z"/><path id="path3373" d="M542.5,1182.7c0,6.1-5.2,11-11.8,11c-6.6,0-11.8-4.9-11.8-11c0-6.1,5.2-11,11.8-11 C537.2,1171.8,542.5,1176.6,542.5,1182.7z"/><path id="path3375" d="M567.7,1211.4c0,5.1-4.5,9.3-10.1,9.3s-10.1-4.2-10.1-9.3s4.5-9.3,10.1-9.3S567.7,1206.3,567.7,1211.4z"/><path id="path3377" d="M488.5,1340.3c18.5-27,38.8-85.9,42.1-131.4c5.1,45.5,18.5,104.5,37.1,131.4 c-10.1-8.4-15.2-15.2-25.3-27c-11.8,18.5-5.1,28.6-13.5,38.8c-8.4-10.1,0-20.2-11.8-38.8C507.6,1321.7,500.3,1330.1,488.5,1340.3z" class="st2"/></g><g id="g3379" transform="translate(510 313)"><path id="path3381" d="M472.4,1120.2c0,5.1-4.9,9.3-11,9.3s-11-4.2-11-9.3s4.9-9.3,11-9.3S472.4,1115.2,472.4,1120.2z"/><path id="path3383" d="M501,1091.6c0,6.1-5.2,11-11.8,11c-6.6,0-11.8-4.9-11.8-11c0-6.1,5.2-11,11.8-11 C495.8,1080.6,501,1085.5,501,1091.6z"/><path id="path3385" d="M526.3,1120.2c0,5.1-4.5,9.3-10.1,9.3s-10.1-4.2-10.1-9.3s4.5-9.3,10.1-9.3S526.3,1115.2,526.3,1120.2z"/><path id="path3387" d="M447.1,1249.1c18.5-27,38.8-85.9,42.1-131.4c5.1,45.5,18.5,104.5,37.1,131.4 c-10.1-8.4-15.2-15.2-25.3-27c-11.8,18.5-5.1,28.6-13.5,38.8c-8.4-10.1,0-20.2-11.8-38.8C466.1,1230.6,458.9,1239,447.1,1249.1z" class="st2"/></g></g><g id="layer5"><g id="g3794"><path id="path3390" d="M242.6,242.8c-6.7,3.4-3.7,20.4-6.7,25.3c-3,4.9-5.4,3.5-8.4,8.4c-3,4.9-0.5,25.3-8.4,25.3 s-3.9-19-5.1-25.3c-1.2-6.2-25.1-32.7-35.4-33.7c-7.1,0.7-8.4,4.9-10.1,8.4c0,5.4,11.8,6.7,15.2,16.9c-1.7,15.2-1.7,30.3-1.7,43.8 c-17.7-14.7-61-16.5-57.3,6.7c1.7,10.1,14-3.4,20.2,0s5.4,21.6,13.5,25.3c6.7,5.2,26.3-2.9,27,6.7c0.3,4.9-15.2,6.7-18.5,10.1 c-6.1,5.7-10.1,14.5-15.2,15.2c-5.1,0-12.5-3.2-13.5,0c0,3.4,16,21.1,27,21.9c15.2,1.7,20.7-19.9,30.3-13.5s-14.8,20.9-10.1,27 c4.7,6.1,9.8-2,15.2,3.4c2.7,6.9-2.4,27.6,6.7,30.3c9.6,4,10.1-18.5,13.5-16.9c1,4-1.9,15.2,5.1,16.9c4.5,0.7,5.1-6.9,11.8-5.1 c0.2,5.6,0.2,31.5,8.4,32c8.4,1,6.9-20.2,10.1-20.2c3.9,4.5,1.5,28.3,8.4,28.6c7.8,1.2,4.2-14.2,8.4-16.9 c3.9,5.1,5.9,20.4,16.9,18.5c13.5-0.3,1.3-23.8,10.1-25.3c13.5,0,16.9,6.7,15.2,13.5c-4.4,22.9-35.9,107.8-62.3,118 c-6.7,1.7-40.3-4.2-50.6,0c-10.3,4.4-12.6,15.5-13.5,20.2c5.4,1.2,17.2-2.9,18.5,6.7c-6.7,11.8-24.4,41.8-13.5,55.6 c11.1,8.1,10.6-18.4,21.9-13.5c0.2,9.4-4.5,45.3,13.5,47.2c4.5-3.5,8.3-42,23.6-40.4c11.1,0.5,10.1,27.8,20.2,27 c7.1,0.2,10.1-11.8,11.8-18.5c2.5-8.4,2.2-21.6-1.7-28.6c7.6,2.4,8.9,8.4,13.5,5.1c3.2-5.4,0.3-13.5,3.4-16.9 c4-1.2,9.1,3.4,13.5-1.7c3.4-6.2-15.7-10.6-13.5-20.2c6.1-3.5,21.4,10.3,25.3,5.1c1.7-4.9-12.6-22.9-6.7-28.6 c5.7-5.7,13.3,11.1,20.2,6.7c3.2-6.9-1.9-26.6,3.4-35.4c6.7,6.2,9.8,13,15.2,11.8c4.9-5.6-1.3-20.4,5.1-21.9 c6.2-1,4,15.7,13.5,8.4c6.7-5.1,3.2-12.1,5.1-18.5c1.9-8.8,34,6.4,53.9,1.7c23.6-2,64.7-40.1,70.8-40.4 c1.5,16.9-20.6,30.5-21.9,38.8c-1.7,3.4-1.7,5.1,0,6.7c3.5,2.2,10.6-4.4,13.5-5.1c3.4,3.2-13.6,11-11.8,18.5 c7.1,7.1,14-9.3,16.9-6.7c-0.7,6.4-6.6,6.6-5.1,13.5c6.1,0,6.2-6.2,15.2-3.4c5.4,5.9,13,15.3,18.5,16.9 c-13.8,3.7-23.6,20.7-30.3,27c-10.6,7.9-26.8,7.4-37.1,5.1c-8.6-3.2-17.2-7.2-25.3-6.7c-6.7,0.5-15.2,4.4-15.2,10.1 c0.8,5.2,15,2,15.2,10.1c0.8,6.4-22.1,14-16.9,23.6c4.4,5.4,19.2-3,21.9,5.1c-1,6.7-16.7,22.4-6.7,33.7c6.1,5.1,16-12.1,23.6-11.8 c13.1,1,15.8,16.2,25.3,13.5c7.4-1.7-2.2-23.9,3.4-25.3c5.6-1.3,4.9,5.6,10.1,3.4c5.4-2-4.5-12.5,0-16.9 c3.9-0.2,2.5,21.1,11.8,16.9c6.1-8.1,0.2-16.5-1.7-23.6c5.6,5.6,12.1,20.4,20.2,15.2c4.2-5.2-6.2-11.8-5.1-18.5 c4.2,1.9,14,10.8,18.5,5.1c1.7-3.5-3.4-6.2-1.7-13.5c2.7-10.6,11.6,1,15.2,0c4-1.7,2.9-5.4,8.4-6.7c5.6-1.7,13.8,8.6,20.2,5.1 c2.4-5.7-2.2-6.9-1.7-21.9c4.7-17.2,55.3-40.9,65.7-43.8c-16.5,11.1-33.7,23.6-38.8,35.4c-6.7,15.2-2.9,33.7-11.8,40.4 c-5.1,5.1-8.4,6.7-15.2,3.4c-16.2-3.9-45.2,9.1-42.1,21.9c8.9,0,19.7-1.2,25.3,1.7c-3,4.2-18.7,31-10.1,35.4 c8.4,3.9,9.6-14.8,18.5-13.5c1.5,6.4-1.5,28.6,8.4,32c10.4,1.2,9.3-28,20.2-27c9.6,0.7,0.5,22.9,10.1,23.6 c9.9,0.8,8.6-32.7,15.2-35.4c5.9-3.7,5.1,0,8.4-1.7c1.3-8.4-0.8-23.4-1.7-28.6c6.7-4.2,6.7,9.3,13.5,5.1 c7.6-4.2-0.2-25.8,1.7-28.6c4.9,1.3,10.1,10.1,16.9,8.4c6.7,0,10.8-0.5,11.8-6.7c0.7-3.2-9.9-5.4-11.8-15.2c0-5.1-1.7-8.4,0-11.8 c4.4,0.3,19.4,11.5,28.6,10.1c8.8-1.9,12.1-11.1,10.1-20.2c-10.4,3.2-21.9-9.6-20.2-21.9c7.1-5.6,14.3,13.1,18.5,10.1 c3.7-5.9,4.5-14-1.7-25.3c-8.9-12.5-36.9-29.3-52.2-43.8c12.3-25.4,35.2-75.7,10.1-104.5c15.2-18.2,30.3-30.3,32-52.2 c-1.9-14.5-26.3-31-32-47.2c-4.4-15.8,15.2-28.6,5.1-32c-21.9-7.6-23.1,7.1-28.6,16.9c-19.4,0-63.5,0.5-84.3,0 c-27.5,1-53.1-7.8-57.3-18.5c-4.4-9.4,10.1-25.9,1.7-30.3c-6.1-4.4-17.7,5.4-18.5,10.1c-0.5-4,3.5-22.4,11.8-25.3 c4.2,0.5,14.3,14.5,27,15.2c16.2,1.2,36.7-16,42.1-33.7c11.3-35.7-23.9-48.7-45.5-47.2c-2.4,10.4,15.5,21.4,13.5,30.3 c-1.5,8.9-3.7,14.8-13.5,16.9c-4-6.2,4.7-37.2-20.2-43.8c-12,0.5-4.9,6.6-8.4,18.5c-9.4,13.5-38.9,35.6-38.8,50.6 c-5.6,33.5,40.4,84.3,67.4,96c36.1-6.9,107.8-23.6,133.1-8.4c-15.8,12.6-15.8,19.5-8.4,32c6.2,9.1,9.1-10.6,16.9-6.7 c3.4,6.7,7.1,21.6-1.7,27c-15.2,3.9-22.9-12-62.3-11.8c-27.3-1.2-50.4,6.7-80.9,23.6c-6.4-5.2-17.7-13.5-69.1-23.6 c-3-11.8,0.7-13.5-3.4-18.5c-9.8-9.6-8.8,5.6-11.8-1.7c-2.9-3.5-3.7-17-3.4-23.6c3.5-2.2,5.1,1.7,13.5-1.7 c16.7-4,33-47.9,18.5-62.3c5.7,8.4-11.8,54.3-30.3,40.4c1.7,4.7,22.1-10.8,13.5-27c-5.2-4.5-8.1,5.2-13.5,3.4s-6.6,1.3-5.1-8.4 c4.7-7.1,25.9-19.2,27-30.3c-3.7-8.9-5.6-3.4-11.8-6.7c0.3-5.6-12.5-20.1-21.9-28.6c6.6-6.1,10.4-16,11.1-27 c0.8-9.9-1-18.9-4.4-23.6c-10.3-0.8-13.8,18-21.9,16.9c-2.9-4,4-28.3-5.1-32c-7.9-3.4-6.7,3.4-8.4,10.1c2.2-4-4.2-39.6-28.6-32 c-6.6,5.6,11.5,19.7,3.4,32c-7.6,4.4-8.3-17.5-18.5-13.5c-13.8,0.8-7.1,42.3-16.9,45.5c-11.8,2-9.1-19.2-20.2-18.5 c-13,8.6,2.5,37.1,5.1,42.1c-4.7,5.9-17.9,8.9-18.5,33.7c-5.1,11.8-15.5,19.4-15.2,23.6c1.9,8.9,7.4,13.3,11.8,15.2 c4.5,1.9,5.7-4.4,8.4-1.7c1.3,5.2,2.2,10.3-3.4,13.5c-3.4,2.9-11.5-6.4-15.2,0c-3.2,9.9,23.4,20.4,20.2,27 c-5.9,5.6-13.3,5.4-18.5,3.4c-5.7-2.4-8.9-16.3-15.2-16.9c-12.8,32.5,16.2,59,32,57.3c-1.3,10.3-3.7,8.6,1.7,11.8 c4.5,2.9,16.9-5.1,16.9-5.1c7.1,4.9-5.7,20.7-33.7,18.5c-30.8,6.6-42.1-11.8-40.4-33.7c-2.9-17,17.7-52.9,20.2-67.4 C258.6,260.1,252.2,242.1,242.6,242.8z" class="st3"/><path id="path3652" d="M227.5,278.2c10.3,7.9,19.2,11.8,27,8.4" class="st4"/><path id="path3654" d="M183.7,281.5c17.4,2.5,21.7-3.5,25.3-10.1" class="st4"/><path id="path3656" d="M151.7,328.7c9.4-6.1,14.2-13.6,16.9-21.9" class="st4"/><path id="path3658" d="M161.8,369.2c5.7,3,10.4,8.3,10.1,25.3" class="st4"/><path id="path3660" d="M222.4,391.1c-15.8,3.9-20.4,13-20.2,21.9" class="st5"/><path id="path3662" d="M220.7,426.5c4-10.3,7.6-21.2,18.5-20.2" class="st5"/><path id="path3664" d="M264.5,423.1c-12.6-1.7-20.7,4-25.3,15.2" class="st5"/><path id="path3666" d="M269.6,436.6c-10.6,2.5-11.6,8.1-13.5,13.5" class="st5"/><path id="path3668" d="M284.8,436.6c-9.6,5.1-9.9,15.7-11.8,25.3" class="st5"/><path id="path3672" d="M262.9,670.8c4.4-5.4,9.3-10.1,20.2-8.4" class="st5"/><path id="path3674" d="M217.4,665.7c7.9,0.2,14.8,2.5,20.2,8.4" class="st5"/><path id="path3676" d="M203.9,627c13.5,5.1,10.1,18.5,10.1,27" class="st5"/><path id="path3678" d="M208.9,611.8c7.2-6.4,6.1-15.3,6.7-23.6" class="st5"/><path id="path3680" d="M208.9,615.2c11.3-3.2,25.8-1.2,38.8-1.7" class="st6"/><path id="path3682" d="M215.7,653.9c9.4-9.6,20.1-17.5,32-23.6" class="st6"/><path id="path3684" d="M252.8,660.7c3.5-13.1,10.1-24.1,18.5-33.7" class="st6"/><path id="path3686" d="M296.6,632c-5.9-7.8-9.4-17-11.8-27" class="st5"/><path id="path3688" d="M298.2,610.1c-5.1-3.5-5.7-15-3.4-27" class="st5"/><path id="path3690" d="M316.8,586.5c-1.9-4.2-1.2-19-1.7-28.6" class="st5"/><path id="path3692" d="M342.1,556.2c-1-3.2-3.4-12.3-5.1-18.5" class="st5"/><path id="path3694" d="M360.6,546.1c2.4-9.6-0.7-19,1.7-27" class="st5"/><path id="path3696" d="M382.5,534.3c-1.2-18.2-1-36.9-6.7-53.9" class="st5"/><path id="path3698" d="M451.6,606.7c1,9.1-3.7,14.8-11.8,18.5" class="st5"/><path id="path3700" d="M438.1,628.7c7.1,5.2,6.7,12.8,6.7,20.2" class="st5"/><path id="path3702" d="M444.8,653.9c6.9,5.9,11.5,12.1,15.2,18.5" class="st5"/><path id="path3704" d="M471.8,677.5c3.5-3.7,6.6-7.8,11.8-10.1" class="st5"/><path id="path3706" d="M465.1,672.5c-3.2-16.7,4.2-17.9,8.4-23.6" class="st6"/><path id="path3708" d="M444.8,652.2c9.8-6.2,18.4-13.6,32-15.2" class="st6"/><path id="path3710" d="M439.8,627h37.1" class="st6"/><path id="path3712" d="M564.5,645.5c0.8,5.6,1,11.3,0,16.9" class="st5"/><path id="path3716" d="M566.2,669.1c6.7-0.3,9.4,5.4,8.4,16.9" class="st4"/><path id="path3718" d="M596.5,694.4c-8.3-9.4-14.3-9.1-20.2-8.4" class="st5"/><path id="path3720" d="M604.9,691c5.7-2.4,11.5-4.2,16.9-1.7" class="st5"/><path id="path3722" d="M628.5,679.2c-5.2-5.6-8.3-12.3-6.7-21.9" class="st5"/><path id="path3724" d="M598.2,691c-0.5-6.4,2.4-11.8,6.7-16.9" class="st6"/><path id="path3726" d="M574.6,685.9c8.6-8.8,17.5-17.9,25.3-23.6" class="st6"/><path id="path3728" d="M566.2,664c5.2-5.2,14.2-6.1,21.9-8.4" class="st6"/><path id="path3730" d="M626.8,569.7H610c-15.3,0.7-23.4-26.8-25.3-38.8c-7.9,4.7-6.4,12.3-10.1,15.2 c-2.7-2.4-1.9-13.3-5.1-13.5c-4.9,1.2-2.9,15.3-5.1,16.9c-5.7-4.2-1.2-34.2-1.7-38.8c-4.2-5.1-4.2,3.7-6.7,1.7 c-0.7-3.5,0-10.1,0-15.2c-1.3-5.1-6.7-11-10.1-16.9c-2.4-3.9-2.5-19.9-1.7-30.3c0.7-14.5,26.8-34,27-33.7" class="st7"/><path id="path3732" d="M542.6,458.5c-3-0.2-32,16.9-33.7,27c0,3.4,0,6.7,1.7,10.1c1.7,1.7,10.8,5.6,15.2,5.1 c8.9-1.5,11.8-18.5,18.5-20.2" class="st5"/><path id="path3734" d="M357.2,143.4c-2.9,6.9-5.7,13.8-6.7,20.2c0.2,2.5-0.8,5.1,5.1,8.4" class="st5"/><path id="path3736" d="M384.2,143.4c-4.2,5.1-8.6,10.1-10.1,15.2c-0.2,3.4-2.7,8.8,1.7,8.4" class="st5"/><path id="path3738" d="M337,205.7l15.2,10.1" class="st5"/><path id="path3740" d="M365.6,217.5l15.2-11.8" class="st5"/><path id="path3742" d="M406.1,215.8c6.2,4.9,9.8,11.3,11.8,18.5c-4.2-3.7-8.6-5.1-11.8-5.1c-7.9,3.5-8.1,8.6-8.4,13.5 c4.4-0.3,8.8-1,11.8,1.7c5.7,4,7.4,9.8,10.1,15.2" class="st7"/><path id="path3744" d="M399.3,259.6c5.7,2.2,7.9,6.7,10.1,10.1c-3.9,7.2-10.3,0.8-11.8,8.4 c9.8,12.8,15.5,27.3,25.3,38.8" class="st7"/><path id="path3746" d="M390.9,308.5c9.3-10.8,15.2-5.7,21.9-5.1" class="st5"/><path id="path3748" d="M421.3,335.5c-6.4,1.2-12.5-5.6-18.5-11.8c0.3,12.3-2.4,25.8,10.1,33.7 c10.6,0.2,18.2-6.2,25.3-11.8" class="st7"/><path id="path3750" d="M396,357.4v13.5c9.8,4,17.9,8.4,23.6,13.5c5.4,8.4,4.9,16.9,5.1,25.3 c1.2,24.1-14,20.4-25.3,23.6c2-4.5,6.2-11.5,5.1-18.5c-3.7-15.8-10.4-17.9-16.9-16.9" class="st7"/><path id="path3752" d="M417.9,382.6c8.3-6.4,16.5-12.8,20.2-23.6" class="st5"/><path id="path3754" d="M387.6,333.8c0.8,14.3-5.6,25.8-6.7,40.4c4.4,19.9,8.8,30.3,8.4,48.9 c0.7,20.9-8.6,17.9-15.2,16.9c0.3-7.6,1-15.2-3.4-23.6c-7.2,1.2-11.6-12.6-11.8-16.9c-0.8-7.4,12.1-15.8,11.8-30.3" class="st7"/><path id="path3756" d="M350.5,396.1c-3.5,4.5-2.4,8.9,0,13.5c7.9,7.8,3.5,20.1,5.1,30.3c6.6-1,9.3-7.2,11.8-13.5 v-10.1" class="st7"/><path id="path3758" d="M343.7,391.1c-10.4,10.1-19.9,20.9-28.6,32c-3.7,34.4,8.1,46.3,25.3,50.6 c6.1-2.4,12.5-2.5,16.9-13.5c-6.7,0.7-13.1-0.2-18.5-5.1c-3.5-6.1-2.7-14-1.7-21.9c1.7,4,2.5,9.4,6.7,10.1c2.9-1,6.4-1,6.7-5.1 c-2.9-4.7-2.4-10.8-3.4-16.9c0.5-4.9,0.7-9.9,3.4-13.5" class="st7"/><path id="path3760" d="M335.3,343.9c-0.2,13.6-1.3,26.5-3.4,38.8c-2.9,15.3-11.8,20.4-21.9,23.6 c-3.9,2-5.6,5.7-6.7,10.1c0,9.3-2.5,20.1,1.7,27c0-6.4,1.2-11.5,3.4-15.2c2.7-3.5,5.4-6.4,8.4-6.7" class="st7"/><path id="path3762" d="M278,381c6.9,6.9,13.1,14.8,25.3,15.2c12.6-4.9,14.7-7.6,20.2-11.8 c-5.1,7.9-12.8,9.4-21.9,13.5c-15,0.5-26.1,4.4-25.3,18.5c-0.3,10.4,3.9,17.4,11.8,21.9c0.2-8.4,0.7-14.7,1.7-16.9 c1.3-6.4,4.9-6.6,8.4-6.7c2.2,0,5.1-0.5,5.1,1.7" class="st7"/><path id="path3764" d="M315.1,357.4c3.5-8.8-1.3-21.6,15.2-21.9" class="st7"/><path id="path3766" d="M320.2,210.8c-8.1,3.5-12.8,10.6-16.9,18.5c5.1,1.5,10.1,4,15.2,10.1v18.5 c-3.7,3.7-8.9,7.2-8.4,11.8c4.2,3,9.8,5.4,10.1,10.1c-6.6,9.4-12.6,11.8-13.5,18.5c0.5,3,0.3,7.1,3.4,6.7c2.7-2.7,4-7.1,10.1-5.1 c3.5,2.9,6.4,5.6,6.7,8.4c-7.2,6.6-14.3,13.1-20.2,20.2c-1.2,6.2-1.5,12.3-1.7,18.5c-1.2,5.6-3.9,10.4-6.7,15.2" class="st7"/><path id="path3768" d="M318.5,249.5c-7.6,0.7-15,1.3-18.5,5.1" class="st7"/><path id="path3770" d="M320.2,220.9l5.1-5.1l27,21.9" class="st7"/><path id="path3772" d="M399.3,217.5l-3.4-3.4l-27,20.2" class="st7"/><path id="path3774" d="M355.5,229.3c-2.2,1.2-3,3.7-3.4,6.7v20.2c-2.9,1.3-4.9,3.2-5.1,6.7c0.2,3.7,1.7,5.1,5.1,6.7 c-6.1,0.3-9.4,2.7-10.1,6.7" class="st7"/><path id="path3776" d="M364,229.3c1.9,1.5,3.7,3,3.4,6.7v18.5c3,2.4,5.6,4,5.1,6.7c-1.2,7.1-4.4,6.4-6.7,8.4 c3.4,0.7,9.6,0.2,10.1,3.4" class="st7"/><path id="path3778" d="M333.6,224.2c-0.2,5.9,0.2,11.1,1.7,15.2c4.2,10.4,9.6,11.1,15.2,11.8" class="st7"/><path id="path3780" d="M385.9,222.6c1,6.6-0.3,12.8-3.4,18.5c-2.9,5.6-8.6,6.2-13.5,8.4" class="st7"/><path id="path3782" d="M352.2,278.2c4.2,7.4,8.3,15,15.2,20.2c10.8,0,15.2-6.7,20.2-15.2c0.3-5.6,0.7-11-3.4-15.2" class="st7"/><path id="path3784" d="M369,278.2l-16.9,18.5c-11.1,3.2-13.5-1.7-16.9-6.7c-1.3-4.7-2.5-13,0-20.2" class="st7"/><path id="path3786" d="M384.2,288.3c-5.1,58.5-13.8,56.3-21.9,64c-11.3,4-14.8-3.5-20.2-8.4" class="st7"/><path id="path3788" d="M352.2,296.7v47.2c-5.7,0-6.1-12.6-8.4-20.2c-0.8-8.4-0.5-16.9,0-25.3" class="st7"/><path id="path3790" d="M367.3,298.4v40.4c4.2-2,5.9-8.6,8.4-13.5c2.4-7.8,2-18.2,1.7-28.6" class="st7"/><path id="path3792" d="M340.4,295c-4.5,44.3,5.1,38.8,10.1,48.9" class="st7"/></g><g id="g3866" transform="translate(661 -7)"><path id="path3868" d="M695.4,238c-6.7,3.4-3.7,20.4-6.7,25.3c-3,4.9-5.4,3.5-8.4,8.4c-3,4.9-0.5,25.3-8.4,25.3 s-3.9-19-5.1-25.3c-1.2-6.2-25.1-32.7-35.4-33.7c-7.1,0.7-8.4,4.9-10.1,8.4c0,5.4,11.8,6.7,15.2,16.9c-1.7,15.2-1.7,30.3-1.7,43.8 c-17.7-14.7-61-16.5-57.3,6.7c1.7,10.1,14-3.4,20.2,0c6.2,3.4,5.4,21.6,13.5,25.3c6.7,5.2,26.3-2.9,27,6.7 c0.3,4.9-15.2,6.7-18.5,10.1c-6.1,5.7-10.1,14.5-15.2,15.2c-5.1,0-12.5-3.2-13.5,0c0,3.4,16,21.1,27,21.9 c15.2,1.7,20.7-19.9,30.3-13.5c9.6,6.4-14.8,20.9-10.1,27c4.7,6.1,9.8-2,15.2,3.4c2.7,6.9-2.4,27.6,6.7,30.3 c9.6,4,10.1-18.5,13.5-16.9c1,4-1.9,15.2,5.1,16.9c4.5,0.7,5.1-6.9,11.8-5.1c0.2,5.6,0.2,31.5,8.4,32c8.4,1,6.9-20.2,10.1-20.2 c3.9,4.5,1.5,28.3,8.4,28.6c7.8,1.2,4.2-14.2,8.4-16.9c3.9,5.1,5.9,20.4,16.9,18.5c13.5-0.3,1.3-23.8,10.1-25.3 c13.5,0,16.9,6.7,15.2,13.5c-4.4,22.9-35.9,107.8-62.3,118c-6.7,1.7-40.3-4.2-50.6,0c-10.3,4.4-12.6,15.5-13.5,20.2 c5.4,1.2,17.2-2.9,18.5,6.7c-6.7,11.8-24.4,41.8-13.5,55.6c11.1,8.1,10.6-18.4,21.9-13.5c0.2,9.4-4.5,45.3,13.5,47.2 c4.5-3.5,8.3-42,23.6-40.4c11.1,0.5,10.1,27.8,20.2,27c7.1,0.2,10.1-11.8,11.8-18.5c2.5-8.4,2.2-21.6-1.7-28.6 c7.6,2.4,8.9,8.4,13.5,5.1c3.2-5.4,0.3-13.5,3.4-16.9c4-1.2,9.1,3.4,13.5-1.7c3.4-6.2-15.7-10.6-13.5-20.2 c6.1-3.5,21.4,10.3,25.3,5.1c1.7-4.9-12.6-22.9-6.7-28.6c5.7-5.7,13.3,11.1,20.2,6.7c3.2-6.9-1.9-26.6,3.4-35.4 c6.7,6.2,9.8,13,15.2,11.8c4.9-5.6-1.3-20.4,5.1-21.9c6.2-1,4,15.7,13.5,8.4c6.7-5.1,3.2-12.1,5.1-18.5c1.9-8.8,34,6.4,53.9,1.7 c23.6-2,64.7-40.1,70.8-40.4c1.5,16.9-20.6,30.5-21.9,38.8c-1.7,3.4-1.7,5.1,0,6.7c3.5,2.2,10.6-4.4,13.5-5.1 c3.4,3.2-13.6,11-11.8,18.5c7.1,7.1,14-9.3,16.9-6.7c-0.7,6.4-6.6,6.6-5.1,13.5c6.1,0,6.2-6.2,15.2-3.4c5.4,5.9,13,15.3,18.5,16.9 c-13.8,3.7-23.6,20.7-30.3,27c-10.6,7.9-26.8,7.4-37.1,5.1c-8.6-3.2-17.2-7.2-25.3-6.7c-6.7,0.5-15.2,4.4-15.2,10.1 c0.8,5.2,15,2,15.2,10.1c0.8,6.4-22.1,14-16.9,23.6c4.4,5.4,19.2-3,21.9,5.1c-1,6.7-16.7,22.4-6.7,33.7c6.1,5.1,16-12.1,23.6-11.8 c13.1,1,15.8,16.2,25.3,13.5c7.4-1.7-2.2-23.9,3.4-25.3c5.6-1.3,4.9,5.6,10.1,3.4c5.4-2-4.5-12.5,0-16.9 c3.9-0.2,2.5,21.1,11.8,16.9c6.1-8.1,0.2-16.5-1.7-23.6c5.6,5.6,12.1,20.4,20.2,15.2c4.2-5.2-6.2-11.8-5.1-18.5 c4.2,1.9,14,10.8,18.5,5.1c1.7-3.5-3.4-6.2-1.7-13.5c2.7-10.6,11.6,1,15.2,0c4-1.7,2.9-5.4,8.4-6.7c5.6-1.7,13.8,8.6,20.2,5.1 c2.4-5.7-2.2-6.9-1.7-21.9c4.7-17.2,55.3-40.9,65.7-43.8c-16.5,11.1-33.7,23.6-38.8,35.4c-6.7,15.2-2.9,33.7-11.8,40.4 c-5.1,5.1-8.4,6.7-15.2,3.4c-16.2-3.9-45.2,9.1-42.1,21.9c8.9,0,19.7-1.2,25.3,1.7c-3,4.2-18.7,31-10.1,35.4 c8.4,3.9,9.6-14.8,18.5-13.5c1.5,6.4-1.5,28.6,8.4,32c10.4,1.2,9.3-28,20.2-27c9.6,0.7,0.5,22.9,10.1,23.6 c9.9,0.8,8.6-32.7,15.2-35.4c5.9-3.7,5.1,0,8.4-1.7c1.3-8.4-0.8-23.4-1.7-28.6c6.7-4.2,6.7,9.3,13.5,5.1 c7.6-4.2-0.2-25.8,1.7-28.6c4.9,1.3,10.1,10.1,16.9,8.4c6.7,0,10.8-0.5,11.8-6.7c0.7-3.2-9.9-5.4-11.8-15.2c0-5.1-1.7-8.4,0-11.8 c4.4,0.3,19.4,11.5,28.6,10.1c8.8-1.9,12.1-11.1,10.1-20.2c-10.4,3.2-21.9-9.6-20.2-21.9c7.1-5.6,14.3,13.1,18.5,10.1 c3.7-5.9,4.5-14-1.7-25.3c-8.9-12.5-36.9-29.3-52.2-43.8c12.3-25.4,35.2-75.7,10.1-104.5c15.2-18.2,30.3-30.3,32-52.2 c-1.9-14.5-26.3-31-32-47.2c-4.4-15.8,15.2-28.6,5.1-32c-21.9-7.6-23.1,7.1-28.6,16.9c-19.4,0-63.5,0.5-84.3,0 c-27.5,1-53.1-7.8-57.3-18.5c-4.4-9.4,10.1-25.9,1.7-30.3c-6.1-4.4-17.7,5.4-18.5,10.1c-0.5-4,3.5-22.4,11.8-25.3 c4.2,0.5,14.3,14.5,27,15.2c16.2,1.2,36.7-16,42.1-33.7c11.3-35.7-23.9-48.7-45.5-47.2c-2.4,10.4,15.5,21.4,13.5,30.3 c-1.5,8.9-3.7,14.8-13.5,16.9c-4-6.2,4.7-37.2-20.2-43.8c-12,0.5-4.9,6.6-8.4,18.5c-9.4,13.5-38.9,35.6-38.8,50.6 c-5.6,33.5,40.4,84.3,67.4,96c36.1-6.9,107.8-23.6,133.1-8.4c-15.8,12.6-15.8,19.5-8.4,32c6.2,9.1,9.1-10.6,16.9-6.7 c3.4,6.7,7.1,21.6-1.7,27c-15.2,3.9-22.9-12-62.3-11.8c-27.3-1.2-50.4,6.7-80.9,23.6c-6.4-5.2-17.7-13.5-69.1-23.6 c-3-11.8,0.7-13.5-3.4-18.5c-9.8-9.6-8.8,5.6-11.8-1.7c-2.9-3.5-3.7-17-3.4-23.6c3.5-2.2,5.1,1.7,13.5-1.7 c16.7-4,33-47.9,18.5-62.3c5.7,8.4-11.8,54.3-30.3,40.4c1.7,4.7,22.1-10.8,13.5-27c-5.2-4.5-8.1,5.2-13.5,3.4 c-5.4-1.9-6.6,1.3-5.1-8.4c4.7-7.1,25.9-19.2,27-30.3c-3.7-8.9-5.6-3.4-11.8-6.7c0.3-5.6-12.5-20.1-21.9-28.6 c6.6-6.1,10.4-16,11.1-27c0.8-9.9-1-18.9-4.4-23.6c-10.3-0.8-13.8,18-21.9,16.9c-2.9-4,4-28.3-5.1-32c-7.9-3.4-6.7,3.4-8.4,10.1 c2.2-4-4.2-39.6-28.6-32c-6.6,5.6,11.5,19.7,3.4,32c-7.6,4.4-8.3-17.5-18.5-13.5c-13.8,0.8-7.1,42.3-16.9,45.5 c-11.8,2-9.1-19.2-20.2-18.5c-13,8.6,2.5,37.1,5.1,42.1c-4.7,5.9-17.9,8.9-18.5,33.7c-5.1,11.8-15.5,19.4-15.2,23.6 c1.9,8.9,7.4,13.3,11.8,15.2c4.5,1.9,5.7-4.4,8.4-1.7c1.3,5.2,2.2,10.3-3.4,13.5c-3.4,2.9-11.5-6.4-15.2,0 c-3.2,9.9,23.4,20.4,20.2,27c-5.9,5.6-13.3,5.4-18.5,3.4c-5.7-2.4-8.9-16.3-15.2-16.9c-12.8,32.5,16.2,59,32,57.3 c-1.3,10.3-3.7,8.6,1.7,11.8c4.5,2.9,16.9-5.1,16.9-5.1c7.1,4.9-5.7,20.7-33.7,18.5c-30.8,6.6-42.1-11.8-40.4-33.7 c-2.9-17,17.7-52.9,20.2-67.4C711.4,255.3,705,237.3,695.4,238z" class="st3"/><path id="path3870" d="M680.3,273.4c10.3,7.9,19.2,11.8,27,8.4" class="st4"/><path id="path3872" d="M636.5,276.7c17.4,2.5,21.7-3.5,25.3-10.1" class="st4"/><path id="path3874" d="M604.4,323.9c9.4-6.1,14.2-13.6,16.9-21.9" class="st4"/><path id="path3876" d="M614.6,364.4c5.7,3,10.4,8.3,10.1,25.3" class="st4"/><path id="path3878" d="M675.2,386.3c-15.8,3.9-20.4,13-20.2,21.9" class="st5"/><path id="path3880" d="M673.5,421.7c4-10.3,7.6-21.2,18.5-20.2" class="st5"/><path id="path3882" d="M717.3,418.3c-12.6-1.7-20.7,4-25.3,15.2" class="st5"/><path id="path3884" d="M722.4,431.8c-10.6,2.5-11.6,8.1-13.5,13.5" class="st5"/><path id="path3886" d="M737.6,431.8c-9.6,5.1-9.9,15.7-11.8,25.3" class="st5"/><path id="path3888" d="M715.7,666c4.4-5.4,9.3-10.1,20.2-8.4" class="st5"/><path id="path3890" d="M670.2,660.9c7.9,0.2,14.8,2.5,20.2,8.4" class="st5"/><path id="path3892" d="M656.7,622.2c13.5,5.1,10.1,18.5,10.1,27" class="st5"/><path id="path3894" d="M661.7,607c7.2-6.4,6.1-15.3,6.7-23.6" class="st5"/><path id="path3896" d="M661.7,610.4c11.3-3.2,25.8-1.2,38.8-1.7" class="st6"/><path id="path3898" d="M668.5,649.1c9.4-9.6,20.1-17.5,32-23.6" class="st6"/><path id="path3900" d="M705.5,655.9c3.5-13.1,10.1-24.1,18.5-33.7" class="st6"/><path id="path3902" d="M749.4,627.2c-5.9-7.8-9.4-17-11.8-27" class="st5"/><path id="path3904" d="M751,605.3c-5.1-3.5-5.7-15-3.4-27" class="st5"/><path id="path3906" d="M769.6,581.7c-1.9-4.2-1.2-19-1.7-28.6" class="st5"/><path id="path3908" d="M794.9,551.4c-1-3.2-3.4-12.3-5.1-18.5" class="st5"/><path id="path3910" d="M813.4,541.3c2.4-9.6-0.7-19,1.7-27" class="st5"/><path id="path3912" d="M835.3,529.5c-1.2-18.2-1-36.9-6.7-53.9" class="st5"/><path id="path3914" d="M904.4,602c1,9.1-3.7,14.8-11.8,18.5" class="st5"/><path id="path3916" d="M890.9,623.9c7.1,5.2,6.7,12.8,6.7,20.2" class="st5"/><path id="path3918" d="M897.6,649.1c6.9,5.9,11.5,12.1,15.2,18.5" class="st5"/><path id="path3920" d="M924.6,672.7c3.5-3.7,6.6-7.8,11.8-10.1" class="st5"/><path id="path3922" d="M917.9,667.7c-3.2-16.7,4.2-17.9,8.4-23.6" class="st6"/><path id="path3924" d="M897.6,647.4c9.8-6.2,18.4-13.6,32-15.2" class="st6"/><path id="path3926" d="M892.6,622.2h37.1" class="st6"/><path id="path3928" d="M1017.3,640.7c0.8,5.6,1,11.3,0,16.9" class="st5"/><path id="path3930" d="M1019,664.3c6.7-0.3,9.4,5.4,8.4,16.9" class="st4"/><path id="path3932" d="M1049.3,689.6c-8.3-9.4-14.3-9.1-20.2-8.4" class="st5"/><path id="path3934" d="M1057.7,686.2c5.7-2.4,11.5-4.2,16.9-1.7" class="st5"/><path id="path3936" d="M1081.3,674.4c-5.2-5.6-8.3-12.3-6.7-21.9" class="st5"/><path id="path3938" d="M1051,686.2c-0.5-6.4,2.4-11.8,6.7-16.9" class="st6"/><path id="path3940" d="M1027.4,681.1c8.6-8.8,17.5-17.9,25.3-23.6" class="st6"/><path id="path3942" d="M1019,659.2c5.2-5.2,14.2-6.1,21.9-8.4" class="st6"/><path id="path3944" d="M1079.6,564.9h-16.9c-15.3,0.7-23.4-26.8-25.3-38.8c-7.9,4.7-6.4,12.3-10.1,15.2 c-2.7-2.4-1.9-13.3-5.1-13.5c-4.9,1.2-2.9,15.3-5.1,16.9c-5.7-4.2-1.2-34.2-1.7-38.8c-4.2-5.1-4.2,3.7-6.7,1.7 c-0.7-3.5,0-10.1,0-15.2c-1.3-5.1-6.7-11-10.1-16.9c-2.4-3.9-2.5-19.9-1.7-30.3c0.7-14.5,26.8-34,27-33.7" class="st7"/><path id="path3946" d="M995.4,453.7c-3-0.2-32,16.9-33.7,27c0,3.4,0,6.7,1.7,10.1c1.7,1.7,10.8,5.6,15.2,5.1 c8.9-1.5,11.8-18.5,18.5-20.2" class="st5"/><path id="path3948" d="M810,138.6c-2.9,6.9-5.7,13.8-6.7,20.2c0.2,2.5-0.8,5.1,5.1,8.4" class="st5"/><path id="path3950" d="M837,138.6c-4.2,5.1-8.6,10.1-10.1,15.2c-0.2,3.4-2.7,8.8,1.7,8.4" class="st5"/><path id="path3952" d="M789.8,200.9L805,211" class="st5"/><path id="path3954" d="M818.4,212.7l15.2-11.8" class="st5"/><path id="path3956" d="M858.9,211c6.2,4.9,9.8,11.3,11.8,18.5c-4.2-3.7-8.6-5.1-11.8-5.1c-7.9,3.5-8.1,8.6-8.4,13.5 c4.4-0.3,8.8-1,11.8,1.7c5.7,4,7.4,9.8,10.1,15.2" class="st7"/><path id="path3958" d="M852.1,254.8c5.7,2.2,7.9,6.7,10.1,10.1c-3.9,7.2-10.3,0.8-11.8,8.4 c9.8,12.8,15.5,27.3,25.3,38.8" class="st7"/><path id="path3960" d="M843.7,303.7c9.3-10.8,15.2-5.7,21.9-5.1" class="st5"/><path id="path3962" d="M874,330.7c-6.4,1.2-12.5-5.6-18.5-11.8c0.3,12.3-2.4,25.8,10.1,33.7 c10.6,0.2,18.2-6.2,25.3-11.8" class="st7"/><path id="path3964" d="M848.8,352.6V366c9.8,4,17.9,8.4,23.6,13.5c5.4,8.4,4.9,16.9,5.1,25.3 c1.2,24.1-14,20.4-25.3,23.6c2-4.5,6.2-11.5,5.1-18.5c-3.7-15.8-10.4-17.9-16.9-16.9" class="st7"/><path id="path3966" d="M870.7,377.8c8.3-6.4,16.5-12.8,20.2-23.6" class="st5"/><path id="path3968" d="M840.3,329c0.8,14.3-5.6,25.8-6.7,40.4c4.4,19.9,8.8,30.3,8.4,48.9 c0.7,20.9-8.6,17.9-15.2,16.9c0.3-7.6,1-15.2-3.4-23.6c-7.2,1.2-11.6-12.6-11.8-16.9c-0.8-7.4,12.1-15.8,11.8-30.3" class="st7"/><path id="path3970" d="M803.3,391.3c-3.5,4.5-2.4,8.9,0,13.5c7.9,7.8,3.5,20.1,5.1,30.3c6.6-1,9.3-7.2,11.8-13.5 v-10.1" class="st7"/><path id="path3972" d="M796.5,386.3c-10.4,10.1-19.9,20.9-28.6,32c-3.7,34.4,8.1,46.3,25.3,50.6 c6.1-2.4,12.5-2.5,16.9-13.5c-6.7,0.7-13.1-0.2-18.5-5.1c-3.5-6.1-2.7-14-1.7-21.9c1.7,4,2.5,9.4,6.7,10.1c2.9-1,6.4-1,6.7-5.1 c-2.9-4.7-2.4-10.8-3.4-16.9c0.5-4.9,0.7-9.9,3.4-13.5" class="st7"/><path id="path3974" d="M788.1,339.1c-0.2,13.6-1.3,26.5-3.4,38.8c-2.9,15.3-11.8,20.4-21.9,23.6 c-3.9,2-5.6,5.7-6.7,10.1c0,9.3-2.5,20.1,1.7,27c0-6.4,1.2-11.5,3.4-15.2c2.7-3.5,5.4-6.4,8.4-6.7" class="st7"/><path id="path3976" d="M730.8,376.2c6.9,6.9,13.1,14.8,25.3,15.2c12.6-4.9,14.7-7.6,20.2-11.8 c-5.1,7.9-12.8,9.4-21.9,13.5c-15,0.5-26.1,4.4-25.3,18.5c-0.3,10.4,3.9,17.4,11.8,21.9c0.2-8.4,0.7-14.7,1.7-16.9 c1.3-6.4,4.9-6.6,8.4-6.7c2.2,0,5.1-0.5,5.1,1.7" class="st7"/><path id="path3978" d="M767.9,352.6c3.5-8.8-1.3-21.6,15.2-21.9" class="st7"/><path id="path3980" d="M772.9,206c-8.1,3.5-12.8,10.6-16.9,18.5c5.1,1.5,10.1,4,15.2,10.1v18.5 c-3.7,3.7-8.9,7.2-8.4,11.8c4.2,3,9.8,5.4,10.1,10.1c-6.6,9.4-12.6,11.8-13.5,18.5c0.5,3,0.3,7.1,3.4,6.7c2.7-2.7,4-7.1,10.1-5.1 c3.5,2.9,6.4,5.6,6.7,8.4c-7.2,6.6-14.3,13.1-20.2,20.2c-1.2,6.2-1.5,12.3-1.7,18.5c-1.2,5.6-3.9,10.4-6.7,15.2" class="st7"/><path id="path3982" d="M771.3,244.7c-7.6,0.7-15,1.3-18.5,5.1" class="st7"/><path id="path3984" d="M772.9,216.1l5.1-5.1l27,21.9" class="st7"/><path id="path3986" d="M852.1,212.7l-3.4-3.4l-27,20.2" class="st7"/><path id="path3988" d="M808.3,224.5c-2.2,1.2-3,3.7-3.4,6.7v20.2c-2.9,1.3-4.9,3.2-5.1,6.7c0.2,3.7,1.7,5.1,5.1,6.7 c-6.1,0.3-9.4,2.7-10.1,6.7" class="st7"/><path id="path3990" d="M816.8,224.5c1.9,1.5,3.7,3,3.4,6.7v18.5c3,2.4,5.6,4,5.1,6.7c-1.2,7.1-4.4,6.4-6.7,8.4 c3.4,0.7,9.6,0.2,10.1,3.4" class="st7"/><path id="path3992" d="M786.4,219.5c-0.2,5.9,0.2,11.1,1.7,15.2c4.2,10.4,9.6,11.1,15.2,11.8" class="st7"/><path id="path3994" d="M838.7,217.8c1,6.6-0.3,12.8-3.4,18.5c-2.9,5.6-8.6,6.2-13.5,8.4" class="st7"/><path id="path3996" d="M805,273.4c4.2,7.4,8.3,15,15.2,20.2c10.8,0,15.2-6.7,20.2-15.2c0.3-5.6,0.7-11-3.4-15.2" class="st7"/><path id="path3998" d="M821.8,273.4L805,291.9c-11.1,3.2-13.5-1.7-16.9-6.7c-1.3-4.7-2.5-13,0-20.2" class="st7"/><path id="path4000" d="M837,283.5c-5.1,58.5-13.8,56.3-21.9,64c-11.3,4-14.8-3.5-20.2-8.4" class="st7"/><path id="path4002" d="M805,291.9v47.2c-5.7,0-6.1-12.6-8.4-20.2c-0.8-8.4-0.5-16.9,0-25.3" class="st7"/><path id="path4004" d="M820.1,293.6V334c4.2-2,5.9-8.6,8.4-13.5c2.4-7.8,2-18.2,1.7-28.6" class="st7"/><path id="path4006" d="M793.2,290.2c-4.5,44.3,5.1,38.8,10.1,48.9" class="st7"/></g><g id="g4008" transform="translate(660 715)"><path id="path4010" d="M694.8,732.6c-6.7,3.4-3.7,20.4-6.7,25.3c-3,4.9-5.4,3.5-8.4,8.4s-0.5,25.3-8.4,25.3 s-3.9-19-5.1-25.3s-25.1-32.7-35.4-33.7c-7.1,0.7-8.4,4.9-10.1,8.4c0,5.4,11.8,6.7,15.2,16.9c-1.7,15.2-1.7,30.3-1.7,43.8 c-17.7-14.7-61-16.5-57.3,6.7c1.7,10.1,14-3.4,20.2,0c6.2,3.4,5.4,21.6,13.5,25.3c6.7,5.2,26.3-2.9,27,6.7 c0.3,4.9-15.2,6.7-18.5,10.1c-6.1,5.7-10.1,14.5-15.2,15.2c-5.1,0-12.5-3.2-13.5,0c0,3.4,16,21.1,27,21.9 c15.2,1.7,20.7-19.9,30.3-13.5c9.6,6.4-14.8,20.9-10.1,27s9.8-2,15.2,3.4c2.7,6.9-2.4,27.6,6.7,30.3c9.6,4,10.1-18.5,13.5-16.9 c1,4-1.9,15.2,5.1,16.9c4.5,0.7,5.1-6.9,11.8-5.1c0.2,5.6,0.2,31.5,8.4,32c8.4,1,6.9-20.2,10.1-20.2c3.9,4.5,1.5,28.3,8.4,28.6 c7.8,1.2,4.2-14.2,8.4-16.9c3.9,5.1,5.9,20.4,16.9,18.5c13.5-0.3,1.3-23.8,10.1-25.3c13.5,0,16.9,6.7,15.2,13.5 c-4.4,22.9-35.9,107.8-62.3,118c-6.7,1.7-40.3-4.2-50.6,0c-10.3,4.4-12.6,15.5-13.5,20.2c5.4,1.2,17.2-2.9,18.5,6.7 c-6.7,11.8-24.4,41.8-13.5,55.6c11.1,8.1,10.6-18.4,21.9-13.5c0.2,9.4-4.5,45.3,13.5,47.2c4.5-3.5,8.3-42,23.6-40.4 c11.1,0.5,10.1,27.8,20.2,27c7.1,0.2,10.1-11.8,11.8-18.5c2.5-8.4,2.2-21.6-1.7-28.6c7.6,2.4,8.9,8.4,13.5,5.1 c3.2-5.4,0.3-13.5,3.4-16.9c4-1.2,9.1,3.4,13.5-1.7c3.4-6.2-15.7-10.6-13.5-20.2c6.1-3.5,21.4,10.3,25.3,5.1 c1.7-4.9-12.6-22.9-6.7-28.6c5.7-5.7,13.3,11.1,20.2,6.7c3.2-6.9-1.9-26.6,3.4-35.4c6.7,6.2,9.8,13,15.2,11.8 c4.9-5.6-1.3-20.4,5.1-21.9c6.2-1,4,15.7,13.5,8.4c6.7-5.1,3.2-12.1,5.1-18.5c1.9-8.8,34,6.4,53.9,1.7c23.6-2,64.7-40.1,70.8-40.4 c1.5,16.9-20.6,30.5-21.9,38.8c-1.7,3.4-1.7,5.1,0,6.7c3.5,2.2,10.6-4.4,13.5-5.1c3.4,3.2-13.6,11-11.8,18.5 c7.1,7.1,14-9.3,16.9-6.7c-0.7,6.4-6.6,6.6-5.1,13.5c6.1,0,6.2-6.2,15.2-3.4c5.4,5.9,13,15.3,18.5,16.9 c-13.8,3.7-23.6,20.7-30.3,27c-10.6,7.9-26.8,7.4-37.1,5.1c-8.6-3.2-17.2-7.2-25.3-6.7c-6.7,0.5-15.2,4.4-15.2,10.1 c0.8,5.2,15,2,15.2,10.1c0.8,6.4-22.1,14-16.9,23.6c4.4,5.4,19.2-3,21.9,5.1c-1,6.7-16.7,22.4-6.7,33.7c6.1,5.1,16-12.1,23.6-11.8 c13.1,1,15.8,16.2,25.3,13.5c7.4-1.7-2.2-23.9,3.4-25.3c5.6-1.3,4.9,5.6,10.1,3.4c5.4-2-4.5-12.5,0-16.9 c3.9-0.2,2.5,21.1,11.8,16.9c6.1-8.1,0.2-16.5-1.7-23.6c5.6,5.6,12.1,20.4,20.2,15.2c4.2-5.2-6.2-11.8-5.1-18.5 c4.2,1.9,14,10.8,18.5,5.1c1.7-3.5-3.4-6.2-1.7-13.5c2.7-10.6,11.6,1,15.2,0c4-1.7,2.9-5.4,8.4-6.7c5.6-1.7,13.8,8.6,20.2,5.1 c2.4-5.7-2.2-6.9-1.7-21.9c4.7-17.2,55.3-40.9,65.7-43.8c-16.5,11.1-33.7,23.6-38.8,35.4c-6.7,15.2-2.9,33.7-11.8,40.4 c-5.1,5.1-8.4,6.7-15.2,3.4c-16.2-3.9-45.2,9.1-42.1,21.9c8.9,0,19.7-1.2,25.3,1.7c-3,4.2-18.7,31-10.1,35.4 c8.4,3.9,9.6-14.8,18.5-13.5c1.5,6.4-1.5,28.6,8.4,32c10.4,1.2,9.3-28,20.2-27c9.6,0.7,0.5,22.9,10.1,23.6 c9.9,0.8,8.6-32.7,15.2-35.4c5.9-3.7,5.1,0,8.4-1.7c1.3-8.4-0.8-23.4-1.7-28.6c6.7-4.2,6.7,9.3,13.5,5.1 c7.6-4.2-0.2-25.8,1.7-28.6c4.9,1.3,10.1,10.1,16.9,8.4c6.7,0,10.8-0.5,11.8-6.7c0.7-3.2-9.9-5.4-11.8-15.2c0-5.1-1.7-8.4,0-11.8 c4.4,0.3,19.4,11.5,28.6,10.1c8.8-1.9,12.1-11.1,10.1-20.2c-10.4,3.2-21.9-9.6-20.2-21.9c7.1-5.6,14.3,13.1,18.5,10.1 c3.7-5.9,4.5-14-1.7-25.3c-8.9-12.5-36.9-29.3-52.2-43.8c12.3-25.4,35.2-75.7,10.1-104.5c15.2-18.2,30.3-30.3,32-52.2 c-1.9-14.5-26.3-31-32-47.2c-4.4-15.8,15.2-28.6,5.1-32c-21.9-7.6-23.1,7.1-28.6,16.9c-19.4,0-63.5,0.5-84.3,0 c-27.5,1-53.1-7.8-57.3-18.5c-4.4-9.4,10.1-25.9,1.7-30.3c-6.1-4.4-17.7,5.4-18.5,10.1c-0.5-4,3.5-22.4,11.8-25.3 c4.2,0.5,14.3,14.5,27,15.2c16.2,1.2,36.7-16,42.1-33.7c11.3-35.7-23.9-48.7-45.5-47.2c-2.4,10.4,15.5,21.4,13.5,30.3 c-1.5,8.9-3.7,14.8-13.5,16.9c-4-6.2,4.7-37.2-20.2-43.8c-12,0.5-4.9,6.6-8.4,18.5c-9.4,13.5-38.9,35.6-38.8,50.6 c-5.6,33.5,40.4,84.3,67.4,96c36.1-6.9,107.8-23.6,133.1-8.4c-15.8,12.6-15.8,19.5-8.4,32c6.2,9.1,9.1-10.6,16.9-6.7 c3.4,6.7,7.1,21.6-1.7,27c-15.2,3.9-22.9-12-62.3-11.8c-27.3-1.2-50.4,6.7-80.9,23.6c-6.4-5.2-17.7-13.5-69.1-23.6 c-3-11.8,0.7-13.5-3.4-18.5c-9.8-9.6-8.8,5.6-11.8-1.7c-2.9-3.5-3.7-17-3.4-23.6c3.5-2.2,5.1,1.7,13.5-1.7 c16.7-4,33-47.9,18.5-62.3c5.7,8.4-11.8,54.3-30.3,40.4c1.7,4.7,22.1-10.8,13.5-27c-5.2-4.5-8.1,5.2-13.5,3.4s-6.6,1.3-5.1-8.4 c4.7-7.1,25.9-19.2,27-30.3c-3.7-8.9-5.6-3.4-11.8-6.7c0.3-5.6-12.5-20.1-21.9-28.6c6.6-6.1,10.4-16,11.1-27 c0.8-9.9-1-18.9-4.4-23.6c-10.3-0.8-13.8,18-21.9,16.9c-2.9-4,4-28.3-5.1-32c-7.9-3.4-6.7,3.4-8.4,10.1c2.2-4-4.2-39.6-28.6-32 c-6.6,5.6,11.5,19.7,3.4,32c-7.6,4.4-8.3-17.5-18.5-13.5c-13.8,0.8-7.1,42.3-16.9,45.5c-11.8,2-9.1-19.2-20.2-18.5 c-13,8.6,2.5,37.1,5.1,42.1c-4.7,5.9-17.9,8.9-18.5,33.7c-5.1,11.8-15.5,19.4-15.2,23.6c1.9,8.9,7.4,13.3,11.8,15.2 c4.5,1.9,5.7-4.4,8.4-1.7c1.3,5.2,2.2,10.3-3.4,13.5c-3.4,2.9-11.5-6.4-15.2,0c-3.2,9.9,23.4,20.4,20.2,27 c-5.9,5.6-13.3,5.4-18.5,3.4c-5.7-2.4-8.9-16.3-15.2-16.9c-12.8,32.5,16.2,59,32,57.3c-1.3,10.3-3.7,8.6,1.7,11.8 c4.5,2.9,16.9-5.1,16.9-5.1c7.1,4.9-5.7,20.7-33.7,18.5c-30.8,6.6-42.1-11.8-40.4-33.7c-2.9-17,17.7-52.9,20.2-67.4 C710.8,749.9,704.4,731.9,694.8,732.6z" class="st3"/><path id="path4012" d="M679.6,768c10.3,7.9,19.2,11.8,27,8.4" class="st4"/><path id="path4014" d="M635.8,771.3c17.4,2.5,21.7-3.5,25.3-10.1" class="st4"/><path id="path4016" d="M603.8,818.5c9.4-6.1,14.2-13.6,16.9-21.9" class="st4"/><path id="path4018" d="M613.9,858.9c5.7,3,10.4,8.3,10.1,25.3" class="st4"/><path id="path4020" d="M674.5,880.8c-15.8,3.9-20.4,13-20.2,21.9" class="st5"/><path id="path4022" d="M672.8,916.2c4-10.3,7.6-21.2,18.5-20.2" class="st5"/><path id="path4024" d="M716.7,912.9c-12.6-1.7-20.7,4-25.3,15.2" class="st5"/><path id="path4026" d="M721.7,926.3c-10.6,2.5-11.6,8.1-13.5,13.5" class="st5"/><path id="path4028" d="M736.9,926.3c-9.6,5.1-9.9,15.7-11.8,25.3" class="st5"/><path id="path4030" d="M715,1160.6c4.4-5.4,9.3-10.1,20.2-8.4" class="st5"/><path id="path4032" d="M669.5,1155.5c7.9,0.2,14.8,2.5,20.2,8.4" class="st5"/><path id="path4034" d="M656,1116.8c13.5,5.1,10.1,18.5,10.1,27" class="st5"/><path id="path4036" d="M661,1101.6c7.2-6.4,6.1-15.3,6.7-23.6" class="st5"/><path id="path4038" d="M661,1105c11.3-3.2,25.8-1.2,38.8-1.7" class="st6"/><path id="path4040" d="M667.8,1143.7c9.4-9.6,20.1-17.5,32-23.6" class="st6"/><path id="path4042" d="M704.9,1150.5c3.5-13.1,10.1-24.1,18.5-33.7" class="st6"/><path id="path4044" d="M748.7,1121.8c-5.9-7.8-9.4-17-11.8-27" class="st5"/><path id="path4046" d="M750.4,1099.9c-5.1-3.5-5.7-15-3.4-27" class="st5"/><path id="path4048" d="M768.9,1076.3c-1.9-4.2-1.2-19-1.7-28.6" class="st5"/><path id="path4050" d="M794.2,1046c-1-3.2-3.4-12.3-5.1-18.5" class="st5"/><path id="path4052" d="M812.7,1035.9c2.4-9.6-0.7-19,1.7-27" class="st5"/><path id="path4054" d="M834.6,1024.1c-1.2-18.2-1-36.9-6.7-53.9" class="st5"/><path id="path4056" d="M903.7,1096.5c1,9.1-3.7,14.8-11.8,18.5" class="st5"/><path id="path4058" d="M890.2,1118.4c7.1,5.2,6.7,12.8,6.7,20.2" class="st5"/><path id="path4060" d="M897,1143.7c6.9,5.9,11.5,12.1,15.2,18.5" class="st5"/><path id="path4062" d="M923.9,1167.3c3.5-3.7,6.6-7.8,11.8-10.1" class="st5"/><path id="path4064" d="M917.2,1162.2c-3.2-16.7,4.2-17.9,8.4-23.6" class="st6"/><path id="path4066" d="M897,1142c9.8-6.2,18.4-13.6,32-15.2" class="st6"/><path id="path4068" d="M891.9,1116.8H929" class="st6"/><path id="path4070" d="M1016.6,1135.3c0.8,5.6,1,11.3,0,16.9" class="st5"/><path id="path4072" d="M1018.3,1158.9c6.7-0.3,9.4,5.4,8.4,16.9" class="st4"/><path id="path4074" d="M1048.6,1184.2c-8.3-9.4-14.3-9.1-20.2-8.4" class="st5"/><path id="path4076" d="M1057,1180.8c5.7-2.4,11.5-4.2,16.9-1.7" class="st5"/><path id="path4078" d="M1080.6,1169c-5.2-5.6-8.3-12.3-6.7-21.9" class="st5"/><path id="path4080" d="M1050.3,1180.8c-0.5-6.4,2.4-11.8,6.7-16.9" class="st6"/><path id="path4082" d="M1026.7,1175.7c8.6-8.8,17.5-17.9,25.3-23.6" class="st6"/><path id="path4084" d="M1018.3,1153.8c5.2-5.2,14.2-6.1,21.9-8.4" class="st6"/><path id="path4086" d="M1078.9,1059.5h-16.9c-15.3,0.7-23.4-26.8-25.3-38.8c-7.9,4.7-6.4,12.3-10.1,15.2 c-2.7-2.4-1.9-13.3-5.1-13.5c-4.9,1.2-2.9,15.3-5.1,16.9c-5.7-4.2-1.2-34.2-1.7-38.8c-4.2-5.1-4.2,3.7-6.7,1.7 c-0.7-3.5,0-10.1,0-15.2c-1.3-5.1-6.7-11-10.1-16.9c-2.4-3.9-2.5-19.9-1.7-30.3c0.7-14.5,26.8-34,27-33.7" class="st7"/><path id="path4088" d="M994.7,948.2c-3-0.2-32,16.9-33.7,27c0,3.4,0,6.7,1.7,10.1c1.7,1.7,10.8,5.6,15.2,5.1 c8.9-1.5,11.8-18.5,18.5-20.2" class="st5"/><path id="path4090" d="M809.3,633.2c-2.9,6.9-5.7,13.8-6.7,20.2c0.2,2.5-0.8,5.1,5.1,8.4" class="st5"/><path id="path4092" d="M836.3,633.2c-4.2,5.1-8.6,10.1-10.1,15.2c-0.2,3.4-2.7,8.8,1.7,8.4" class="st5"/><path id="path4094" d="M789.1,695.5l15.2,10.1" class="st5"/><path id="path4096" d="M817.8,707.3l15.2-11.8" class="st5"/><path id="path4098" d="M858.2,705.6c6.2,4.9,9.8,11.3,11.8,18.5c-4.2-3.7-8.6-5.1-11.8-5.1c-7.9,3.5-8.1,8.6-8.4,13.5 c4.4-0.3,8.8-1,11.8,1.7c5.7,4,7.4,9.8,10.1,15.2" class="st7"/><path id="path4100" d="M851.5,749.4c5.7,2.2,7.9,6.7,10.1,10.1c-3.9,7.2-10.3,0.8-11.8,8.4 c9.8,12.8,15.5,27.3,25.3,38.8" class="st7"/><path id="path4102" d="M843,798.3c9.3-10.8,15.2-5.7,21.9-5.1" class="st5"/><path id="path4104" d="M873.4,825.2c-6.4,1.2-12.5-5.6-18.5-11.8c0.3,12.3-2.4,25.8,10.1,33.7 c10.6,0.2,18.2-6.2,25.3-11.8" class="st7"/><path id="path4106" d="M848.1,847.1v13.5c9.8,4,17.9,8.4,23.6,13.5c5.4,8.4,4.9,16.9,5.1,25.3 c1.2,24.1-14,20.4-25.3,23.6c2-4.5,6.2-11.5,5.1-18.5c-3.7-15.8-10.4-17.9-16.9-16.9" class="st7"/><path id="path4108" d="M870,872.4c8.3-6.4,16.5-12.8,20.2-23.6" class="st5"/><path id="path4110" d="M839.7,823.6c0.8,14.3-5.6,25.8-6.7,40.4c4.4,19.9,8.8,30.3,8.4,48.9 c0.7,20.9-8.6,17.9-15.2,16.9c0.3-7.6,1-15.2-3.4-23.6c-7.2,1.2-11.6-12.6-11.8-16.9c-0.8-7.4,12.1-15.8,11.8-30.3" class="st7"/><path id="path4112" d="M802.6,885.9c-3.5,4.5-2.4,8.9,0,13.5c7.9,7.8,3.5,20.1,5.1,30.3c6.6-1,9.3-7.2,11.8-13.5 v-10.1" class="st7"/><path id="path4114" d="M795.9,880.8c-10.4,10.1-19.9,20.9-28.6,32c-3.7,34.4,8.1,46.3,25.3,50.6 c6.1-2.4,12.5-2.5,16.9-13.5c-6.7,0.7-13.1-0.2-18.5-5.1c-3.5-6.1-2.7-14-1.7-21.9c1.7,4,2.5,9.4,6.7,10.1c2.9-1,6.4-1,6.7-5.1 c-2.9-4.7-2.4-10.8-3.4-16.9c0.5-4.9,0.7-9.9,3.4-13.5" class="st7"/><path id="path4116" d="M787.4,833.7c-0.2,13.6-1.3,26.5-3.4,38.8c-2.9,15.3-11.8,20.4-21.9,23.6 c-3.9,2-5.6,5.7-6.7,10.1c0,9.3-2.5,20.1,1.7,27c0-6.4,1.2-11.5,3.4-15.2c2.7-3.5,5.4-6.4,8.4-6.7" class="st7"/><path id="path4118" d="M730.1,870.7c6.9,6.9,13.1,14.8,25.3,15.2c12.6-4.9,14.7-7.6,20.2-11.8 c-5.1,7.9-12.8,9.4-21.9,13.5c-15,0.5-26.1,4.4-25.3,18.5c-0.3,10.4,3.9,17.4,11.8,21.9c0.2-8.4,0.7-14.7,1.7-16.9 c1.3-6.4,4.9-6.6,8.4-6.7c2.2,0,5.1-0.5,5.1,1.7" class="st7"/><path id="path4120" d="M767.2,847.1c3.5-8.8-1.3-21.6,15.2-21.9" class="st7"/><path id="path4122" d="M772.3,700.6c-8.1,3.5-12.8,10.6-16.9,18.5c5.1,1.5,10.1,4,15.2,10.1v18.5 c-3.7,3.7-8.9,7.2-8.4,11.8c4.2,3,9.8,5.4,10.1,10.1c-6.6,9.4-12.6,11.8-13.5,18.5c0.5,3,0.3,7.1,3.4,6.7c2.7-2.7,4-7.1,10.1-5.1 c3.5,2.9,6.4,5.6,6.7,8.4c-7.2,6.6-14.3,13.1-20.2,20.2c-1.2,6.2-1.5,12.3-1.7,18.5c-1.2,5.6-3.9,10.4-6.7,15.2" class="st7"/><path id="path4124" d="M770.6,739.3c-7.6,0.7-15,1.3-18.5,5.1" class="st7"/><path id="path4126" d="M772.3,710.7l5.1-5.1l27,21.9" class="st7"/><path id="path4128" d="M851.5,707.3l-3.4-3.4l-27,20.2" class="st7"/><path id="path4130" d="M807.6,719.1c-2.2,1.2-3,3.7-3.4,6.7V746c-2.9,1.3-4.9,3.2-5.1,6.7c0.2,3.7,1.7,5.1,5.1,6.7 c-6.1,0.3-9.4,2.7-10.1,6.7" class="st7"/><path id="path4132" d="M816.1,719.1c1.9,1.5,3.7,3,3.4,6.7v18.5c3,2.4,5.6,4,5.1,6.7c-1.2,7.1-4.4,6.4-6.7,8.4 c3.4,0.7,9.6,0.2,10.1,3.4" class="st7"/><path id="path4134" d="M785.7,714c-0.2,5.9,0.2,11.1,1.7,15.2c4.2,10.4,9.6,11.1,15.2,11.8" class="st7"/><path id="path4136" d="M838,712.3c1,6.6-0.3,12.8-3.4,18.5c-2.9,5.6-8.6,6.2-13.5,8.4" class="st7"/><path id="path4138" d="M804.3,768c4.2,7.4,8.3,15,15.2,20.2c10.8,0,15.2-6.7,20.2-15.2c0.3-5.6,0.7-11-3.4-15.2" class="st7"/><path id="path4140" d="M821.1,768l-16.9,18.5c-11.1,3.2-13.5-1.7-16.9-6.7c-1.3-4.7-2.5-13,0-20.2" class="st7"/><path id="path4142" d="M836.3,778.1c-5.1,58.5-13.8,56.3-21.9,64c-11.3,4-14.8-3.5-20.2-8.4" class="st7"/><path id="path4144" d="M804.3,786.5v47.2c-5.7,0-6.1-12.6-8.4-20.2c-0.8-8.4-0.5-16.9,0-25.3" class="st7"/><path id="path4146" d="M819.4,788.2v40.4c4.2-2,5.9-8.6,8.4-13.5c2.4-7.8,2-18.2,1.7-28.6" class="st7"/><path id="path4148" d="M792.5,784.8c-4.5,44.3,5.1,38.8,10.1,48.9" class="st7"/></g><g id="g4150" transform="translate(6 725)"><path id="path4152" d="M246.8,739.4c-6.7,3.4-3.7,20.4-6.7,25.3c-3,4.9-5.4,3.5-8.4,8.4c-3,4.9-0.5,25.3-8.4,25.3 s-3.9-19-5.1-25.3c-1.2-6.2-25.1-32.7-35.4-33.7c-7.1,0.7-8.4,4.9-10.1,8.4c0,5.4,11.8,6.7,15.2,16.9c-1.7,15.2-1.7,30.3-1.7,43.8 c-17.7-14.7-61-16.5-57.3,6.7c1.7,10.1,14-3.4,20.2,0c6.2,3.4,5.4,21.6,13.5,25.3c6.7,5.2,26.3-2.9,27,6.7 c0.3,4.9-15.2,6.7-18.5,10.1c-6.1,5.7-10.1,14.5-15.2,15.2c-5.1,0-12.5-3.2-13.5,0c0,3.4,16,21.1,27,21.9 c15.2,1.7,20.7-19.9,30.3-13.5c9.6,6.4-14.8,20.9-10.1,27c4.7,6.1,9.8-2,15.2,3.4c2.7,6.9-2.4,27.6,6.7,30.3 c9.6,4,10.1-18.5,13.5-16.9c1,4-1.9,15.2,5.1,16.9c4.5,0.7,5.1-6.9,11.8-5.1c0.2,5.6,0.2,31.5,8.4,32c8.4,1,6.9-20.2,10.1-20.2 c3.9,4.5,1.5,28.3,8.4,28.6c7.8,1.2,4.2-14.2,8.4-16.9c3.9,5.1,5.9,20.4,16.9,18.5c13.5-0.3,1.3-23.8,10.1-25.3 c13.5,0,16.9,6.7,15.2,13.5c-4.4,22.9-35.9,107.8-62.3,118c-6.7,1.7-40.3-4.2-50.6,0c-10.3,4.4-12.6,15.5-13.5,20.2 c5.4,1.2,17.2-2.9,18.5,6.7c-6.7,11.8-24.4,41.8-13.5,55.6c11.1,8.1,10.6-18.4,21.9-13.5c0.2,9.4-4.5,45.3,13.5,47.2 c4.5-3.5,8.3-42,23.6-40.4c11.1,0.5,10.1,27.8,20.2,27c7.1,0.2,10.1-11.8,11.8-18.5c2.5-8.4,2.2-21.6-1.7-28.6 c7.6,2.4,8.9,8.4,13.5,5.1c3.2-5.4,0.3-13.5,3.4-16.9c4-1.2,9.1,3.4,13.5-1.7c3.4-6.2-15.7-10.6-13.5-20.2 c6.1-3.5,21.4,10.3,25.3,5.1c1.7-4.9-12.6-22.9-6.7-28.6c5.7-5.7,13.3,11.1,20.2,6.7c3.2-6.9-1.9-26.6,3.4-35.4 c6.7,6.2,9.8,13,15.2,11.8c4.9-5.6-1.3-20.4,5.1-21.9c6.2-1,4,15.7,13.5,8.4c6.7-5.1,3.2-12.1,5.1-18.5c1.9-8.8,34,6.4,53.9,1.7 c23.6-2,64.7-40.1,70.8-40.4c1.5,16.9-20.6,30.5-21.9,38.8c-1.7,3.4-1.7,5.1,0,6.7c3.5,2.2,10.6-4.4,13.5-5.1 c3.4,3.2-13.6,11-11.8,18.5c7.1,7.1,14-9.3,16.9-6.7c-0.7,6.4-6.6,6.6-5.1,13.5c6.1,0,6.2-6.2,15.2-3.4c5.4,5.9,13,15.3,18.5,16.9 c-13.8,3.7-23.6,20.7-30.3,27c-10.6,7.9-26.8,7.4-37.1,5.1c-8.6-3.2-17.2-7.2-25.3-6.7c-6.7,0.5-15.2,4.4-15.2,10.1 c0.8,5.2,15,2,15.2,10.1c0.8,6.4-22.1,14-16.9,23.6c4.4,5.4,19.2-3,21.9,5.1c-1,6.7-16.7,22.4-6.7,33.7c6.1,5.1,16-12.1,23.6-11.8 c13.1,1,15.8,16.2,25.3,13.5c7.4-1.7-2.2-23.9,3.4-25.3c5.6-1.3,4.9,5.6,10.1,3.4c5.4-2-4.5-12.5,0-16.9 c3.9-0.2,2.5,21.1,11.8,16.9c6.1-8.1,0.2-16.5-1.7-23.6c5.6,5.6,12.1,20.4,20.2,15.2c4.2-5.2-6.2-11.8-5.1-18.5 c4.2,1.9,14,10.8,18.5,5.1c1.7-3.5-3.4-6.2-1.7-13.5c2.7-10.6,11.6,1,15.2,0c4-1.7,2.9-5.4,8.4-6.7c5.6-1.7,13.8,8.6,20.2,5.1 c2.4-5.7-2.2-6.9-1.7-21.9c4.7-17.2,55.3-40.9,65.7-43.8c-16.5,11.1-33.7,23.6-38.8,35.4c-6.7,15.2-2.9,33.7-11.8,40.4 c-5.1,5.1-8.4,6.7-15.2,3.4c-16.2-3.9-45.2,9.1-42.1,21.9c8.9,0,19.7-1.2,25.3,1.7c-3,4.2-18.7,31-10.1,35.4 c8.4,3.9,9.6-14.8,18.5-13.5c1.5,6.4-1.5,28.6,8.4,32c10.4,1.2,9.3-28,20.2-27c9.6,0.7,0.5,22.9,10.1,23.6 c9.9,0.8,8.6-32.7,15.2-35.4c5.9-3.7,5.1,0,8.4-1.7c1.3-8.4-0.8-23.4-1.7-28.6c6.7-4.2,6.7,9.3,13.5,5.1 c7.6-4.2-0.2-25.8,1.7-28.6c4.9,1.3,10.1,10.1,16.9,8.4c6.7,0,10.8-0.5,11.8-6.7c0.7-3.2-9.9-5.4-11.8-15.2c0-5.1-1.7-8.4,0-11.8 c4.4,0.3,19.4,11.5,28.6,10.1c8.8-1.9,12.1-11.1,10.1-20.2c-10.4,3.2-21.9-9.6-20.2-21.9c7.1-5.6,14.3,13.1,18.5,10.1 c3.7-5.9,4.5-14-1.7-25.3c-8.9-12.5-36.9-29.3-52.2-43.8c12.3-25.4,35.2-75.7,10.1-104.5c15.2-18.2,30.3-30.3,32-52.2 c-1.9-14.5-26.3-31-32-47.2c-4.4-15.8,15.2-28.6,5.1-32c-21.9-7.6-23.1,7.1-28.6,16.9c-19.4,0-63.5,0.5-84.3,0 c-27.5,1-53.1-7.8-57.3-18.5c-4.4-9.4,10.1-25.9,1.7-30.3c-6.1-4.4-17.7,5.4-18.5,10.1c-0.5-4,3.5-22.4,11.8-25.3 c4.2,0.5,14.3,14.5,27,15.2c16.2,1.2,36.7-16,42.1-33.7c11.3-35.7-23.9-48.7-45.5-47.2c-2.4,10.4,15.5,21.4,13.5,30.3 c-1.5,8.9-3.7,14.8-13.5,16.9c-4-6.2,4.7-37.2-20.2-43.8c-12,0.5-4.9,6.6-8.4,18.5c-9.4,13.5-38.9,35.6-38.8,50.6 c-5.6,33.5,40.4,84.3,67.4,96c36.1-6.9,107.8-23.6,133.1-8.4c-15.8,12.6-15.8,19.5-8.4,32c6.2,9.1,9.1-10.6,16.9-6.7 c3.4,6.7,7.1,21.6-1.7,27c-15.2,3.9-22.9-12-62.3-11.8c-27.3-1.2-50.4,6.7-80.9,23.6c-6.4-5.2-17.7-13.5-69.1-23.6 c-3-11.8,0.7-13.5-3.4-18.5c-9.8-9.6-8.8,5.6-11.8-1.7c-2.9-3.5-3.7-17-3.4-23.6c3.5-2.2,5.1,1.7,13.5-1.7 c16.7-4,33-47.9,18.5-62.3c5.7,8.4-11.8,54.3-30.3,40.4c1.7,4.7,22.1-10.8,13.5-27c-5.2-4.5-8.1,5.2-13.5,3.4s-6.6,1.3-5.1-8.4 c4.7-7.1,25.9-19.2,27-30.3c-3.7-8.9-5.6-3.4-11.8-6.7c0.3-5.6-12.5-20.1-21.9-28.6c6.6-6.1,10.4-16,11.1-27 c0.8-9.9-1-18.9-4.4-23.6c-10.3-0.8-13.8,18-21.9,16.9c-2.9-4,4-28.3-5.1-32c-7.9-3.4-6.7,3.4-8.4,10.1c2.2-4-4.2-39.6-28.6-32 c-6.6,5.6,11.5,19.7,3.4,32c-7.6,4.4-8.3-17.5-18.5-13.5c-13.8,0.8-7.1,42.3-16.9,45.5c-11.8,2-9.1-19.2-20.2-18.5 c-13,8.6,2.5,37.1,5.1,42.1c-4.7,5.9-17.9,8.9-18.5,33.7c-5.1,11.8-15.5,19.4-15.2,23.6c1.9,8.9,7.4,13.3,11.8,15.2 c4.5,1.9,5.7-4.4,8.4-1.7c1.3,5.2,2.2,10.3-3.4,13.5c-3.4,2.9-11.5-6.4-15.2,0c-3.2,9.9,23.4,20.4,20.2,27 c-5.9,5.6-13.3,5.4-18.5,3.4c-5.7-2.4-8.9-16.3-15.2-16.9c-12.8,32.5,16.2,59,32,57.3c-1.3,10.3-3.7,8.6,1.7,11.8 c4.5,2.9,16.9-5.1,16.9-5.1c7.1,4.9-5.7,20.7-33.7,18.5c-30.8,6.6-42.1-11.8-40.4-33.7c-2.9-17,17.7-52.9,20.2-67.4 C262.8,756.8,256.4,738.7,246.8,739.4z" class="st3"/><path id="path4154" d="M231.6,774.8c10.3,7.9,19.2,11.8,27,8.4" class="st4"/><path id="path4156" d="M187.8,778.2c17.4,2.5,21.7-3.5,25.3-10.1" class="st4"/><path id="path4158" d="M155.8,825.4c9.4-6.1,14.2-13.6,16.9-21.9" class="st4"/><path id="path4160" d="M165.9,865.8c5.7,3,10.4,8.3,10.1,25.3" class="st4"/><path id="path4162" d="M226.5,887.7c-15.8,3.9-20.4,13-20.2,21.9" class="st5"/><path id="path4164" d="M224.8,923.1c4-10.3,7.6-21.2,18.5-20.2" class="st5"/><path id="path4166" d="M268.7,919.7c-12.6-1.7-20.7,4-25.3,15.2" class="st5"/><path id="path4168" d="M273.7,933.2c-10.6,2.5-11.6,8.1-13.5,13.5" class="st5"/><path id="path4170" d="M288.9,933.2c-9.6,5.1-9.9,15.7-11.8,25.3" class="st5"/><path id="path4172" d="M267,1167.4c4.4-5.4,9.3-10.1,20.2-8.4" class="st5"/><path id="path4174" d="M221.5,1162.4c7.9,0.2,14.8,2.5,20.2,8.4" class="st5"/><path id="path4176" d="M208,1123.6c13.5,5.1,10.1,18.5,10.1,27" class="st5"/><path id="path4178" d="M213.1,1108.4c7.2-6.4,6.1-15.3,6.7-23.6" class="st5"/><path id="path4180" d="M213.1,1111.8c11.3-3.2,25.8-1.2,38.8-1.7" class="st6"/><path id="path4182" d="M219.8,1150.6c9.4-9.6,20.1-17.5,32-23.6" class="st6"/><path id="path4184" d="M256.9,1157.3c3.5-13.1,10.1-24.1,18.5-33.7" class="st6"/><path id="path4186" d="M300.7,1128.7c-5.9-7.8-9.4-17-11.8-27" class="st5"/><path id="path4188" d="M302.4,1106.8c-5.1-3.5-5.7-15-3.4-27" class="st5"/><path id="path4190" d="M320.9,1083.2c-1.9-4.2-1.2-19-1.7-28.6" class="st5"/><path id="path4192" d="M346.2,1052.8c-1-3.2-3.4-12.3-5.1-18.5" class="st5"/><path id="path4194" d="M364.7,1042.7c2.4-9.6-0.7-19,1.7-27" class="st5"/><path id="path4196" d="M386.6,1030.9c-1.2-18.2-1-36.9-6.7-53.9" class="st5"/><path id="path4198" d="M455.7,1103.4c1,9.1-3.7,14.8-11.8,18.5" class="st5"/><path id="path4200" d="M442.2,1125.3c7.1,5.2,6.7,12.8,6.7,20.2" class="st5"/><path id="path4202" d="M449,1150.6c6.9,5.9,11.5,12.1,15.2,18.5" class="st5"/><path id="path4204" d="M475.9,1174.2c3.5-3.7,6.6-7.8,11.8-10.1" class="st5"/><path id="path4206" d="M469.2,1169.1c-3.2-16.7,4.2-17.9,8.4-23.6" class="st6"/><path id="path4208" d="M449,1148.9c9.8-6.2,18.4-13.6,32-15.2" class="st6"/><path id="path4210" d="M443.9,1123.6H481" class="st6"/><path id="path4212" d="M568.6,1142.1c0.8,5.6,1,11.3,0,16.9" class="st5"/><path id="path4214" d="M570.3,1165.7c6.7-0.3,9.4,5.4,8.4,16.9" class="st4"/><path id="path4216" d="M600.6,1191c-8.3-9.4-14.3-9.1-20.2-8.4" class="st5"/><path id="path4218" d="M609,1187.6c5.7-2.4,11.5-4.2,16.9-1.7" class="st5"/><path id="path4220" d="M632.6,1175.8c-5.2-5.6-8.3-12.3-6.7-21.9" class="st5"/><path id="path4222" d="M602.3,1187.6c-0.5-6.4,2.4-11.8,6.7-16.9" class="st6"/><path id="path4224" d="M578.7,1182.6c8.6-8.8,17.5-17.9,25.3-23.6" class="st6"/><path id="path4226" d="M570.3,1160.7c5.2-5.2,14.2-6.1,21.9-8.4" class="st6"/><path id="path4228" d="M630.9,1066.3h-16.9c-15.3,0.7-23.4-26.8-25.3-38.8c-7.9,4.7-6.4,12.3-10.1,15.2 c-2.7-2.4-1.9-13.3-5.1-13.5c-4.9,1.2-2.9,15.3-5.1,16.9c-5.7-4.2-1.2-34.2-1.7-38.8c-4.2-5.1-4.2,3.7-6.7,1.7 c-0.7-3.5,0-10.1,0-15.2c-1.3-5.1-6.7-11-10.1-16.9c-2.4-3.9-2.5-19.9-1.7-30.3c0.7-14.5,26.8-34,27-33.7" class="st7"/><path id="path4230" d="M546.7,955.1c-3-0.2-32,16.9-33.7,27c0,3.4,0,6.7,1.7,10.1c1.7,1.7,10.8,5.6,15.2,5.1 c8.9-1.5,11.8-18.5,18.5-20.2" class="st5"/><path id="path4232" d="M361.3,640c-2.9,6.9-5.7,13.8-6.7,20.2c0.2,2.5-0.8,5.1,5.1,8.4" class="st5"/><path id="path4234" d="M388.3,640c-4.2,5.1-8.6,10.1-10.1,15.2c-0.2,3.4-2.7,8.8,1.7,8.4" class="st5"/><path id="path4236" d="M341.1,702.3l15.2,10.1" class="st5"/><path id="path4238" d="M369.8,714.1l15.2-11.8" class="st5"/><path id="path4240" d="M410.2,712.5c6.2,4.9,9.8,11.3,11.8,18.5c-4.2-3.7-8.6-5.1-11.8-5.1c-7.9,3.5-8.1,8.6-8.4,13.5 c4.4-0.3,8.8-1,11.8,1.7c5.7,4,7.4,9.8,10.1,15.2" class="st7"/><path id="path4242" d="M403.5,756.3c5.7,2.2,7.9,6.7,10.1,10.1c-3.9,7.2-10.3,0.8-11.8,8.4 c9.8,12.8,15.5,27.3,25.3,38.8" class="st7"/><path id="path4244" d="M395,805.1c9.3-10.8,15.2-5.7,21.9-5.1" class="st5"/><path id="path4246" d="M425.4,832.1c-6.4,1.2-12.5-5.6-18.5-11.8c0.3,12.3-2.4,25.8,10.1,33.7 c10.6,0.2,18.2-6.2,25.3-11.8" class="st7"/><path id="path4248" d="M400.1,854v13.5c9.8,4,17.9,8.4,23.6,13.5c5.4,8.4,4.9,16.9,5.1,25.3 c1.2,24.1-14,20.4-25.3,23.6c2-4.5,6.2-11.5,5.1-18.5c-3.7-15.8-10.4-17.9-16.9-16.9" class="st7"/><path id="path4250" d="M422,879.3c8.3-6.4,16.5-12.8,20.2-23.6" class="st5"/><path id="path4252" d="M391.7,830.4c0.8,14.3-5.6,25.8-6.7,40.4c4.4,19.9,8.8,30.3,8.4,48.9 c0.7,20.9-8.6,17.9-15.2,16.9c0.3-7.6,1-15.2-3.4-23.6c-7.2,1.2-11.6-12.6-11.8-16.9c-0.8-7.4,12.1-15.8,11.8-30.3" class="st7"/><path id="path4254" d="M354.6,892.8c-3.5,4.5-2.4,8.9,0,13.5c7.9,7.8,3.5,20.1,5.1,30.3c6.6-1,9.3-7.2,11.8-13.5V913" class="st7"/><path id="path4256" d="M347.9,887.7c-10.4,10.1-19.9,20.9-28.6,32c-3.7,34.4,8.1,46.3,25.3,50.6 c6.1-2.4,12.5-2.5,16.9-13.5c-6.7,0.7-13.1-0.2-18.5-5.1c-3.5-6.1-2.7-14-1.7-21.9c1.7,4,2.5,9.4,6.7,10.1c2.9-1,6.4-1,6.7-5.1 c-2.9-4.7-2.4-10.8-3.4-16.9c0.5-4.9,0.7-9.9,3.4-13.5" class="st7"/><path id="path4258" d="M339.4,840.5c-0.2,13.6-1.3,26.5-3.4,38.8c-2.9,15.3-11.8,20.4-21.9,23.6 c-3.9,2-5.6,5.7-6.7,10.1c0,9.3-2.5,20.1,1.7,27c0-6.4,1.2-11.5,3.4-15.2c2.7-3.5,5.4-6.4,8.4-6.7" class="st7"/><path id="path4260" d="M282.1,877.6c6.9,6.9,13.1,14.8,25.3,15.2c12.6-4.9,14.7-7.6,20.2-11.8 c-5.1,7.9-12.8,9.4-21.9,13.5c-15,0.5-26.1,4.4-25.3,18.5c-0.3,10.4,3.9,17.4,11.8,21.9c0.2-8.4,0.7-14.7,1.7-16.9 c1.3-6.4,4.9-6.6,8.4-6.7c2.2,0,5.1-0.5,5.1,1.7" class="st7"/><path id="path4262" d="M319.2,854c3.5-8.8-1.3-21.6,15.2-21.9" class="st7"/><path id="path4264" d="M324.3,707.4c-8.1,3.5-12.8,10.6-16.9,18.5c5.1,1.5,10.1,4,15.2,10.1v18.5 c-3.7,3.7-8.9,7.2-8.4,11.8c4.2,3,9.8,5.4,10.1,10.1c-6.6,9.4-12.6,11.8-13.5,18.5c0.5,3,0.3,7.1,3.4,6.7c2.7-2.7,4-7.1,10.1-5.1 c3.5,2.9,6.4,5.6,6.7,8.4c-7.2,6.6-14.3,13.1-20.2,20.2c-1.2,6.2-1.5,12.3-1.7,18.5c-1.2,5.6-3.9,10.4-6.7,15.2" class="st7"/><path id="path4266" d="M322.6,746.2c-7.6,0.7-15,1.3-18.5,5.1" class="st7"/><path id="path4268" d="M324.3,717.5l5.1-5.1l27,21.9" class="st7"/><path id="path4270" d="M403.5,714.1l-3.4-3.4l-27,20.2" class="st7"/><path id="path4272" d="M359.6,725.9c-2.2,1.2-3,3.7-3.4,6.7v20.2c-2.9,1.3-4.9,3.2-5.1,6.7c0.2,3.7,1.7,5.1,5.1,6.7 c-6.1,0.3-9.4,2.7-10.1,6.7" class="st7"/><path id="path4274" d="M368.1,725.9c1.9,1.5,3.7,3,3.4,6.7v18.5c3,2.4,5.6,4,5.1,6.7c-1.2,7.1-4.4,6.4-6.7,8.4 c3.4,0.7,9.6,0.2,10.1,3.4" class="st7"/><path id="path4276" d="M337.7,720.9c-0.2,5.9,0.2,11.1,1.7,15.2c4.2,10.4,9.6,11.1,15.2,11.8" class="st7"/><path id="path4278" d="M390,719.2c1,6.6-0.3,12.8-3.4,18.5c-2.9,5.6-8.6,6.2-13.5,8.4" class="st7"/><path id="path4280" d="M356.3,774.8c4.2,7.4,8.3,15,15.2,20.2c10.8,0,15.2-6.7,20.2-15.2c0.3-5.6,0.7-11-3.4-15.2" class="st7"/><path id="path4282" d="M373.1,774.8l-16.9,18.5c-11.1,3.2-13.5-1.7-16.9-6.7c-1.3-4.7-2.5-13,0-20.2" class="st7"/><path id="path4284" d="M388.3,784.9c-5.1,58.5-13.8,56.3-21.9,64c-11.3,4-14.8-3.5-20.2-8.4" class="st7"/><path id="path4286" d="M356.3,793.3v47.2c-5.7,0-6.1-12.6-8.4-20.2c-0.8-8.4-0.5-16.9,0-25.3" class="st7"/><path id="path4288" d="M371.4,795v40.4c4.2-2,5.9-8.6,8.4-13.5c2.4-7.8,2-18.2,1.7-28.6" class="st7"/><path id="path4290" d="M344.5,791.7c-4.5,44.3,5.1,38.8,10.1,48.9" class="st7"/></g></g><g id="layer8"><g id="g6096" transform="translate(-323 -3.5)"><path id="path5890_1_" d="M1103.2,1253.1V877.3h466.7v375.8H1103.2z" class="st8"/><path id="path5988_1_" d="M1090.4,867.2v83.2l15.3-6.6c24.8-10.6,51.1-27.1,58.6-63.4l2.7-13.1h-76.7L1090.4,867.2z M1112.3,889.1h26.3c-5.7,13-14.7,20.9-26.3,27.3V889.1z" class="st9"/><path id="path5944_1_" d="M1580.9,1180.3l-13.3,3c-16.9,3.9-34.5,9.1-50,19.2c-15.5,10.1-28.3,25.6-34,47.7l-3.5,13.6 h100.9V1180.3z M1559,1208.6v33.5h-48.9c4.7-9.3,11.3-15.8,19.4-21.2C1537.7,1215.5,1548.2,1211.8,1559,1208.6L1559,1208.6z" class="st9"/><path id="path5974_1_" d="M1503.2,866.4l3,13.3c7.1,32.5,33.7,55.8,61.7,63.7l14,3.9v-80.9H1503.2L1503.2,866.4z M1532.5,888.3h27.3v28.1C1548.7,910,1538.6,900.1,1532.5,888.3z" class="st9"/><path id="path5894_1_" d="M1177.3,1254.8v128.1h65.7v-128.1H1177.3z" class="st10"/><path id="path5900_1_" d="M1435.1,1258.1v128.1h65.7v-128.1H1435.1z" class="st10"/><path id="path5958_1_" d="M1091.9,1179.6v84.4H1192l-4.5-14.3c-12.5-39.1-44.7-62.2-82.9-68.1L1091.9,1179.6 L1091.9,1179.6z M1113.8,1206.1c20.6,5.7,36.6,17.5,46.7,36.1h-46.7V1206.1z" class="st9"/></g></g><g id="layer7"><path id="path5243" d="M761.6,1236.9V861.2h466.7v375.8H761.6z" class="st11"/><g id="g4297"><path id="path4293" d="M835.8,1238.6v128.1h65.7v-128.1H835.8z" class="st12"/><path id="path4295" d="M834.1,1321.2h67.4" class="st13"/></g><g id="g4301" transform="translate(153 2)"><path id="path4303" d="M940.6,1240v128.1h65.7V1240H940.6z" class="st12"/><path id="path4305" d="M938.9,1322.6h67.4" class="st13"/></g><path id="path5341" d="M761.6,903.3h468.4" class="st14"/><ellipse id="path5392" cx="994.2" cy="1085.3" class="st15" rx="59" ry="30.3"/><path id="path5245" d="M1053.1,1085.3c0,16.7-26.5,30.3-59,30.3c-32.5,0-59-13.6-59-30.3s26.5-30.3,59-30.3 C1026.7,1055,1053.1,1068.6,1053.1,1085.3z" class="st16"/><path id="path5295" d="M886.7,824.5c-19,0.2-34.4,11.5-34,24.9v73.8c-0.2,8.9,6.4,17.2,17.2,21.6c10.8,4.5,24.1,4.5,34.9,0 c10.8-4.5,17.4-12.8,17.2-21.6v-73.8c0.2-6.6-3.5-13-10.1-17.7C905,827,895.9,824.3,886.7,824.5z"/><path id="path5293" d="M886.3,854.4V910" class="st17"/><path id="path5331" d="M1001.2,822.9c-19,0.2-34.4,11.3-34,24.9v74c-0.2,8.9,6.4,17.2,17.2,21.6c10.8,4.5,24.1,4.5,34.9,0 s17.4-12.8,17.2-21.6V848c0.2-6.6-3.5-13-10.1-17.7C1019.6,825.5,1010.5,822.9,1001.2,822.9L1001.2,822.9z"/><path id="path5333" d="M1000.9,853.1v55.6" class="st17"/><path id="path5337" d="M1107.1,825.8c-19,0.2-34.4,11.3-34,24.9v73.8c-0.2,8.9,6.4,17.2,17.2,21.6c10.8,4.5,24.1,4.5,34.9,0 c10.8-4.5,17.4-12.8,17.2-21.6v-73.8c0.2-6.6-3.5-13-10.1-17.7C1125.4,828.3,1116.3,825.6,1107.1,825.8z"/><path id="path5339" d="M1106.7,855.8v55.6" class="st17"/><path id="path5368" d="M832.4,1038.1v91c33.2,6.6,56.4,23.8,67.4,53.9h188.7c11-31.5,33.7-51.9,70.8-59v-84.3 c-32.2-6.4-57.5-23.8-70.8-55.6h-187C887.2,1016.4,862.7,1032.2,832.4,1038.1z" class="st18"/><path id="path5343" d="M832.4,1038.1v91c33.2,6.6,56.4,23.8,67.4,53.9h188.7c11-31.5,33.7-51.9,70.8-59v-84.3 c-32.2-6.4-57.5-23.8-70.8-55.6h-187C887.2,1016.4,862.7,1032.2,832.4,1038.1z" class="st19"/><g id="g5678"><g id="g5646"><path id="path5424" d="M1240.2,1164.1l-13.3,3c-16.9,3.9-34.5,9.1-50,19.2c-15.5,10.1-28.3,25.6-34,47.7l-3.5,13.6 h100.9V1164.1z M1218.3,1192.5v33.5h-48.9c4.7-9.3,11.3-15.8,19.4-21.2C1197,1199.4,1207.5,1195.7,1218.3,1192.5L1218.3,1192.5z" class="st20"/><path id="path5440" d="M1161,1230.2c13-24.6,33.7-38.6,60.7-43.8" class="st21"/><path id="path5426" d="M1144.1,1243.7c7.1-30.7,35.2-64.4,91-74.1" class="st22"/><path id="path5454" d="M1223.3,1186.4v45.5h-60.7" class="st23"/><path id="path5406" d="M1239.3,1164.1l-13.3,3c-16.9,3.9-34.5,9.1-50,19.2c-15.5,10.1-28.3,25.6-34,47.7l-3.5,13.6 h100.9V1164.1z M1217.4,1192.5v33.5h-48.9c4.7-9.3,11.3-15.8,19.4-21.2C1196.2,1199.4,1206.6,1195.7,1217.4,1192.5L1217.4,1192.5 z" class="st24"/><path id="path5446" d="M1145.8,1242h87.6v-69.1" class="st21"/></g><g id="g5670"><path id="path5460" d="M750.7,1163.5v84.4h100.1l-4.5-14.3c-12.5-39.1-44.7-62.2-82.9-68.1L750.7,1163.5 L750.7,1163.5z M772.6,1189.9c20.6,5.7,36.6,17.5,46.7,36.1h-46.7V1189.9z" class="st20"/><path id="path5552" d="M766.7,1230.2V1183c8.9,1.5,16.3,4.9,23.6,8.4" class="st21"/><path id="path5558" d="M768.4,1231.9H829l-10.1-16.9" class="st23"/><path id="path5564" d="M756.6,1240.3v-69.1c18.9,0.8,32.4,7.8,45.5,15.2" class="st23"/><path id="path5468" d="M750.3,1163.5v84.4h100.1l-4.5-14.3c-12.5-39.1-44.7-62.2-82.9-68.1L750.3,1163.5 L750.3,1163.5z M772.2,1189.9c20.6,5.7,36.6,17.5,46.7,36.1h-46.7V1189.9z" class="st24"/><path id="path5570" d="M756.6,1242h85.9c-3-16-13-31-25.3-45.5" class="st21"/></g><g id="g5654"><path id="path5576" d="M1160.8,850.2l3,13.3c7.1,32.5,33.7,55.8,61.7,63.7l14,3.9v-80.9H1160.8L1160.8,850.2z M1190.1,872.1h27.3v28.1C1206.3,893.9,1196.2,883.9,1190.1,872.1z" class="st20"/><path id="path5584" d="M1233.4,856.1h-64l3.4,16.9" class="st23"/><path id="path5590" d="M1223.3,867.9V910l-5.1-3.4" class="st23"/><path id="path5596" d="M1223.3,866.2h-42.1c7.1,11.6,14,23.6,23.6,30.3" class="st21"/><path id="path5602" d="M1235.1,857.8v67.4c-9.9-2.4-19.2-7.4-28.6-11.8" class="st21"/><path id="path5582" d="M1161.6,850.2l3,13.3c7.1,32.5,33.7,55.8,61.7,63.7l14,3.9v-80.9H1161.6L1161.6,850.2z M1191,872.1h27.3v28.1C1207.1,893.9,1197,883.9,1191,872.1L1191,872.1z" class="st24"/></g><g id="g5662"><path id="path5612" d="M749,851.1v83.2l15.3-6.6c24.8-10.6,51.1-27.1,58.6-63.4l2.7-13.1H749V851.1z M770.9,873 h26.3c-5.7,13-14.7,20.9-26.3,27.3V873z" class="st20"/><path id="path5622" d="M765,908.4v-40.4h38.8" class="st23"/><path id="path5628" d="M818.9,856.1c-3.2,37.6-31.7,56.3-65.7,70.8" class="st23"/><path id="path5634" d="M753.2,925.2v-69.1h65.7" class="st21"/><path id="path5640" d="M805.4,867.9c-7.2,20.6-22.2,31.3-38.8,40.4" class="st21"/><path id="path5620" d="M748.8,851.1v83.2l15.3-6.6c24.8-10.6,51.1-27.1,58.6-63.4l2.7-13.1h-76.7V851.1z M770.7,873 H797c-5.7,13-14.7,20.9-26.3,27.3V873z" class="st24"/></g></g></g></svg>