<svg xmlns="http://www.w3.org/2000/svg" xmlns:xlink="http://www.w3.org/1999/xlink" id="Layer_1" width="128" height="105.9" x="0" style="enable-background:new 0 0 128 105.9" y="0" version="1.1" viewBox="0 0 128 105.9" xml:space="preserve"><style type="text/css">.st0,.st1{fill-rule:evenodd;clip-rule:evenodd;fill:#fff}.st1{fill:#f16623}</style><g><path d="M98,42.5L51.1,69.6c0,0-2.1-17,9.3-25.6C69.8,36.9,92,25,92,25" class="st0"/><path d="M14.4,70.7c1.1,3.9,2.7,7.6,4.8,11.3c0.9,1.6,1.9,3.1,2.9,4.5L3.5,97.3c0,0-2-17,9.4-25.5 C13.3,71.5,13.8,71.1,14.4,70.7z" class="st1"/><path d="M123.5,40.4c3.5,21-8.1,46.7-27.6,58c-25.1,14.5-57.2,5.9-71.7-19.2C9.7,54,18.3,21.9,43.4,7.4 s57.2-5.9,71.7,19.2c0.2,0.4,2.2,3.9,2.3,4.7L97.1,43c-0.4-0.8-1.7-4-2.1-4.7C86.9,24.3,68.4,18,54.4,26c-14,8.1-20,28-11.9,42 s28.8,20.6,42.7,12.6c4.5-2.6,12.9-8.9,16.6-18.4C106.9,49.1,111.8,45.1,123.5,40.4z" class="st0"/></g></svg>