<svg xmlns="http://www.w3.org/2000/svg" xmlns:xlink="http://www.w3.org/1999/xlink" id="Layer_1" width="698.7" height="516.7" x="0" y="0" version="1.1" viewBox="0 0 698.7 516.7" xml:space="preserve" style="enable-background:new 0 0 698.7 516.7"><style type="text/css">.st0,.st1{fill:none;stroke:#263238;stroke-miterlimit:10}.st1{stroke:#fff200}.st2{fill:#263238}.st3{fill:none}.st3,.st4,.st5,.st6{stroke:#263238;stroke-linecap:round;stroke-linejoin:round;stroke-miterlimit:10}.st4{fill:#fff}.st5{fill:#263238}.st6{fill:url(#SVGID_1_)}.st7{fill:#206cb5}.st8{fill:#fff}.st9{fill:#fff200}.st10{fill-rule:evenodd;clip-rule:evenodd;fill:#00aeef}.st11{fill:url(#SVGID_2_);stroke:#263238;stroke-linecap:round;stroke-linejoin:round;stroke-miterlimit:10}.st12{fill:#ffdb59}.st13{fill:#206cb5}.st13,.st14,.st15{fill-rule:evenodd;clip-rule:evenodd}.st14{fill:#fff}.st15{fill:#fff200}.st16{fill:none;stroke:#2e3192}.st16,.st17,.st18,.st19{stroke-miterlimit:10}.st17{fill:#263238}.st17,.st18,.st19{stroke:#263238}.st18{fill:#fff200}.st19{fill:#fff}.st20,.st21{fill:none}.st20,.st21,.st22{stroke-miterlimit:10}.st20{stroke:#263238;stroke-width:2;stroke-linecap:round}.st21{stroke:#fff}.st22{fill:url(#SVGID_3_);stroke:#263238}.st23{fill:url(#SVGID_4_)}.st23,.st24,.st25,.st26,.st27,.st28{stroke:#263238;stroke-miterlimit:10}.st24{fill:url(#SVGID_5_)}.st25{fill:url(#SVGID_6_)}.st26{fill:url(#SVGID_7_)}.st27{fill:url(#SVGID_8_)}.st28{fill:url(#SVGID_9_)}</style><g><ellipse cx="598.1" cy="70.9" class="st0" rx="56.9" ry="56.9" transform="matrix(0.9742 -0.2256 0.2256 0.9742 -0.5732 136.7766)"/><ellipse cx="598.1" cy="70.9" class="st1" rx="52.8" ry="52.8" transform="matrix(0.9741 -0.2259 0.2259 0.9741 -0.5532 136.9581)"/><circle cx="598.1" cy="70.9" r="3" class="st2"/><polyline points="571.4 70.9 598.1 70.9 598.1 38.3" class="st3"/></g><g><g><g><path d="M30.7,500.4c0,0,10.7-54.3,10.7-58.6s-0.7-20-4.3-39.3c-3.6-19.3-14.3-67.1-17.1-75 c-2.9-7.9,7.9-22.1,10.7-38.6c2.9-16.4,9.3-32.1,17.9-42.1c8.6-10,39.3-32.1,39.3-32.1h15.7c0,0-5.7,94.3,2.1,108.5 c7.9,14.3,22.1,44.3,23.6,57.1c1.4,12.9-7.1,34.3-5.7,46.4c1.4,12.1-10.7,32.1-13.6,40.7c-2.9,8.6-1.4,35.7-1.4,35.7" class="st4"/><path d="M86.4,241.1L75,254.4c0,0-2.9,15.3-4.3,22.4c-1.4,7.1-4.3,12.9-4.3,12.9s5,11.4,7.9,15.7 c2.9,4.3,4.3,8.6,4.3,8.6l7.9,5V241.1C86.4,241.1,92.8,236.9,86.4,241.1z" class="st5"/><path d="M47,291.5c0,0,5.8-0.8,11.5-0.8" class="st3"/><path d="M66.7,248.7c0,0,8.2,2.5,8.2,5.8" class="st3"/></g><linearGradient id="SVGID_1_" x1="17.193" x2="121.471" y1="484.882" y2="484.882" gradientUnits="userSpaceOnUse"><stop style="stop-color:#00aeef" offset="0"/><stop style="stop-color:#2e3192" offset="1"/></linearGradient><path d="M17.2,509.6c0,0,3.6-33.9,3.6-37.5c0-3.6,0-7.1,0-10.7c0-3.6,3.6-6.2,3.6-6.2s34.8-7.1,69.6,4.5 s26.8,30.3,26.8,30.3l-1.8,26.8" class="st6"/></g><g><path d="M514.5,381.1H92.4c-5.3,0-9.6-4.3-9.6-9.6V117.9c0-5.3,4.3-9.6,9.6-9.6h422.1c5.3,0,9.6,4.3,9.6,9.6v253.6 C524.1,376.8,519.8,381.1,514.5,381.1z" class="st5"/><path d="M499.1,366.1H107.8c-5.3,0-9.6-4.3-9.6-9.6V132.9c0-5.3,4.3-9.6,9.6-9.6h391.3c5.3,0,9.6,4.3,9.6,9.6v223.6 C508.7,361.8,504.4,366.1,499.1,366.1z" class="st4"/><g><g><rect width="109.6" height="70.1" x="368.8" y="133.2" class="st4"/><rect width="109.6" height="7.8" x="368.8" y="195.5" class="st5"/><rect width="109.6" height="2.3" x="368.8" y="198.2" class="st4"/><g><ellipse cx="421.7" cy="167.9" class="st7" rx="16.1" ry="16.1" transform="matrix(0.9965 -8.399860e-02 8.399860e-02 0.9965 -12.6121 36.0151)"/><polygon points="431 168.2 417 160.1 417 176.3" class="st8"/></g></g><g><rect width="109.6" height="70.1" x="368.8" y="210.9" class="st4"/><rect width="109.6" height="7.8" x="368.8" y="273.2" class="st5"/><rect width="109.6" height="2.3" x="368.8" y="275.9" class="st4"/><g><ellipse cx="421.7" cy="245.6" class="st9" rx="16.1" ry="16.1" transform="matrix(0.9965 -8.399860e-02 8.399860e-02 0.9965 -19.1385 36.2897)"/></g></g><g><rect width="109.6" height="70.1" x="368.8" y="288.6" class="st4"/><rect width="109.6" height="7.8" x="368.8" y="350.9" class="st5"/><rect width="109.6" height="2.3" x="368.8" y="353.6" class="st4"/><g><ellipse cx="421.7" cy="323.3" class="st7" rx="16.1" ry="16.1" transform="matrix(0.1255 -0.9921 0.9921 0.1255 48.0453 701.0701)"/><polygon points="431 323.6 417 315.5 417 331.7" class="st8"/></g></g></g><path d="M333.4,362H142.9c-3.2,0-5.8-2.6-5.8-5.8V162.3c0-3.2,2.6-5.8,5.8-5.8h190.5c3.2,0,5.8,2.6,5.8,5.8v193.8 C339.2,359.4,336.6,362,333.4,362z" class="st10"/></g><g><path d="M63.6,341.9c0,0,12.8-27.9,14.3-38.6c1.4-10.7-1.4-35.7,2.1-45.7c3.6-10,1.4-22.9,10-27.8 c8.6-5,20-3.6,22.1,16.4c2.1,20,0,51.4,0.7,62.1c0.7,10.7,19.3,26.4,20,49.3c0.7,22.9-7.1,46.4-9.3,56.4 c-2.1,10-10.7,33.6-10.7,33.6" class="st4"/><path d="M83.5,252.8c0,0,5.8-1.7,12.9-0.3c7.1,1.4,11.4,2.9,11.4,2.9s0.7-7.1,0-14.3c0,0,0.9-8.2-4-11.5 c-4.9-3.3-14.8-2.5-18.1,4.9C82.4,242.1,83.5,252.8,83.5,252.8z" class="st3"/><path d="M101.4,266c0,0-16.5-4.9-20.6,1.6" class="st3"/><path d="M84.9,270.1c0,0,4.9,1.6,15.7,0.8" class="st3"/></g></g><g><g><path d="M514.8,149.7c0,0-18.6,5.7-17.1,10.7c1.4,5,35.7,47.8,41.4,46.4c5.7-1.4,12.1-20,12.1-32.8 S514.8,149.7,514.8,149.7z" class="st5"/><path d="M666.6,275.9l-17.5-21.2c0,0-22.9-53.6-29.3-64.3c-6.4-10.7-20.7-41.4-25.7-42.8c-5-1.4-12.1-2.1-14.3-3.6 c-2.1-1.4-10.7-4.3-22.1-5c-11.4-0.7-35-5.7-45-8.6c-10-2.9-10.7,0-22.8,4.3c-12.1,4.3-48.6,17.1-51.4,19.3 c-2.9,2.1,0.7,8.6,10,12.1c9.3,3.6,13.6,0.7,24.3-0.7c10.7-1.4,27.1-4.3,29.3-4.3c2.1,0,17.9,2.1,20.7,3.6 c2.9,1.4,10,12.9,10,18.6c0,5.7-1.4,12.1-1.4,12.1L531,245c0,0,22.6,25.5,38.3,34.2c15.7,8.7,23.2,9.3,23.2,9.3l24.3,22.6" class="st4"/><path d="M579.8,144c0,0,7.1,7.1,11.4,16.4" class="st4"/><g><path d="M647,356.6l-54.3-61.2c0,0-25-10.7-41.4-21.4c-16.4-10.7-36.4-45-41.4-52.8c-5-7.9-15.7-23.6-24.3-29.3 c-8.6-5.7-24.3-23.6-27.8-30.7c-3.6-7.1,2.9-16.4,10.7-17.1c7.9-0.7,40.7,15,46.4,23.6c5.7,8.6,22.1,26.4,22.1,26.4" class="st4"/><path d="M497,169c0,0-8.6,8.6-9.3,12.9" class="st3"/><path d="M503.4,169.7c0,0-6.4,10-10.7,13.6" class="st3"/><path d="M489.9,155.5c-9.3,6.4-15.7,18.6-15.7,18.6s-15.3-5.6-16.4-12.9c-1.2-7.3,1.2-14.6,10.7-17.1 C478,141.5,489.9,155.5,489.9,155.5z" class="st3"/></g></g><linearGradient id="SVGID_2_" x1="600.183" x2="684.444" y1="324.744" y2="324.744" gradientUnits="userSpaceOnUse"><stop style="stop-color:#00aeef" offset="0"/><stop style="stop-color:#2e3192" offset="1"/></linearGradient><path d="M665.7,399.4C663,395,603.3,325,600.6,316c-2.7-8.9,8-29.4,25-48.2c9-9.9,31.3-26,43.8-12.9 c5.2,5.4,9.5,12,15.1,17.3" class="st11"/></g><g><path d="M286.1,108.3c4.8,6.1,11.8,10.8,20,13.5L290,150.2l29.9-26.2c0.3,0,0.6,0,0.9,0c14.5,0,27.2-6.2,34.7-15.7 H286.1z" class="st5"/><path d="M320.2,50.9c-23.1,0-41.8,15.9-41.8,35.5c0,15.2,11.3,28.2,27.1,33.2L289.4,148l29.9-26.2c0.3,0,0.6,0,0.9,0 c23.1,0,41.8-15.9,41.8-35.5S343.3,50.9,320.2,50.9z" class="st12"/><path d="M305.4,87.1c0-2.6-2.1-4.6-4.6-4.6c-2.6,0-4.6,2.1-4.6,4.6s2.1,4.6,4.6,4.6C303.4,91.8,305.4,89.7,305.4,87.1z" class="st2"/><path d="M326.1,87.1c0-2.6-2.1-4.6-4.6-4.6c-2.6,0-4.6,2.1-4.6,4.6s2.1,4.6,4.6,4.6C324,91.8,326.1,89.7,326.1,87.1z" class="st2"/><circle cx="342.2" cy="87.1" r="4.6" class="st2"/></g><g><g><circle cx="158.9" cy="82.8" r="8.1" class="st7"/></g><g><path d="M158.9,62.4c-8.3,0-15.4,5-18.6,12.1l5.4,4.8c1.5-5.9,6.9-10.3,13.2-10.3c6.8,0,12.5,5,13.5,11.6l5.5-5.3 C174.9,67.8,167.5,62.4,158.9,62.4z" class="st7"/><path d="M136.6,71.3c4.2-8.1,12.6-13.6,22.3-13.6c9.9,0,18.5,5.8,22.6,14.2l5-4.8C181,57.5,170.7,51,158.9,51 c-11.7,0-21.9,6.3-27.4,15.7L136.6,71.3z" class="st7"/></g></g><g><g><g><path d="M463.2,50.6v33.3c0,3.5-2.8,6.3-6.3,6.3h-40.4c-3.5,0-6.3-2.8-6.3-6.3V43.4c0-3.5,2.8-6.3,6.3-6.3h36.2" class="st13"/></g><path d="M454.9,51.9h-36.1c-0.8,0-1.5,0.7-1.5,1.5v20.8c0,0.8,0.7,1.5,1.5,1.5h36.1c0.8,0,1.5-0.7,1.5-1.5V53.3 C456.4,52.5,455.8,51.9,454.9,51.9z M455.4,56.4l-11.5,7.1l10.3,7.6c0.6,0.4,0.7,1.3,0.3,1.9c-0.3,0.4-0.7,0.5-1.1,0.5 c-0.3,0-0.6-0.1-0.8-0.3L441.4,65l-4.1,2.5l-4.8-2.7l-11.3,8.4c-0.2,0.2-0.5,0.3-0.8,0.3c-0.4,0-0.8-0.2-1.1-0.5 c-0.4-0.6-0.3-1.4,0.3-1.9l10.3-7.6l-11.7-6.5c-0.6-0.4-0.9-1.2-0.5-1.8c0.4-0.6,1.2-0.9,1.8-0.5l17.8,9.9L454,54.1 c0.6-0.4,1.5-0.2,1.8,0.4C456.2,55.1,456.1,56,455.4,56.4z" class="st14"/></g><path d="M469.7,41.7c0-5.2-4.2-9.4-9.4-9.4c-5.2,0-9.4,4.2-9.4,9.4c0,5.2,4.2,9.4,9.4,9.4 C465.5,51.1,469.7,46.9,469.7,41.7z" class="st15"/></g><g><g><path d="M570,323.3c0-5.2-4.2-9.4-9.4-9.4s-9.4,4.2-9.4,9.4c0,5.2,4.2,9.4,9.4,9.4S570,328.5,570,323.3z" class="st10"/></g><path d="M421.7,237.3c-4.7,0-8.6,3.3-8.6,7.3c0,2.4,1.4,4.6,3.5,5.9l-0.4,3.4l3.5-2.2c0.6,0.1,1.3,0.2,2,0.2 c4.7,0,8.6-3.3,8.6-7.3C430.3,240.5,426.4,237.3,421.7,237.3z" class="st14"/></g><g><ellipse cx="203.2" cy="421.5" class="st9" rx="22" ry="22" transform="matrix(0.8847 -0.4662 0.4662 0.8847 -173.0573 143.3728)"/><g><rect width="25.8" height="19.4" x="190.3" y="412.3" class="st16" transform="matrix(0.7026 0.7116 -0.7116 0.7026 360.6956 -19.0972)"/><polyline points="201 406 201.6 423.5 219.2 424.3" class="st16"/></g></g><g><polygon points="259.8 366.7 257 318.3 185.8 320 184.2 366.7" class="st17"/><path d="M210.2,204.3c0,0,8.9,0.7,13.2,0.7c4.3,0,13.8,3.1,13.8,3.1l6,2.2l7.3,111.1c0,0-12.5,4.9-24.7,4.9 c-12.2,0-19.5-0.3-19.5-0.3l-3-115.1L210.2,204.3z" class="st18"/><g><path d="M250.2,160.1c0,0-3.9,24.1-5.5,31.5c-1.6,7.4-6.6,11.1-9.5,11.4l0.4,1.4l1.5,3.6c0,0-0.8,12.4-3.7,18.2 c-2.9,5.8-3.1,9.7-5,8c-1.9-1.6-14.6-25.6-16.1-29.4c-1.4-3.9-1-5.1-1-5.1l-1.6-25.3c0,0-2.4-19.1,6.8-24.4s19.3-1.4,24.6,0.3 C246.5,152,250.2,160.1,250.2,160.1z" class="st19"/><path d="M235.2,203c0,0-4.3,0.9-10.2-1.6c0,0,6.9,7.7,11.4,9.3L235.2,203z" class="st17"/><path d="M244.5,166.4c0,0-1.9,2-1.9,4.7c0,2.6,5,13.8,2.2,14.9c-2.8,1.1-9.1-2-9.1-2" class="st0"/><path d="M227.8,183.2c0,0,1.7,5.2,9.7,5.2" class="st0"/><ellipse cx="228.3" cy="169.8" class="st2" rx="1.3" ry="2.2"/><ellipse cx="244.2" cy="171.7" class="st2" rx="1.3" ry="2.2"/><path d="M226.1,163.8c0,0,2.6-2.6,9.5-0.6" class="st20"/><path d="M244.5,165.5c0,0,3-1.3,4.7,2" class="st20"/></g><path d="M213.8,176c0,0,0.6,6.6,2.6,7.1c1.9,0.5,3.2,0.8,2.4-3.1c-0.8-3.9-4.2-8.5-1-12.2c3.2-3.7,4.5-1.9,4.2-5.6 s-5.8-4.5-2.1-7.2c3.7-2.7,17.7-2.6,21.7-0.3c4,2.3,8.5,5.1,8.5,7.4s10.5,5.8,12.5-3.2c2.1-9,1-11.6-1.8-12.2 c-2.7-0.6-7.9-0.2-7.6-6.1c0.3-6-5.3-12.2-10.6-12.4c-5.3-0.2-8.7,4.8-9.2,7.1c-0.5,2.3-6.3,2.3-12.4-0.3 c-6.1-2.6-11.6,5.8-11.1,8.5c0.5,2.7,0.6,4-0.3,4.5c-1,0.5-8.7,5.1-9.2,10.6c-0.5,5.5,5.3,14.2,6.3,15.6c1,1.4,0.6,1.9,0.6,1.9 S210,174.4,213.8,176z" class="st17"/><g><path d="M213.9,175.3c0.8,3.6-0.7,7.1-3.4,7.7c-2.7,0.6-5.5-1.9-6.3-5.5c-0.8-3.6,0.7-7.1,3.4-7.7 C210.2,169.2,213.1,171.7,213.9,175.3z" class="st19"/><path d="M207.5,169.8c0,0-6.6-10,0.9-20.8" class="st21"/><path d="M210.4,183c0,0,3.4,14.2,16,14.8" class="st0"/><path d="M229.1,197.2c0,1.2-0.9,2.1-2.1,2.1c-1.2,0-2.1-0.9-2.1-2.1c0-1.2,0.9-2.1,2.1-2.1 C228.2,195.1,229.1,196.1,229.1,197.2z" class="st19"/></g><linearGradient id="SVGID_3_" x1="174.001" x2="220.012" y1="274.587" y2="274.587" gradientUnits="userSpaceOnUse"><stop style="stop-color:#00aeef" offset="0"/><stop style="stop-color:#2e3192" offset="1"/></linearGradient><path d="M211.5,201.7c0,0-10.9,6.3-19.1,9.7c-8.2,3.5-17.4,6.5-17.9,8.2c-0.5,1.7-1.2,117.7,0.7,119.5 c2,1.7,15.4,6.5,25.8,7.9s18.9-0.7,18.9-0.7L211.5,201.7z" class="st22"/><linearGradient id="SVGID_4_" x1="198.734" x2="216.768" y1="245.45" y2="245.45" gradientUnits="userSpaceOnUse"><stop style="stop-color:#00aeef" offset="0"/><stop style="stop-color:#2e3192" offset="1"/></linearGradient><path d="M207.1,265c2,9.7,6.4,18.5,9.7,24.2l-5.2-87.6c0,0-6.1,3.8-12.8,6.9C200.2,220.4,204.3,251.9,207.1,265z" class="st23"/><g><linearGradient id="SVGID_5_" x1="235.629" x2="269.438" y1="275.281" y2="275.281" gradientUnits="userSpaceOnUse"><stop style="stop-color:#00aeef" offset="0"/><stop style="stop-color:#2e3192" offset="1"/></linearGradient><path d="M235.6,204.4c0,0,7.7,52.4,7.2,78c-0.5,25.6-0.7,63.6-0.7,63.6s9.2,0.7,17.1-1.5c7.9-2.2,10.2-4,10.2-4 s-6.2-68.6-7.2-83.2c-1-14.7-3.7-48.9-3.7-48.9L235.6,204.4z" class="st24"/><linearGradient id="SVGID_6_" x1="235.629" x2="251.857" y1="244.164" y2="244.164" gradientUnits="userSpaceOnUse"><stop style="stop-color:#00aeef" offset="0"/><stop style="stop-color:#2e3192" offset="1"/></linearGradient><path d="M242.8,283.9c2.1-3.6,6.1-12.2,8.2-28.8c2.4-18.8-1.2-40.6-2.7-48.4l-12.7-2.3c0,0,7.7,52.4,7.2,78 C242.9,282.9,242.8,283.4,242.8,283.9z" class="st25"/></g><g><g><path d="M221.3,286.1c0,0,2.6-5.3,4.5-7.7c1.8-2.4,7.5-6.3,10.1-6.5s7.5-3.9,8.9-2.4c1.4,1.4-0.4,3.4-1.4,4.5 c-1,1-3.4,1.2-5.1,2.4c-1.6,1.2-2,1.8-2,1.8s12.4-3.2,15.8-3.4c3.4-0.2,3.4,2.2,2.2,3.4c-1.2,1.2-11.6,3.4-11.6,3.4 s-1.7,1,0.1,0.8s8.3-1.6,11.3-1.6c3,0,3.4,0.8,0.6,3.4c-1.1,1-2.7,1.8-4.4,2.5c-2.7,1.1-5.4,1.6-5.4,1.6s6.9-1.8,6.5,0 c-0.4,1.8-5.5,3.2-6.9,4.1c-1.4,0.8-2.8,1.6-6.7,2.8c-3.9,1.2-17.8,1.8-17.8,1.8L221.3,286.1z" class="st19"/><line x1="244.6" x2="239.2" y1="292.4" y2="293.2" class="st0"/><line x1="245" x2="240.6" y1="288.3" y2="289.5" class="st0"/></g><g><linearGradient id="SVGID_7_" x1="151.777" x2="221.254" y1="264.231" y2="264.231" gradientUnits="userSpaceOnUse"><stop style="stop-color:#00aeef" offset="0"/><stop style="stop-color:#2e3192" offset="1"/></linearGradient><path d="M178.4,217.1c0,0-10.1,1.1-12.7,7.8c-2.6,6.7-15.6,83.5-13.8,86.1c1.9,2.6,68.2-9.7,68.2-9.7l1.1-16.4 l-38.4-2.2l2.6-34.3" class="st26"/><line x1="182.9" x2="162.4" y1="282.7" y2="283" class="st19"/></g></g><g><path d="M315.9,218.1c0,0,3.3-16.8,4.3-19c1-2.3,3-3,7.8-6.3c4.8-3.3,8-6,8.5-2.8c0.5,3.3-1.3,4.3-3.5,5.3 c-2.3,1-3.8,3.8-3.8,3.8l13,1.5c0,0,5.3-1.5,10.8-1.5c5.5,0-3.3,6.3-6.8,8.8c-3.5,2.5-18.5,8-20.3,8.8c-1.8,0.8-3.5,5.5-3.5,5.5 L315.9,218.1z" class="st19"/><path d="M323.1,213.4c0,0,1.3-6.5,3.8-7.5c2.5-1,13.8-0.3,13.8-0.3s6.5-9.5,7.3-9c0.8,0.5,1.5,0.8-0.3,3.8 c-1.8,3-3.3,8.3-5.5,10.3c-2.3,2-18,5.8-18,5.8" class="st19"/></g><g><linearGradient id="SVGID_8_" x1="258.51" x2="327.645" y1="245.062" y2="245.062" gradientUnits="userSpaceOnUse"><stop style="stop-color:#00aeef" offset="0"/><stop style="stop-color:#2e3192" offset="1"/></linearGradient><path d="M258.5,208.4l34.8,41.6l21.8-37.3l12.5,7.5c0,0-21.5,58.1-26.1,60.4c-4.5,2.3-8,0.8-9-0.5 c-1-1.3-30.3-22.7-30.3-22.7L258.5,208.4z" class="st27"/><linearGradient id="SVGID_9_" x1="260.971" x2="269.108" y1="249.083" y2="249.083" gradientUnits="userSpaceOnUse"><stop style="stop-color:#00aeef" offset="0"/><stop style="stop-color:#2e3192" offset="1"/></linearGradient><polygon points="261 236.5 269.1 261.6 262 256.2" class="st28"/></g></g></svg>