<svg xmlns="http://www.w3.org/2000/svg" xmlns:xlink="http://www.w3.org/1999/xlink" id="Layer_1" width="58" height="55.3" x="0" style="enable-background:new 0 0 58 55.3" y="0" version="1.1" viewBox="0 0 58 55.3" xml:space="preserve"><style type="text/css">.st0{fill:#b4dbfe}.st1{fill:#bf694e}.st2{fill:#d2e9fe}.st3{fill:#c6e3fe}.st4{fill:#daecfe}.st5{fill:#cd775f}.st6{fill:#fee87b}.st7{fill:#f3dc45}.st8{fill:#3f6d8d}.st9{fill:#477b9d}.st10{fill:#eb625e}.st11{fill:#64a5f3}.st12{fill:#40c040}.st13{fill:#f77c68}.st14{fill:#7fb2f9}.st15{fill:#fbc001}.st16{fill:#64d365}</style><g><path d="M33.9,2.7c0.2,0.2,0.4,0.1,0.6,0.1c0.1,0.1,0.3,0,0.4,0.1c-0.1,0.2-0.3,0.2-0.4,0.2c-4.8,0.6-9.3,2.1-13.3,4.7 c-3.4,2.2-6.2,5-8.2,8.6c-0.1,0.2-0.2,0.3-0.3,0.5c-0.5,0.4-1,0.8-1.4,1.3c-0.6,1-0.9,2-0.6,3.1c0,0.2,0.1,0.5,0.1,0.7 c-0.6,2.3-0.8,4.7-0.7,7.1c0,0.3,0,0.5,0.1,0.8c0.1,0.2-0.1,0.4-0.2,0.5c-1.3,1.8-0.9,4.6,1.3,5.9c0.1,0.1,0.3,0.1,0.3,0.3 c1.2,3.2,3,6.1,5.2,8.8c1.1,1.3,2.2,2.6,3.5,3.6c1.3,0.9,2.7,1.6,4.2,2.1c0.2,0.1,0.5,0.1,0.5,0.4c-0.8,0.4-1.7,0.4-2.5,0.5 c-1.9,0.1-3.7,0-5.5-0.6c-2.1-0.7-4-1.6-5.6-3.2C7.5,44.6,4.6,40.3,3,35.1c-0.6-2.1-1-4.2-1-6.4c-0.1-2.7,0.3-5.4,1.1-8 c1-3.1,2.5-5.9,4.6-8.4c4.3-5,9.9-7.8,16.2-9.2c1.6-0.4,3.2-0.6,4.9-0.6c0.1,0,0.1,0,0.1-0.1c0.1,0,0.1,0,0.2,0 c0.3,0.1,0.7,0.1,1,0c0.8,0,1.7,0,2.5,0c0.2,0.1,0.4,0.1,0.6,0C33.5,2.7,33.7,2.7,33.9,2.7z" class="st0"/><path d="M31.9,54c-0.7-0.3-1.3-0.6-1.7-1.3c-0.3-0.6-0.4-1.2-0.2-1.9c0.2-0.6,0.4-1.2,0.5-1.9c0-0.7,0.4-1.4,0.6-2.1 c1.2-3.5,2.5-6.9,4-10.2c0.2-0.5,0.3-1.1,0.8-1.5c0.9-2,1.8-4.1,2.9-6c0.1-0.1,0.3,0,0.4,0c0.7,0.3,1.5,0.6,2.2,1 c0,0,0,0.1,0.1,0.1c-0.2,0.7-0.5,1.3-0.8,1.9c-2.8,6-5.3,12.1-7.3,18.4c-0.2,0.6-0.5,1.3-0.2,2c0.1,0.3,0.2,0.5,0.4,0.8 c0.1,0.1,0.2,0.3,0.2,0.5c-0.2,0.2-0.4,0.1-0.6,0.3C32.7,54,32.3,54,31.9,54z" class="st1"/><path d="M30.1,2.7c-0.3,0.2-0.7,0.2-1,0C29.5,2.7,29.8,2.7,30.1,2.7z" class="st2"/><path d="M33.2,2.7c-0.2,0.2-0.4,0.2-0.6,0C32.8,2.7,33,2.7,33.2,2.7z" class="st3"/><path d="M35.9,35.1c-1.8,4.1-3.5,8.3-4.9,12.5c-0.1,0.4-0.3,0.8-0.4,1.2c-0.2-0.1-0.3,0.1-0.4,0.2 c-1.6,1.2-3.3,2-5.2,2.5c-0.5-0.4-1.1-0.4-1.6-0.7c-1.5-0.7-2.9-1.5-4.1-2.6c-2.6-2.4-4.7-5.3-6.3-8.4c-0.5-0.9-0.9-1.8-1.3-2.8 c0-0.1-0.1-0.2-0.1-0.4c0.2-0.1,0.4,0,0.6,0.1c1.1,0.3,2.1,0.3,3.1-0.2c1.4-0.8,2.3-1.9,2.3-3.5c0.1-1.8-0.8-3.1-2.3-3.9 c-1.6-0.7-3-0.5-4.4,0.5c-0.2,0.2-0.4,0.4-0.7,0.5c-0.2-0.1-0.2-0.2-0.2-0.4c-0.1-2.5,0.1-5,0.7-7.5c0-0.1,0.1-0.1,0.1-0.2 c0.2,0,0.3,0.3,0.4,0.4c1.1,2,3.4,2.8,5.4,1.9c1.6-0.8,2.4-2,2.4-3.7c0-1.7-0.9-3-2.4-3.8c-1.1-0.5-2.2-0.5-3.3-0.1 c-0.2,0.1-0.3,0.2-0.5,0.1c0.8-1.5,1.8-2.9,2.9-4.3c2.6-3.1,5.9-5.3,9.5-6.9c2.5-1.2,5.2-1.9,7.9-2.4c0.6-0.1,1.2-0.3,1.9-0.2 c-0.2-0.1-0.3-0.2-0.4-0.2C36.4,3,38.2,3,39.9,3.9c1.5,0.8,2.2,2.1,2.3,3.8c0.1,1.5-0.4,2.8-1.6,3.8c-0.5,0.4-1.1,0.7-1.7,0.9 c-1.4,0.4-2.8,1-4.1,1.8c-2.4,1.5-4,3.6-4.4,6.4c-0.4,2.8,0.2,5.3,2.1,7.5c1.6,1.9,2.7,4.1,3.1,6.6C35.8,34.8,35.9,35,35.9,35.1z" class="st4"/><path d="M33.6,53.7c-0.8-0.9-0.9-1.9-0.6-3.1c1.3-4.1,2.8-8.1,4.5-12.1c1.2-2.8,2.4-5.6,3.8-8.4c0.1-0.1,0.3-0.1,0.4,0 c0.8,0.3,1.5,0.6,2.3,1c0.1,0.1,0.2,0.1,0.3,0.3c-0.7,2.2-1.6,4.4-2.5,6.6c-2,4.9-4.3,9.7-6.8,14.3C34.6,52.9,34.3,53.4,33.6,53.7z" class="st5"/><path d="M52.7,8.5c0.4,2.1,0.6,4.3,0.2,6.4c-0.4,2-1.8,3.5-3.3,4.7c-0.4,0.3-0.8,0.5-1.1,0.8c-0.7-0.3-1.4-0.5-2-1 c-0.3-1-0.3-2-0.2-3c0.1-1.2,0.4-2.3,1.1-3.3c0.6-0.9,1.3-1.7,2.2-2.4c0.9-0.7,1.7-1.4,2.6-2C52.3,8.6,52.5,8.4,52.7,8.5z" class="st6"/><path d="M52.7,8.5c-1.5,1-2.9,2.1-4.2,3.4c-1.3,1.3-2,2.9-2.1,4.8c-0.1,1,0.1,1.9,0.1,2.8c0,0,0,0-0.1,0 c-0.3,0-0.6-0.2-0.8-0.3c-0.5-0.2-1.1-0.4-1.6-0.7c-0.2-1-0.3-1.9-0.3-2.9c0-2.1,0.7-3.9,2.2-5.4c1.6-1.6,3.4-2.9,5.3-4.1 c0.6-0.4,1.1-0.2,1.3,0.5C52.5,7.3,52.7,7.9,52.7,8.5z" class="st7"/><path d="M41.4,30.1c-0.9-0.3-1.7-0.7-2.6-1c1.1-2.3,2.3-4.5,3.6-6.6c0.1-0.2,0.2-0.4,0.3-0.6c0.1-0.1,0.2-0.1,0.3,0 c0.7,0.3,1.5,0.6,2.1,1c0,0,0.1,0.1,0.1,0.1c0.1,0.2,0,0.4-0.1,0.6c-1.2,2-2.3,4.1-3.3,6.2C41.7,29.9,41.7,30.2,41.4,30.1z" class="st8"/><path d="M41.4,30.1c0.1-0.1,0.1-0.1,0.2-0.2c1.1-2.2,2.3-4.5,3.5-6.6c0.1-0.1,0.1-0.2,0.1-0.4c0.6,0,1.1,0.3,1.6,0.6 c0.1,0,0,0.1,0,0.2c-0.7,2.5-1.5,5-2.4,7.5c0,0.1-0.1,0.1-0.1,0.2C43.3,31,42.4,30.5,41.4,30.1C41.4,30.2,41.4,30.2,41.4,30.1z" class="st9"/><path d="M46.8,23.7c0-0.3-0.3-0.2-0.5-0.3c-0.4-0.2-0.8-0.3-1.1-0.5c0,0,0,0,0,0c-0.3-0.3-0.4-0.6-0.3-1 c0.2-0.6,0.5-1.2,0.8-1.8c0.2-0.3,0.4-0.6,0.8-0.6c0,0,0,0,0,0c0.6,0.4,1.3,0.5,1.9,1c0.2,0.5,0.1,0.9-0.1,1.4 c-0.1,0.2-0.3,0.5-0.3,0.7C47.8,23.1,47.3,23.4,46.8,23.7z" class="st4"/><path d="M46.5,19.4c-0.4,0.3-0.7,0.6-0.9,1.1c-0.1,0.3-0.2,0.6-0.4,0.8c-0.3,0.5-0.4,1-0.1,1.6 c-0.7-0.3-1.5-0.6-2.2-0.9c-0.1,0-0.2-0.1-0.3-0.1c-0.4-0.9,0.1-1.6,0.4-2.3c0.2-0.5,0.5-0.9,0.9-1.1 C44.9,18.6,45.7,19.1,46.5,19.4z" class="st0"/><path d="M16.6,24.4c-1.9,1-4.4,0.2-5.5-1.6c-0.2-0.3-0.3-0.5-0.4-0.8c-0.5-1.7-0.2-3.3,1.1-4.6 c0.3-0.3,0.6-0.4,0.9-0.7c1.3-0.6,2.6-0.8,3.9-0.1c0,0.3-0.2,0.3-0.4,0.5c-0.9,0.7-1.5,1.5-1.7,2.6c-0.3,1.7,0.3,3.1,1.7,4.2 C16.4,24.1,16.6,24.1,16.6,24.4z" class="st10"/><path d="M10.1,30c1.4-1.5,3.6-2,5.1-1c-0.2,0.3-0.6,0.5-0.8,0.8c-2,2-1.8,4.9,0.5,6.5c0.1,0.1,0.3,0.2,0.4,0.4 c-1.1,0.6-2.2,0.6-3.4,0.2c-0.1,0-0.2-0.1-0.4-0.1c-1.1-0.6-2-1.5-2.3-2.7C8.8,32.6,9.1,31.2,10.1,30z" class="st11"/><path d="M23.5,45.8c-2.1,1.3-5,0.1-5.7-2.4c-0.4-1.5,0.1-3.2,1.3-4.2c1.3-1,2.8-1.2,4.3-0.5c0.1,0.3-0.1,0.4-0.3,0.5 c-0.9,0.7-1.4,1.6-1.6,2.7c-0.1,1.1,0.2,2.1,0.9,2.9C22.8,45.1,23.3,45.3,23.5,45.8z" class="st12"/><path d="M16.6,24.4c-0.3-0.3-0.7-0.6-1.1-0.9c-1.6-1.7-1.6-4.2,0-6c0.3-0.3,0.7-0.6,1.1-0.9c1.6,0.8,2.5,2.1,2.5,3.9 C19.1,22.3,18.2,23.6,16.6,24.4z" class="st13"/><path d="M15.2,36.7c-1.5-0.9-2.3-2.1-2.3-3.8c0-1.7,0.9-3,2.3-3.8c1.4,0.6,2.2,1.7,2.4,3.2c0.3,1.8-0.5,3.3-2,4.3 C15.5,36.6,15.3,36.6,15.2,36.7z" class="st14"/><path d="M25,14.7c-1.4,1-3.3,0.7-4.4-0.6c-1.1-1.3-1.1-3.3,0-4.5c1.2-1.3,3.1-1.5,4.4-0.6c0,0.2-0.1,0.3-0.2,0.4 c-1.4,1.3-1.4,3.5,0,4.8C24.9,14.4,25.1,14.5,25,14.7z" class="st15"/><path d="M23.5,45.8c-1.3-0.8-2-1.9-2.1-3.4c0-1.3,0.4-2.4,1.5-3.2c0.2-0.2,0.4-0.2,0.5-0.5c1.5,0.8,2.2,2,2.2,3.7 C25.6,43.9,24.9,45,23.5,45.8z" class="st16"/><path d="M25,14.7c-0.6-0.5-1.1-1.1-1.3-1.9c-0.3-1.4,0-2.6,1.2-3.5C25,9.2,25,9.1,25,9.1C27.1,10.4,27.1,13.4,25,14.7z" class="st7"/></g></svg>