<svg xmlns="http://www.w3.org/2000/svg" xmlns:xlink="http://www.w3.org/1999/xlink" id="Layer_1" width="395" height="374" x="0" style="enable-background:new 0 0 395 374" y="0" version="1.1" viewBox="0 0 395 374" xml:space="preserve"><style type="text/css">.st0{fill:#34b4a8}.st1{fill:#fed845}.st2{fill:#fe819b}.st3{fill:#65dfda}.st4{fill:#61dcd6}.st5{fill:#fd7596}.st6{fill:#fec83b}.st7{fill:#fa5889}.st8{fill:#f94e85}.st9{fill:#f94b83}.st10{fill:#fb5d8c}.st11{fill:#feb32f}.st12{fill:#fd7797}.st13{fill:#fa5b8a}.st14{fill:#feb631}.st15{fill:#fb618d}.st16{fill:#fd7496}.st17{fill:#54d0c9}.st18{fill:#fec53a}.st19{fill:#fe7e9a}.st20{fill:#f94681}.st21{fill:#5edad3}.st22{fill:#fed442}.st23{fill:#5ad6cf}.st24{fill:#fb638e}.st25{fill:#fa5286}.st26{fill:#58d4cd}.st27{fill:#fec037}.st28{fill:#fd7395}.st29{fill:#fecf3f}.st30{fill:#febb34}.st31{fill:#fec238}.st32{fill:#febd35}.st33{fill:#feb832}.st34{fill:#f72814}.st35{fill:#fe7997}.st36{fill:#feb12e}.st37{fill:#fd7094}.st38{fill:#feb22e}.st39{fill:#fe7d99}.st40{fill:#fc6c92}.st41{fill:#fc6d93}.st42{fill:#fc6890}.st43{fill:#47c5bc}.st44{fill:#fc6790}.st45{fill:#fead2c}.st46{fill:#fb5d8b}.st47{fill:#f8427f}.st48{fill:#fa5387}.st49{fill:#fe7b98}.st50{fill:#fd6f94}.st51{fill:#4bc8bf}.st52{fill:#43c2b8}.st53{fill:#feca3d}.st54{fill:#fb648f}.st55{fill:#4dcbc2}.st56{fill:#fecc3e}.st57{fill:#51cdc5}.st58{fill:#fd7597}.st59{fill:#fe6f43}.st60{fill:#feb42f}.st61{fill:#3ebdb2}.st62{fill:#feba33}.st63{fill:#fc6c93}.st64{fill:#fdc13d}.st65{fill:#fc6a91}.st66{fill:#fec338}.st67{fill:#fc6b92}.st68{fill:#fed040}.st69{fill:#fea728}.st70{fill:#fd7195}.st71{fill:#fcbb3d}.st72{fill:#41bfb5}.st73{fill:#fec93c}.st74{fill:#32b3a6}.st75{fill:#fe7a98}.st76{fill:#feab2b}.st77{fill:#fb668f}.st78{fill:#fea227}.st79{fill:#57d3cc}.st80{fill:#54d1c9}.st81{fill:#40bfb4}.st82{fill:#4cc9c1}.st83{fill:#3cbbb0}.st84{fill:#feaa2b}.st85{fill:#51cec5}.st86{fill:#42c1b7}.st87{fill:#fd663d}.st88{fill:#fb4e2d}.st89{fill:#f94c83}.st90{fill:#fa4528}.st91{fill:#fa5a8a}.st92{fill:#38b8ac}.st93{fill:#fe7998}.st94{fill:#fc9727}.st95{fill:#ef3258}.st96{fill:#fd9c26}.st97{fill:#f8341c}.st98{fill:#38b7ac}.st99{fill:#fc6039}.st100{fill:#feaf2f}.st101{fill:#3ebeb3}.st102{fill:#fbb63d}.st103{fill:#fb9327}.st104{fill:#fc5935}.st105{fill:#fa5588}.st106{fill:#fb5331}.st107{fill:#f82e18}.st108{fill:#f93a20}.st109{fill:#f86979}.st110{fill:#fb5e8c}.st111{fill:#f93f24}.st112{fill:#fab13d}.st113{fill:#3bbbaf}.st114{fill:#f95086}.st115{fill:#ef3357}.st116{fill:#f43562}.st117{fill:#f86978}.st118{fill:#fa6c7e}.st119{fill:#f54168}.st120{fill:#fb9b2b}.st121{fill:#fa5c8b}.st122{fill:#f84175}.st123{fill:#fa6d7f}.st124{fill:#f33360}.st125{fill:#f83e7e}.st126{fill:#f6396b}.st127{fill:#f53566}.st128{fill:#f33b62}.st129{fill:#f23e61}.st130{fill:#f1325c}.st131{fill:#f94d84}.st132{fill:#f94d83}.st133{fill:#f84481}.st134{fill:#f1375c}.st135{fill:#f8467c}.st136{fill:#f1365b}.st137{fill:#f84480}.st138{fill:#fca533}.st139{fill:#f73b70}.st140{fill:#f5486a}.st141{fill:#f95f7e}.st142{fill:#fcb13b}.st143{fill:#f65071}.st144{fill:#f94782}.st145{fill:#fa6786}.st146{fill:#f85b7b}.st147{fill:#fb7083}.st148{fill:#fb648e}.st149{fill:#fc6991}.st150{fill:#fd7791}.st151{fill:#fd768d}.st152{fill:#fc7388}.st153{fill:#febb33}.st154{fill:#febe36}.st155{fill:#fdc63e}.st156{fill:#fc6891}.st157{fill:#fe7a97}.st158{fill:#fd758c}.st159{fill:#fc7288}.st160{fill:#fc9e29}.st161{fill:#fa5487}.st162{fill:#f73f6f}.st163{fill:#f94025}.st164{fill:#fa5989}.st165{fill:#f53f68}.st166{fill:#f94f85}</style><g><path d="M386.2,57.8c0.8,0.7,1.5,1.5,2.3,2.2c0,1.5,0,3,0,4.5c-2.5,4.1-6.8,6-10.5,8.6c-2,1.4-4.1,2.7-5.9,4.3 c-0.9-1-0.4-1.9,0.2-2.7c4-5.4,7.9-10.8,12.1-16.1C384.8,58.2,385.3,57.6,386.2,57.8z" class="st0"/><path d="M42.7,240.8c-9.7-12.6-10.4-29.9-1.7-42.2c10.5-14.9,31.6-16.6,44.8-3.8c1,1,1.5,2.7,3.5,2.4 c0.3,0.5,0.1,1-0.1,1.5c0.8,6.8-3.8,10-8.4,13.6c-10.9,8.5-21.6,17.2-32.4,25.8C46.7,239.5,45.4,241.9,42.7,240.8z" class="st1"/><path d="M222.5,302.4c-9.4-10.6-11.1-25.8-4.2-36.3c8.4-12.6,25.3-14.5,36.4-4.2c1,0.9,1.6,2.4,3.3,2.2 c0.8,2,0.1,4,0.3,5.9c0,1,0,2,0,3c0,1.2,0,2.4-0.5,3.5c-10.4,8.5-21,16.8-31.5,25.3C225.2,302.6,224,303.3,222.5,302.4z" class="st2"/><path d="M110,333.1c-9.4-10.6-11.1-25.8-4.2-36.3c8.4-12.6,25.3-14.5,36.4-4.2c0.9,0.9,1.6,2.4,3.3,2.1 c0.8,1.9,0,4,0.3,5.9c0,1.2,0,2.4-0.1,3.6c0,0.8-0.1,1.5-0.4,2.3c-5.9,5.6-12.5,10.2-18.8,15.4c-4.1,3.4-8.3,6.8-12.6,10 C112.8,332.8,111.7,334.2,110,333.1z" class="st2"/><path d="M293.3,77.2c-4.2-2.9-8.4-5.8-12.6-8.8c-4.5-3.3-4.6-8.7,0.1-11.8c18.4-12.1,33.7-27.3,45.9-45.6 c3.2-4.8,8.3-4.9,11.9-0.4c0.9,1.2,1.6,2.5,2.5,3.7c-14.8,20-29.8,39.9-44.7,59.8C295.6,75.3,294.9,76.7,293.3,77.2z" class="st3"/><path d="M293.3,77.2c5.7-7.8,11.4-15.7,17.2-23.4c9.2-12.3,18.5-24.6,27.6-37c0.8-1.1,1.4-2.4,3-2.5 c2.6,3.5,5.2,6.9,7.8,10.4c-4.4,6.8-9.6,13.1-14.4,19.5c-9.4,12.7-19,25.3-28.5,38c-0.9,1.2-1.6,2.5-3,3.3 C299.8,82.8,296.6,80,293.3,77.2z" class="st4"/><path d="M279,255.1c0-0.8,0.1-1.5,0.1-2.3c1-1.4,2.4-1.6,3.9-1.9c4.1-0.6,8.2-1.2,12.2-1.7c2.5-0.3,3.7-1.6,3.6-4.2 c-0.1-3.5-0.1-7,0-10.5c-0.1-4.1-0.1-8.3,0-12.4c-0.1-3.3-0.1-6.5,0-9.8c-0.1-3-0.1-6.1,0-9.1c-0.2-4.7-0.1-9.4,0-14.2 c-0.1-3.9-0.1-7.9,0-11.8c0-1.5-0.4-3.3,1.7-4c0,15.5,0.1,31,0.1,46.5c0,19-0.1,38-0.1,57c-0.6,0.1-0.9-0.3-1.2-0.7 c-0.4-0.9-0.6-1.9-0.9-2.9c-0.2-1-0.5-1.9-0.9-2.8c-1.5-2.8-3-1.3-4.5-0.1c-8.7,6.9-17.4,13.9-26.1,20.8c-9,7.2-18,14.3-26.9,21.6 c-1.9,1.5-3.8,2.2-6.2,1.5c-0.7-0.2-1.2-0.7-1.6-1.3c-1.1-2.3,0.8-3.2,2.1-4.2c13.9-11.1,27.7-22.3,41.7-33.4 c4.2-3.3,8.4-6.7,12.5-10c3.5-2.8,3.4-3.6-0.5-5.7c-0.5-0.3-1.1-0.5-1.7-0.8c-0.9-0.5-1.7-1-2.6-1.4c-0.7-0.3-1.4-0.6-2.2-0.7 c-0.5-0.1-0.9-0.2-1.4-0.4C279.9,256,279.3,255.7,279,255.1z" class="st5"/><path d="M120.7,179.3c0-5.8,0-11.5,0-17.3c2.2-0.7,3.1,1.1,4.1,2.4c5.7,7.9,11.5,15.9,17.1,23.9c0,7.5,0,15,0,22.5 c-1,0.4-1.2-0.4-1.6-1c-0.6-1.4-1-2.9-1.5-4.4c-0.4-1.5-1.3-2.6-2.1-3.9c-0.6-1.1-1.2-2.3-2.3-3.1c-2.1-1.2-3.3,0.4-4.6,1.4 c-16.5,13.2-32.9,26.3-49.4,39.5c-6.6,5.3-13.3,10.5-19.8,16c-0.7,0.6-1.4,1.1-2.3,1.1c-1,0.1-1.8-0.8-2.8-0.5 c-0.5-0.5-1-1-1.5-1.5c-0.1-0.2-0.2-0.6,0-0.7c11.9-6,20.8-15.9,31.4-23.5c1.5-1.1,2-2.8,2.7-4.4c2.9-2.6,5.8-5.4,8.5-8.2 c0.9-0.9,1.7-1.9,3.1-1.7c1.2,1.4,2.2,0.4,3.2-0.3c8.8-6.7,17.4-13.7,26-20.6c1.6-1.3,1.8-2.4,0.3-4 C125.9,187.4,123.3,183.3,120.7,179.3z" class="st6"/><path d="M167.3,171.8c1.4-4.9,5-7.1,11.7-7.5c10.4-0.8,20.8-2.2,30.8-5.2c5.3-1.6,10.2-3.9,14.4-7.7 c4.8,0.9,9.3-0.7,14-1.1c2.7-0.3,5.4-0.6,8.1-1c1.6-0.2,3.2-0.5,4.5,0.9c-3.1,4.2-6.2,8.4-9.3,12.6c-8.6,2.1-17.5,2.7-26.2,4 c-13.4,2-26.9,3.9-40.3,5.8C172.3,172.9,169.7,173.6,167.3,171.8z" class="st7"/><path d="M234,138.1c2.2-3.5,4.8-6.7,7.5-9.8c17.9-2.1,35.6-5.1,53.4-7.3c1.8-0.2,3.7-0.8,5.3,0.7 c0.3,3.4,0.2,6.9,0,10.3c-2.1,1.9-4.9,1.4-7.4,1.9c-3.1,0.6-6.3,1-9.5,1.4c-1.5,0.2-3,0.3-4.2-0.9c0-2-0.4-3-2.7-1.8 c-2.5,1.3-5.2,2.4-7.8,3.6c-10.2,0.8-20.2,2.9-30.4,4C236.6,140.2,234.4,141,234,138.1z" class="st8"/><path d="M300,121.5c-8.7,1.1-17.4,2.1-26.1,3.3c-9.5,1.3-19.1,2.8-28.6,4.1c-1.3,0.2-2.8,0.5-3.8-0.8 c2.5-3.9,4.8-8,8.2-11.3c15.1-1.8,30-4.3,45.1-6.3c2.8-0.4,4.4-1.5,4.2-4.5c-0.1-1.5-0.2-3,1.1-4.2c1.5,5,0.4,10,0.6,15.1 C299.9,118.5,300.9,120.1,300,121.5z" class="st9"/><path d="M166.6,188.3c0-2.7,0-5.5,0-8.2c1.3-1.4,3.1-1.5,4.8-1.8c19-2.8,38.1-5.4,57.1-8c2.4-0.3,5-1,7.2,0.9 c-2.8,4.2-6.3,7.7-10.6,10.5c-17.7,2.7-35.5,4.9-53.2,7.5C170.1,189.4,168.2,189.7,166.6,188.3z" class="st10"/><path d="M154.6,73.4c7.1,1.1,13.7,3.5,19.6,7.6c0,2.1,1.5,3.4,2.6,4.9c6.9,9.4,13.5,18.9,20.2,28.3 c0.9,1.2,2.4,2.4,1,4.3c-4.6,0.4-9.1-0.1-13.5-1.5c-3.8-3.1-6-7.6-8.8-11.4c-6.6-9-13-18.2-19.6-27.2 C155.1,76.9,153.3,75.5,154.6,73.4z" class="st11"/><path d="M166.5,285.8c0-1.8,0.1-3.5,0.1-5.3c3.3-2.3,7.2-1.9,10.8-2.5c9.9-1.7,8.9,0,9-10.1c0-4.4-0.1-8.7,0-13.1 c-0.1-5.6-0.1-11.2,0-16.7c0.1-5-0.4-10,0.3-15c0.1-0.4,0.4-0.8,0.7-1.1c0.2,0,0.5,0.1,0.7,0.1c0,25,0.1,50,0.1,75 c0,3.7-0.1,7.5-0.1,11.2c-1,0.1-1.1-0.6-1.4-1.3c-0.2-1.1-0.5-2.3-0.8-3.4c-0.2-0.8-0.5-1.5-0.7-2.3c-0.2-0.6-0.4-1.2-0.7-1.7 c-0.4-0.9-0.9-1.7-1.6-2.4c-1.9-1.7-3.2-0.3-4.5,0.8c-13.6,10.9-27.2,21.8-40.8,32.6c-4.7,3.7-9.3,7.5-14,11.2 c-1.1,0.8-2.1,1.8-3.6,1.8c-0.5-0.5-1-1-1.5-1.4c-0.5-1.8,1.1-2.3,2.1-3.1c6.8-5.6,13.7-11,20.6-16.5c1.5-1.2,2.7-2.6,3.2-4.4 c2.5-3.3,5.6-6,9.2-7.9c2.1-0.1,3.7-1.2,5.3-2.4c5.3-4.1,10.5-8.3,15.7-12.5c3.8-3,3.7-3.8-0.7-6.1c-0.9-0.3-1.8-0.7-2.8-1 c-0.7-0.3-1.5-0.5-2.2-0.8c-0.3-0.1-0.6-0.2-0.9-0.3C167.4,286.7,166.8,286.4,166.5,285.8z" class="st12"/><path d="M235.7,171.1c-7.9-0.4-15.5,1.6-23.2,2.5c-9.9,1.2-19.8,2.8-29.7,4.1c-5.4,0.8-10.8,1.5-16.1,2.3 c0-2.8-0.7-5.6,0.7-8.2c9.6,0.1,18.9-2.2,28.3-3.4c10.1-1.2,20.1-2.7,30.1-4.1c4.2-0.6,8.3-1.1,12.5-1.8c1.2-0.2,2.2-0.3,3.2,0.3 C239.9,165.8,238.1,168.7,235.7,171.1z" class="st13"/><path d="M154.6,73.4c2.1,5.8,6.7,10.1,10.1,15.1c6.4,9.6,13.7,18.6,19.9,28.4c-7.9-1.8-14.5-6.1-20.3-11.6 c-1.7-1.6-3.4-3.2-5.1-4.8c-5.2-8.1-11.2-15.6-16.6-23.6c-0.9-1.3-2.5-2.6-1.4-4.7c1.3,0,2.5,0,3.8,0c1.8,0.7,3.7-0.2,5.4,0.5 C151.7,72.7,153.2,72.5,154.6,73.4z" class="st14"/><path d="M166.6,188.3c9-0.2,17.8-2.3,26.8-3.4c9.5-1.2,19-2.7,28.5-4.1c1.2-0.2,2.2,0.3,3.2,0.8 c-10.7,8.7-23,12.7-36.7,12.7c-1.1,0.6-0.1,2.1-1.2,2.6c-6.8,1.6-13.6,3.2-20.6,2.5C166.6,195.8,166.6,192,166.6,188.3z" class="st15"/><path d="M187.5,255c0,6.5,0,12.9,0,19.4c0,2-0.4,3.5-2.6,3.8c-6.1,0.8-12.2,1.6-18.3,2.3c0-7.8,0-15.5,0-23.3 c5.1-2.3,10.6-1.9,15.9-3C184.3,253.9,186,253.8,187.5,255z" class="st16"/><path d="M359.9,36.8c1.4,1,3,1.9,4,3.5c0.6,1.5-0.6,2.3-1.3,3.3c-14.3,19.5-29,38.8-43.3,58.2 c-0.1,0.2-0.4,0.3-0.6,0.4c-1.7-1.6-3.3-3.3-4.5-5.3c-0.5-1.6,0.8-2.5,1.5-3.6c13.1-17.8,26.3-35.5,39.7-53.1 C356.6,38.7,357.5,36.7,359.9,36.8z" class="st17"/><path d="M362.3,246.1c-2.2,4.9-6,8.4-10.2,11.4c-3.7,2.6-7.7,5-11.5,7.5c-1,0.7-2.3,1-2.6,2.5 c-5.6,4.1-11.6,7.7-17.5,11.4c-2.9,1.8-5.6,3.7-7.1,6.9c-0.3,0.5-0.7,1.1-1.5,0.8c0-5,0-10,0.1-15c1.7-2.9,5-3.5,7.7-5 c12.3-6.8,24.7-13.4,37.1-19.9C358.5,245.7,360.3,244.4,362.3,246.1z" class="st1"/><path d="M141.9,188.3c-5.1-3.9-7.7-9.9-11.6-14.8c-2.4-3-4.6-6.1-6.8-9.3c-0.7-1.1-1.6-1.8-2.8-2.3c0-7,0-14,0-21 c1.9-1.1,2.7,0.5,3.5,1.7c6,8.1,11.8,16.4,17.6,24.6C141.9,174.3,141.9,181.3,141.9,188.3z" class="st18"/><path d="M141,209.3c0,0.6,0.2,1.2,0.8,1.5c-0.1,1.8,0.9,3.6,0.1,5.5c-2-0.2-3.2,1.1-4.6,2.2 c-18.6,15.2-37.5,30.1-56.3,45.1c-1.5,1.2-2.6,2.7-4.3,3.6c-0.8,0.2-1.4-0.1-2.1-0.4c-1.1-0.8-2.7-1.1-3.1-2.8 c0.1-1.5,1.2-2.4,2.3-3.2c21-16.7,41.8-33.7,62.8-50.4C138,209.4,139.2,208,141,209.3z" class="st14"/><path d="M51,152.4c-5.6-5.1-11.4-10-17.6-14.4c-3.2-2.3-3.3-5.7-0.3-7.8c6.4-4.4,12.2-9.4,17.9-14.6 c1.7,1.1,1.8,2.9,1.8,4.6c0.1,9.2,0.1,18.3,0,27.5C52.9,149.5,52.7,151.3,51,152.4z" class="st19"/><path d="M300.1,102c0,1.5-0.3,3,0,4.5c0.7,3.9-1.4,4.9-4.7,5.3c-13.7,1.9-27.4,3.9-41.1,5.8c-1.5,0.2-3.2,0.8-4.6-0.7 c3.3-4.6,7.5-8,12-11.2c1.8,0.7,3.7,0.3,5.5,0.1c8.9-1.2,17.7-2.5,26.6-3.8C295.9,101.7,298,101,300.1,102L300.1,102z" class="st20"/><path d="M303,85.5c3.4-6.2,8.2-11.5,12.4-17.2c10-13.6,20.3-27.1,30.4-40.6c0.9-1.2,1.8-2.4,3.2-3.1 c1.3,1.1,2.6,2.3,3.4,3.9c-0.3,1.4-1.2,2.5-2,3.6c-13.4,17.9-27,35.7-40.1,53.7c-0.9,1.3-1.6,2.9-3.4,3.3 C305.3,88.2,304.1,87,303,85.5z" class="st21"/><path d="M42.7,240.8c5.1-2.4,9-6.5,13.3-9.9c9.4-7.3,18.5-15,27.9-22.2c2.7-2.1,4.5-4,4-7.6c-0.2-1-0.4-2.3,0.7-3.1 c1.5,1.7,0.9,3.8,1,5.8c0.1,1.5,0,3,0,4.5c0,1.6,0.1,3.2-0.3,4.8c-0.7,2-2.3,3.3-3.8,4.5c-12.4,10.2-24.9,20.2-37.6,30.1 C45.7,245.8,44,243.4,42.7,240.8z" class="st22"/><path d="M306.8,89.2c14.7-19.8,29.4-39.6,44.1-59.4c0.4-0.5,0.9-0.8,1.4-1.2c1.2,1.5,3,2.6,3.8,4.5 c-5.4,8.1-11.6,15.6-17.3,23.4c-8.2,11.1-16.6,22.2-24.9,33.2c-0.9,1.3-1.6,2.9-3.4,3.3C309,92,307.8,90.7,306.8,89.2z" class="st23"/><path d="M300,121.5c0.2-1.5-0.5-3.1,0.6-4.5c0,18.8,0,37.5,0,56.3c-1.4,5.2-0.3,10.5-0.6,15.7 c-0.5,0.9-1.3,1.5-2.3,1.6c-5.4,0.7-10.7,1.6-16.2,2.1c-0.9,0.1-1.7-0.1-2.4-0.7c0-5.7,0-11.5,0-17.2c2.8-2.4,6.3-1.9,9.6-2.4 c11.7-1.9,10.1,0.3,10.2-11.8c0-0.9,0-1.7,0-2.6c-0.1-4.4-0.1-8.8,0-13.2c0.3-4.2-1.1-8.6,1.1-12.7C300,128.5,300,125,300,121.5z" class="st24"/><path d="M234,138.1c2.3,3.1,5.1,0.6,7.5,0.4c7.8-0.7,15.6-2.3,23.4-3.4c1.3-0.2,2.8-0.5,3.7,0.9 c-6.5,4-12.5,8.7-17.9,14.1c-7.5,0.1-14.9,1.7-22.3,2.7c-1.6,0.2-3.6,1.2-4.2-1.5C227.1,146.6,230.6,142.4,234,138.1z" class="st25"/><path d="M310.6,93c14.3-19.2,28.6-38.4,43-57.5c0.7-0.9,1.1-2.3,2.6-2.4c1.3,1.2,3.1,1.9,3.7,3.8 c-5.8,5.2-9.7,11.9-14.4,18c-10.6,13.9-20.9,28.1-31.4,42.1C313,95.6,311.8,94.3,310.6,93z" class="st26"/><path d="M120.7,123c0-6.5,0-13,0-19.5c2-0.5,2.9,1.1,3.8,2.3c5.9,7.9,11.5,16,17.3,24c0,6.3,0,12.5,0,18.8 c-2.2,0.6-3.1-1.2-4-2.5c-5.5-7.4-10.6-15-16.3-22.3C121.3,123.5,121,123.3,120.7,123z" class="st27"/><path d="M70.6,171.1c-4.3,2.1-5.9-1-7.6-3.9c-0.7-1.1-0.6-2.4-0.6-3.6c0.2-19.6,0.2-39.1,0-58.7c0-1.2,0-2.5,0.6-3.6 c1.6-2.6,2.8-5.8,6.9-4.5c0.4,1.3,0.4,2.7,0.4,4.1c0,20.7,0,41.4,0,62.1C70.2,165.6,70.4,168.4,70.6,171.1z" class="st28"/><path d="M47.9,247.8c1.4-3.3,4.6-4.7,7.2-6.8c11.1-9.1,22.6-17.7,33.4-27.2c0.5,0.4,0.8,1,0.9,1.7 c0.3,2.1,0.1,4.2,0.1,6.3c0,1-0.1,2-0.5,2.9c-8.5,7.7-17.7,14.5-26.7,21.7c-3.1,2.4-5.5,5.9-9.8,6.5 C50.7,251.4,49,249.9,47.9,247.8z" class="st29"/><path d="M147.2,100.6c-2.9,2.9-5.8,5.8-5.3,10.4c-2.5,1.1-3.3-1-4.3-2.4c-5.3-7.2-10.3-14.6-15.7-21.7 c-0.4-0.5-0.7-1-1.2-1.4c-0.4-7.1,1.3-10.2,6.8-12.6C134.3,82,141.2,91,147.2,100.6z" class="st30"/><path d="M120.7,123c4.3,1.1,5.2,5.4,7.5,8.3c3.9,4.8,7.3,9.9,10.9,15c0.8,1.1,1.6,1.8,2.8,2.3c0,6.2,0,12.5,0,18.7 c-5.1-3.9-7.6-9.7-11.4-14.5c-2.6-3.3-5-6.8-7.4-10.2c-0.6-0.9-1.3-1.5-2.4-1.5C120.7,135,120.7,129,120.7,123z" class="st31"/><path d="M120.7,85.5c2.9,0.2,3.6,2.9,4.9,4.7c4.6,6,8.8,12.3,13.1,18.5c0.8,1.2,1.5,2.3,3.1,2.3c0,6.3,0,12.5,0,18.8 c-4.6-3.2-6.7-8.4-10.1-12.6c-3.7-4.5-6.1-10.2-11-13.7C120.7,97.5,120.7,91.5,120.7,85.5z" class="st32"/><path d="M147.2,100.6c-3.8-3.2-5.9-7.6-8.8-11.4c-3.6-4.6-6.9-9.4-10.3-14.2c-0.4-0.6-0.3-1.4-0.5-2.1 c4.4-1.7,9-0.6,13.5-0.7c2.4,6.2,7.4,10.7,10.8,16.3c2.4,4,6.4,7,7.2,11.9C155,98.5,151.1,98.8,147.2,100.6z" class="st33"/><path d="M312,286.5c1.7-3.7,4.5-6.3,8-8.4c5-3,9.8-6.3,14.7-9.4c1-0.6,1.9-1.7,3.3-1.3c2.1,1.1,4.1,2.2,6.2,3.2 c0.4,0.7,0.2,1.3-0.3,1.7c-3.7,2.8-6.4,6.5-9.9,9.5c-4.6,4-9.4,8-13.6,12.6c-1.5,1.6-2.6,3.8-5.4,3.3 C311.7,294.7,311.8,290.6,312,286.5z" class="st34"/><path d="M286.5,258c0.4,0.1,0.8,0.1,1.1,0.2c6.2,2.6,6.4,4.2,1.3,8.2c-18.1,14.3-36.1,28.7-54.2,43.1 c-1.1,0.8-2.2,1.7-2.2,3.3c-0.8-0.7-1.5-1.4-2.3-2.1c-1.1-2,0-3.4,1.4-4.5c8.3-6.6,16.2-13.7,25.1-19.6c5.4-4.1,10.1-8.8,14.7-13.8 C276,267.5,280.7,262.2,286.5,258z" class="st35"/><path d="M63,101.2c0.9,3.7,0.8,7.4,0.8,11.1c0,14.7,0,29.4,0,44.1c0,3.6,0.2,7.2-0.7,10.7c-2-2.7-4-5.4-6-8.1 c-0.6-1-0.8-2.1-0.7-3.2c0.5-14.4,0.5-28.9,0-43.3c0-1.2,0.3-2.2,0.7-3.3C59,106.6,61,103.9,63,101.2z" class="st12"/><path d="M198,118.4c-0.4-3.3-2.9-5.3-4.7-7.8c-6.1-8.7-12.4-17.3-18.6-25.9c-0.7-1-2.6-2.1-0.6-3.7 c7.1,4.8,13.3,10.5,19.2,16.6c3.3,3.3,7.3,5.5,11.5,7.4c0.1,3.2,2.7,5.1,4.1,7.7c0.6,1.1,2.1,2,1,3.6 C206.2,117.9,202.2,118.5,198,118.4z" class="st36"/><path d="M187.5,255c-5.7,0.1-11.2,1.3-16.8,2.1c-1.3,0.2-2.7,0.1-4.1,0.1c0-5.5,0-11,0-16.5c0.8-0.9,1.8-1.4,2.9-1.6 c5.2-0.7,10.3-1.6,15.5-2.1c0.9-0.1,1.7,0,2.5,0.6C187.5,243.5,187.5,249.3,187.5,255z" class="st37"/><path d="M76.5,267c4.3-5.4,10.3-9,15.5-13.3c11.9-9.8,24-19.3,36-28.9c3.8-3,7.6-6,11.3-9.1c1.2-0.9,2.1-1.7,2.5,0.5 c-0.1,1.4-0.1,2.8-0.2,4.3c-15.4,12.7-31.1,25-46.7,37.5c-3.2,2.6-6.5,5-9,8.4C83,268.1,79.8,269,76.5,267z" class="st38"/><path d="M257.3,287.3c-6.3,3.7-11.5,9-17.4,13.3c-2.2,1.6-4.3,3.3-6.4,5.1c-1.6,1.3-3.5,2.6-3.3,5.1 c-2.9-2.4-5.7-5-7.7-8.3c4.9-1.4,7.9-5.4,11.7-8.3c6.8-5.2,13.3-10.7,20-16c0.9-0.7,1.9-1.2,3.1-1.3c0.1,0.1,0.3,0.3,0.4,0.4 c0.6,1.1,0.5,2.3,0.6,3.5c0.1,1,0,2,0,3C258.3,285.1,258,286.2,257.3,287.3z" class="st39"/><path d="M110,333.1c5.2-2.3,8.9-6.6,13.3-9.8c7.3-5.3,13.8-11.7,21.4-16.5c0.3,0.3,0.5,0.6,0.7,1 c0.3,1.2,0.3,2.4,0.3,3.5c0,1,0,1.9,0,2.9c0,1-0.1,1.9-0.5,2.8c-6,6.1-13.1,10.9-19.6,16.4c-2.2,1.8-4.5,3.5-6.6,5.4 c-0.8,0.7-1.6,1.7-2.9,1.1C113.8,337.9,111.5,335.9,110,333.1z" class="st39"/><path d="M187.5,237.8c-7,1-13.9,2-20.9,3c0-5.5,0-11,0-16.5c5.1-2.3,10.6-1.9,16-3c1.7-0.3,3.5-0.6,4.9,0.8 C187.5,227.3,187.5,232.5,187.5,237.8z" class="st40"/><path d="M70.6,171.1c-1.8-0.8-1.6-2.3-1.6-3.8c0-22.5,0-45,0-67.5c0-1.1-0.3-2.3,0.9-3.1c3.1,0.9,4,3.5,5.2,6.1 c-0.5,4.6-0.3,9.2-0.3,13.8c0.1,16.4-0.2,32.8,0.1,49.2C73.9,167.9,72.8,169.9,70.6,171.1z" class="st41"/><path d="M74.9,165.7c-1.4-1.4-1.4-3.1-1.3-4.9c0-17.9,0-35.9,0-53.8c0-1.6-0.4-3.3,1.5-4.2c2.2,1.9,3.8,4.3,5.4,6.7 c-1,16.5-0.5,33-0.3,49.6C78.4,161.3,76.6,163.5,74.9,165.7z" class="st42"/><path d="M300,234.8c0,4-0.1,8,0,12c0,1.9-0.4,2.9-2.6,3.1c-6.1,0.8-12.2,1.9-18.3,2.9c0-5.2,0-10.5,0-15.7 c4.7-2.2,9.9-1.7,14.8-2.6C296,234,298.1,233.2,300,234.8z" class="st28"/><path d="M372.1,47.3c1.1,0.5,2.3,1.2,3,2.3c-14.3,19.1-28.6,38.2-42.9,57.2c-1.7,2.3-2.8,5-5.2,6.8 c-1.3-1.1-2.1-2.6-2.9-4.1c-0.4-1.2,0.4-1.9,1-2.7c14.4-18.9,28.1-38.3,42.7-57C368.8,48.4,369.5,46.2,372.1,47.3z" class="st43"/><path d="M279.2,192c7-1,13.9-2,20.9-3c0,4.8,0,9.5,0,14.3c-0.4,0.3,0.2,0.1-0.3,0.2c-6.7,2.4-13.5,3.7-20.6,2.8 C279.2,201.5,279.2,196.8,279.2,192z" class="st44"/><path d="M86.3,265.5c1.1-3.9,4.7-5.4,7.4-7.6c14.8-12.1,29.8-23.9,44.7-35.9c1-0.8,2.1-1.4,3.3-1.5 c-0.9,3-0.2,6.4-2,9.2c-1.5,0.2-2.7,1.1-3.9,2.1c-6.5,5.3-12.9,10.5-19.5,15.6c-3.4,2.6-7.5,4.4-10.7,7.3c-1.7,1.6-3.8,2.4-5.6,3.8 c-4.1,2.6-8.2,5.3-12.7,7.3C86.9,265.9,86.6,265.8,86.3,265.5z" class="st45"/><path d="M300,158.3c0,3.5-0.2,6.9,0.1,10.4c0.2,2.5-1.1,3.4-3.1,3.7c-5.9,0.9-11.9,1.6-17.9,2.4c0-4.7,0-9.5,0-14.2 c4.9-1.9,10.1-1.7,15.2-2.7C296.2,157.5,298.2,156.8,300,158.3z" class="st46"/><path d="M187.5,222c-5.6,0.1-11,1.2-16.4,2.1c-1.5,0.2-3,0.1-4.4,0.2c0-4.5,0-9,0-13.5c5-2.3,10.6-2,15.9-3 c1.8-0.4,3.7-0.7,5.2,0.9C187.8,213.1,188.3,217.6,187.5,222L187.5,222z" class="st42"/><path d="M300,158.3c-7,0.3-13.8,2.5-20.9,2.2c0-4.3,0-8.5,0-12.8c6.7-3.1,13.6-4,20.9-3C300,149.3,300,153.8,300,158.3 z" class="st7"/><path d="M363.6,330.8c-2.3,5.8-6.2,10.2-11.3,13.6c-11.4,7.6-22.9,14.9-34.5,22.2c-2.3,1.5-4.4,1.8-5.7-1.3 c4.5-4.5,10.1-7.6,15.3-11.3c10-7.2,20.2-14.2,30.2-21.4C359.4,331.4,361,329.3,363.6,330.8z" class="st1"/><path d="M312.1,267c0-1.8,0-3.5,0-5.3c7.2-4.5,14.9-8.1,22.3-12.2c9.1-5.1,18.5-9.8,27.6-14.9 c1.6-0.9,2.7-2.5,4.6-2.9c0,2.6-0.4,5.1-1.4,7.5c-1.2,2-3.3,3-5.3,4c-13.8,7.2-27.4,14.5-41.1,21.9 C316.9,266.3,314.9,268.5,312.1,267z" class="st29"/><path d="M80.2,159c-1.5-0.8-1.4-2.2-1.4-3.6c0-14.1,0-28.1,0-42.2c0-1.5-0.1-3,1.7-3.8c1.6,1.8,3.3,3.6,4.9,5.4 c1,4.4,0.6,8.9,0.6,13.3c-0.1,8.3,0.5,16.6-0.4,24.9C83.8,155,82,157,80.2,159z" class="st15"/><path d="M300.1,102c-8.3,1.3-16.6,2.5-24.9,3.8c-2.9,0.4-5.8,1.1-8.8,1.3c-1.6,0.1-3.8,1.5-4.7-1.4 c7.7-6.1,16.7-9.3,26-11.7C293.2,92.6,297.4,95.5,300.1,102z" class="st47"/><path d="M300,144.8c-7,1-13.9,2-20.9,3c0-4.5,0-9,0-13.5c5.4,0,10.7-1.3,16.1-2c1.6-0.2,3.2-0.2,4.8-0.2 C300,136.3,300,140.5,300,144.8z" class="st48"/><path d="M56.9,109.3c1.4,16.6,1.3,33.2,0.1,49.8c-2-2.2-4-4.5-6-6.7c1.1-3,0.8-6.1,0.8-9.2c0-7.2,0-14.4,0-21.6 c0-2-0.1-4-0.7-5.9C53,113.5,55,111.4,56.9,109.3z" class="st49"/><path d="M300,234.8c-7,0.4-13.8,2.3-20.9,2.2c0-4,0-8,0-12c6.7-3.1,13.6-4,20.9-3C300,226.3,300,230.5,300,234.8z" class="st50"/><path d="M234.1,314.2c6-0.6,9.4-5.5,13.6-8.8c14.6-11.4,29-23,43.4-34.6c0.7-0.5,1.4-1.1,2-1.7c3-2.6,3.5-2.6,5.4,1 c-7.7,6.8-15.9,12.9-23.8,19.3c-10.1,8.2-20.2,16.2-30.4,24.3c-1.4,1.2-2.8,2.5-4.7,2.9c-0.9,0.1-1.7-0.1-2.6,0 C236,315.8,235.1,315,234.1,314.2z" class="st41"/><path d="M372.1,47.3c-1.3,0-2,0.8-2.7,1.7c-14.1,18.9-28.2,37.8-42.3,56.7c-1,1.3-2,2.5-3,3.8c-0.5-0.7-1-1.5-1.5-2.2 c-1-2.2,0.6-3.5,1.7-4.9c12.5-16.7,25-33.4,37.5-50.1c1.4-1.9,2.6-4,4.2-5.8c0.9-1,1.6-2.4,3.3-1.6 C370.5,45.4,371.3,46.3,372.1,47.3z" class="st51"/><path d="M326.9,113.5c2.3-5.8,6.7-10.1,10.2-15c11.7-15.8,23.6-31.4,35.4-47.1c0.7-0.9,1.2-1.9,2.5-1.9 c0.5,0.4,1.1,0.8,1.6,1.2c0.6,1.8-0.7,2.8-1.6,3.9c-14.4,19.3-28.7,38.8-43.3,58c-0.9,1.2-1.6,2.6-3.3,2.9 C327.6,115.2,327.2,114.4,326.9,113.5z" class="st52"/><path d="M120.7,179.3c4.4,3.4,6.5,8.7,10.4,12.5c1.6,1.5-0.3,2.7-1.4,3.6c-6.7,5.4-13.6,10.8-20.4,16.2 c-2.4,1.9-4.9,3.8-7.4,5.6c-1.3,0.9-2.4,1-2.2-1.2c0.8-3.9,4.1-6,6.7-8.5c5.3-4.9,10-10.4,14.6-15.9c1.2-1.4,1.5-2.6-0.5-3.5 c-0.3-0.2-0.5-0.5-0.7-0.8C121.2,184.8,120.1,182,120.7,179.3z" class="st53"/><path d="M187.5,208.5c-5.6,0.1-11,1.2-16.4,2.1c-1.5,0.2-3,0.1-4.4,0.2c0-3.8,0-7.5,0-11.3c7-1,13.9-2,20.9-3 C188.1,200.5,188.1,204.5,187.5,208.5z" class="st54"/><path d="M369.2,45c-3.7,1.6-4.9,5.5-7.1,8.3C349.3,70.1,336.7,87,324,103.9c-0.8,1-1.4,2.1-1.5,3.4 c-0.8-1-1.5-2-2.3-2.9c-0.5-1.7,0.8-2.8,1.6-3.9c13.6-18.2,27.1-36.6,40.9-54.7c1-1.3,1.7-3.2,4-2.8C367.8,43.3,368.6,44,369.2,45z" class="st55"/><path d="M366.7,316.5c0.4,1.8-1.1,3.4-0.6,5.3c-7.5,6-15.6,11.2-23.4,16.8c-8.1,5.8-16.3,11.5-24.5,17.3 c-1.8,1.3-3.3,3.6-6.1,2.6c0-1.3,0-2.5,0-3.8c0.6-1.4,1.6-2.4,2.9-3.3c16-11.1,31.8-22.4,47.8-33.6 C363.9,317.1,364.9,315.5,366.7,316.5z" class="st56"/><path d="M366.7,42.8c-4.4,3.8-7.2,8.8-10.7,13.4c-12,16-23.9,32.1-35.8,48.2c-0.8-0.5-1.3-1.2-1.6-2.1 c1.6-5,5.5-8.5,8.5-12.6c12.1-16.5,24.5-32.9,36.7-49.3C364.8,41.2,365.8,42,366.7,42.8z" class="st57"/><path d="M24,58.5c1.5-2,3-4.1,4.5-6.1c1.7,1.1,1.9,2.9,1.9,4.6c0.1,13.7,0.1,27.4,0,41.1c0,1.7-0.2,3.5-1.9,4.6 c-1.5-2.2-3.1-4.3-4.6-6.5c-0.9-1.8-1.2-3.8-1.1-5.8c0-8.7,0-17.4,0-26.2C22.8,62.3,23.1,60.3,24,58.5z" class="st58"/><path d="M365.3,283.6c2.1,3,1.5,6.4,1.4,9.7c-0.6,3.3-2.4,5.7-5.1,7.5c-5.6,3.7-11.2,7.4-17,10.8 c-0.8,0.5-1.7,1.1-2.8,0.5c-1.3-0.7-2.5-1.5-3.8-2.2c0.9-2.4,3-3.6,4.7-5.2C350.3,297.7,358.1,291,365.3,283.6z" class="st59"/><path d="M313.5,340.5c0.1-2,1-3.8,2.1-5.4c7.6-4.3,14.3-9.8,21.5-14.7c8.8-6.1,17.5-12.3,26.2-18.5 c1-0.7,2-1.6,3.4-1.1c0,1.5,0,3,0,4.5c-0.8,1-1.6,1.9-2.6,2.6c-11.6,7.8-22.8,16.1-34.3,24.1c-3.6,2.5-7.1,5.1-10.7,7.6 c-1.3,0.9-2.7,1.9-4.2,2.4C313.5,342.4,312.8,341.9,313.5,340.5z" class="st60"/><path d="M19.6,91.4c-3.9-3.6-7.9-7.2-12.2-10.3c-3.9-2.7-3.8-4.7,0.1-7.4c4.4-2.9,8.1-6.5,12.1-10 c1,0.9,1.2,2.2,1.2,3.4c0.1,6.9,0.1,13.9,0,20.8C20.7,89.2,20.5,90.4,19.6,91.4z" class="st19"/><path d="M380.1,53.4c0.5,0.9,2,0.4,2.4,1.5c-10.2,13.5-20,27.2-30.5,40.4c-1.5,1.9-3.3,3.6-4,6 c-3.3,4.7-6.4,9.4-9.9,14c-1.4,1.8-3.5,2.7-6,1.9c-0.1-1.8,0.9-3,1.9-4.4c14.3-19,28.3-38.1,42.6-57.1 C377.5,54.6,378.2,53.2,380.1,53.4z" class="st61"/><path d="M313.5,340.5c0.2,1.7,1,0.9,1.7,0.4c7.7-5.2,15.4-10.4,23-15.7c8.2-5.7,16.3-11.6,24.5-17.3 c1.3-0.9,2.2-2.5,4-2.5c0,1.3,0,2.5,0,3.8c-0.4,0.9-1.1,1.6-2,2.2c-16.2,11.4-32.4,22.8-48.5,34.2c-1,0.7-2.1,1.7-3.3,1 c-0.8-0.5-0.4-1.6-0.1-2.4C312.7,342.8,312.6,341.5,313.5,340.5z" class="st62"/><path d="M366.7,316.5c-6.4,4.4-12.9,8.7-19.3,13.2c-10.6,7.4-21.1,14.9-31.6,22.4c-1.2,0.9-2.4,1.8-3.6,2.6 c0-1.5,0-3,0-4.5c4-3.9,8.9-6.8,13.4-10c12.2-8.6,24.4-17.2,36.6-25.9c1.3-0.9,2.5-2.7,4.5-1.6C366.7,314,366.7,315.3,366.7,316.5z" class="st18"/><path d="M312.1,267c4.1-0.7,7.4-3.3,11-5.2c14.1-7.4,28.1-15,42.2-22.5c-0.4,2.5-1.3,4.8-2.9,6.8 c-3.8-0.3-6.6,2.1-9.6,3.7c-13.6,7.2-27.1,14.5-40.7,21.8C312.1,270,312.1,268.5,312.1,267z" class="st22"/><path d="M120,343.6c17.8-14.2,35.6-28.4,53.4-42.6c1.8-1.5,3.6-3,5.4-4.6c1.9-1.7,3.7-2.2,5,0.6 c-12.8,10.2-25.6,20.3-38.3,30.6c-7.1,5.7-14.1,11.5-21.3,17.1c-0.8,0.4-1.7-0.1-2.6,0.2C121.1,344.5,120.5,344,120,343.6z" class="st16"/><path d="M300,222c-7,1-13.9,2-20.9,3c0-3.2,0-6.5,0-9.7c0.9-1,2.1-1.4,3.3-1.5c4.9-0.7,9.8-1.5,14.7-2.1 c1-0.1,2-0.1,2.8,0.6C300,215.5,300,218.8,300,222z" class="st63"/><path d="M366.7,312.8c-6.2,3.3-11.5,7.8-17.2,11.7c-12,8.3-23.8,16.7-35.7,25.1c-0.5,0.3-1.1,0.5-1.7,0.7 c-0.1-2.1-0.5-4.2,0.6-6.2c-0.1,2.1,0.7,2.4,2.4,1.2c8.8-6.3,17.6-12.6,26.4-18.8c8.3-5.9,16.8-11.6,25.2-17.4 C366.7,310.3,366.7,311.6,366.7,312.8z" class="st27"/><path d="M313.5,253.5c-0.1-2.1,1.1-3.8,2.1-5.4c3.5-0.4,6.3-2.4,9.2-4c12.5-6.8,25.1-13.5,37.6-20.1 c1.3-0.7,2.5-1.7,4.2-1.1c0,1.2,0,2.5,0,3.7c-0.8,1.1-1.8,2-3.1,2.6c-15.1,7.8-30,16-45,24c-1.3,0.7-2.6,1.6-4.2,1.5 C313.7,254.6,313.2,254.4,313.5,253.5z" class="st32"/><path d="M88.5,222c0-2.3,0-4.5,0-6.8c7.7-10.1,17.3-18.4,25.7-27.8c0.3-0.4,0.9-0.5,1.3-0.8c1.5,0.2,2.9,0.5,4.4,0.7 c0,0,0.1,0.2,0.1,0.2c0.9,1.5-0.2,2.4-1,3.2c-9.1,9.9-17.6,20.4-27.4,29.7C90.8,221.3,90.1,222.5,88.5,222z" class="st64"/><path d="M366.6,231.8c-1.2,3.2-4.4,3.9-6.9,5.2c-14.3,7.9-28.7,15.5-43.1,23.2c-1.4,0.8-2.8,1.7-4.5,1.6 c-0.1-1.6-0.3-3.2,0.5-4.7c5.9-1.6,10.8-5.2,16-8c11.5-6.2,23.1-12.2,34.6-18.6c1.1-0.6,2.2-1.3,3.4-0.3 C366.7,230.8,366.7,231.3,366.6,231.8z" class="st6"/><path d="M300,212.3c-7,1-13.9,2-20.9,3c0-3,0-6,0-9c7-1,13.9-2,20.9-3C300,206.3,300,209.3,300,212.3z" class="st65"/><path d="M366.7,230.3c-4.3,0.9-7.8,3.7-11.5,5.7c-5.1,2.7-10.3,5.3-15.4,8.2c-7.6,4.4-15.3,8.5-23.1,12.6 c-1.1,0.6-2.5,2-4,0.4c0.1-1.3-0.1-2.6,0.8-3.6c3.4,0.9,5.7-1.7,8.2-3c13.2-6.9,26.3-14,39.4-21.1c1.8-1,3.7-1.9,5.6-2.9 C366.7,227.8,366.7,229,366.7,230.3z" class="st66"/><path d="M36.7,98.3c-1.3,1.9-2.1,4.2-4.4,5.4c-1.3-1.3-1.2-2.9-1.2-4.5c0-14.3-0.1-28.6,0-42.8c0-1.7-0.5-3.8,2-4.5 c1.9,1.7,3.2,3.9,4.5,6c-0.8,11.3-0.2,22.6-0.4,33.8C37.2,93.8,37.1,96.1,36.7,98.3z" class="st67"/><path d="M366.7,222.8c-15.6,8.3-31.2,16.6-46.8,24.9c-1.2,0.7-2.6,2.4-4.2,0.3c0.5-1.6,1.2-3,2.4-4.2 c14.7-7.5,29.2-15.5,43.8-23.3c1.5-0.8,2.9-2,4.8-1.5C366.7,220.3,366.7,221.6,366.7,222.8z" class="st14"/><path d="M312.1,358.5c6.9-3.4,12.7-8.6,19.1-12.9c10.9-7.4,21.4-15.2,32.2-22.8c0.8-0.5,1.8-0.7,2.8-1 c0,1.3,0.2,2.6-0.7,3.8c-7.2,6-15.1,11-22.6,16.4c-8.3,6-16.6,11.8-25,17.6c-1.6,1.1-3.2,3-5.6,1.9 C312.1,360.5,312.1,359.5,312.1,358.5z" class="st68"/><path d="M312.1,361.5c4.7-1.2,8.1-4.8,12-7.3c7.2-4.8,14.1-10,21.2-15c5.4-3.9,10.8-7.8,16.3-11.6 c1.2-0.8,2.2-2.1,3.9-2c-0.1,1.9-0.8,3.6-1.8,5.2c-4.8,0.8-7.9,4.5-11.6,7c-12.9,8.9-25.6,18-38.4,27c-0.4,0.3-0.9,0.3-1.4,0.5 C312.2,364,312.1,362.8,312.1,361.5z" class="st22"/><path d="M366.7,219.1c-15,8-30,16-45,24c-1,0.6-2.1,2.1-3.6,0.8c1.8-3.2,4.3-5.8,7.4-7.7c5.8-2,10.8-5.6,16.2-8.4 c5.4-2.8,10.8-5.7,16.1-8.6c3-1.6,5.9-3.1,8.3-5.5C367.4,215.3,366.7,217.2,366.7,219.1z" class="st36"/><path d="M24.8,345.1c-4.1-3.1-4.1-4.6,0.1-7.5c7.7-5.3,14-11.9,19.3-19.6c2.9-4.3,5.4-4,7.6,0.8 c-8.2,8.6-16.7,16.8-25.1,25.2C26.1,344.5,25.5,345,24.8,345.1z" class="st23"/><path d="M105,254.3c2.8-2.5,5.8-4.7,9.3-6.4c3.7-1.9,6.6-5.2,9.9-7.8c4.1-3.4,8.2-6.7,12.4-10c0.8-0.6,2-1.9,3.1-0.3 c-0.9,3.5-2.4,6.8-4.6,9.7c-2.8,0.9-4.8,3-6.9,4.9c-5.3,4.9-12,7-18.3,9.9C108.5,255,106.7,255.7,105,254.3z" class="st69"/><path d="M33.1,51.7c-1.3,1-0.8,2.5-0.8,3.8c0,16,0,32.1,0,48.1c-1.6,1.2-2.7,0.4-3.8-0.9c0.6-1.9,0.8-3.9,0.8-5.9 c0-12.7,0-25.5,0-38.2c0-2.1-0.2-4.2-0.8-6.3C29.8,50.5,31.4,50.4,33.1,51.7z" class="st70"/><path d="M115.5,186.7c-2,3.7-5.2,6.3-8.1,9.2c-5.7,5.7-11.5,11.4-16.4,17.9c-0.6,0.8-1.4,1.5-2.5,1.4c0-0.5,0-1,0-1.5 c0-1.8,0-3.5,0-5.3c5.8-5.9,11.1-12.4,17.2-18.1c1.2-1.1,2.4-2.1,3-3.7C111,185.9,113.3,185.9,115.5,186.7z" class="st71"/><path d="M328.5,115.6c16-21.6,32.1-43.2,48.1-64.8c0.8,0.6,1.5,1.1,2.3,1.7c-8.3,11.6-17.1,22.9-25.6,34.4 c-7.4,10.1-14.9,20.2-22.6,30.1C329.8,116.8,329.1,116.4,328.5,115.6z" class="st72"/><path d="M52.5,252.8c11.2-8.9,22.5-17.7,33.7-26.6c0.7-0.6,1.3-1.1,2.3-1.1c0.2,0.2,0.3,0.3,0.2,0.5 c-0.1,0.2-0.2,0.3-0.2,0.3c0.1,4.8-4.2,6.2-7,8.6c-7,5.9-14.4,11.5-21.5,17.3c-1.8,1.5-3.8,2.4-6.1,2.7 C53.5,253.8,53,253.3,52.5,252.8z" class="st73"/><path d="M366.7,300.8c-9.4,6.6-18.9,13.2-28.3,19.8c-7,4.9-13.9,9.9-20.9,14.8c-0.8,0.6-1.4,0.4-1.8-0.4 c0.4-1.7,1.3-3,2.4-4.2c11.7-8.1,23.3-16.5,35-24.6c3.7-2.5,7.3-5.1,11-7.7c0.8-0.6,1.5-1.3,2.7-0.8 C366.7,298.8,366.7,299.8,366.7,300.8z" class="st45"/><path d="M71.9,338.3c2.9,2.5,3,4.1,0.1,6.1c-8.3,5.7-15.3,12.8-20.9,21.2c-1.9,2.9-3.7,2.7-6.1-0.2 c-0.5-2,1.2-2.8,2.3-3.9c7.2-7.5,14.9-14.6,21.9-22.3C69.9,338.5,70.6,337.4,71.9,338.3z" class="st74"/><path d="M19.6,91.4c0-9.2,0-18.4-0.1-27.6c1.5-1.7,3-3.5,4.5-5.2c0,12.6-0.1,25.2-0.1,37.7C22.5,94.6,21,93,19.6,91.4 z" class="st75"/><path d="M366.1,213.7c-0.2,2-1.6,3.1-3.1,3.9c-11.5,6.2-23,12.3-34.6,18.4c-0.8,0.4-1.8,1.7-2.9,0.2 c6.2-4.1,12.4-8.1,18.6-12.2c5.5-3.6,11-7.2,16.6-10.7C362.5,212.1,364.4,211.1,366.1,213.7z" class="st76"/><path d="M36.7,98.3c-0.9-0.8-0.7-1.8-0.7-2.8c0-11.5,0-23,0-34.4c0-1.3-0.5-2.9,1.5-3.2c1,1.2,2,2.5,3,3.7 c0.3,10.8,0.7,21.5-0.3,32.2C39.1,95.2,37.9,96.7,36.7,98.3z" class="st77"/><path d="M105,254.3c4.5,0.2,7.9-2.7,11.9-4.1c6-2,10.3-6.5,15.2-10.1c0.7-0.5,1.6-2.4,3-0.6 c-3.4,5.8-7.6,11.1-12.8,15.4c-2.6-1.2-5,0-7.4,0.9c-1.7,0.6-3.3,1.6-5.2,1.8c-2.1,0-4.1,0.7-6.1,1c-1.3,0.2-2.6,0.6-3.8-0.5 C101,256,103.5,255.8,105,254.3z" class="st78"/><path d="M24.8,345.1c8-8.9,16.9-17.1,25.3-25.6c0.4-0.4,1.1-0.5,1.7-0.7c0.8,1,2,1.7,2.4,3 c-7.9,8-15.9,15.9-23.8,23.8c-0.7,0.7-1.5,1.3-2.5,1.6C26.8,346.5,25.8,345.8,24.8,345.1z" class="st79"/><path d="M27.8,347.2c8-8.1,16-16.2,24-24.3c0.6-0.6,1.3-1.1,2.3-1.1c0.8,0.5,1.3,1.1,1.5,2c0.5,1.3-0.4,2.1-1.2,2.9 c-7.2,7.3-14.5,14.6-21.8,21.8c-0.5,0.5-1.1,1-1.9,1.1C29.8,348.7,28.8,348,27.8,347.2z" class="st80"/><path d="M330.8,116.9c1.7-4.8,5.4-8.3,8.3-12.2c12.1-16.5,24.4-32.8,36.7-49.2c0.9-1.2,1.8-2.4,3.2-3.1 c0.5,0.1,1,0.2,1.1,0.9c-5.3,5.3-9.2,11.6-13.7,17.5c-10.8,14.2-21.3,28.6-32,43c-0.8,1.1-1.5,2.2-2.3,3.3 C331.7,117.1,331.2,117,330.8,116.9z" class="st81"/><path d="M300,276.1c0.2,0.2,0.4,0.5,0.6,0.7c-0.2,0.7-0.4,1.5-0.6,2.2c-0.1,0.2-0.2,0.3-0.2,0.5 c-16.4,13.1-32.9,26.3-49.3,39.4c-1.1,0.9-2.3,1.5-3.7,1.4c-0.6-0.1-1.1-0.2-1.5-0.6c-0.2-0.3-0.3-0.7-0.2-1 c8.4-7.5,17.4-14.1,26.1-21.2c8.1-6.6,16.5-12.9,24.6-19.5C297,277,298.1,275.6,300,276.1z" class="st10"/><path d="M38.3,356.9c-0.8-0.9-1.6-1.8-2.4-2.6c-0.5-1.5,0.6-2.3,1.5-3.1c6.7-6.8,13.5-13.6,20.3-20.3 c0.8-0.8,1.6-2,3.1-1.5c1,1,2.1,2,3.1,2.9c-7.7,7.7-15.4,15.4-23.1,23.1C40.1,356.1,39.4,356.8,38.3,356.9z" class="st43"/><path d="M60.8,329.3c-8.6,8-17,16.2-24.9,25c-0.9-0.9-1.9-1.8-2.8-2.7c-0.3-1.8,1.2-2.6,2.2-3.7 c6.3-6.4,12.6-12.7,19-19c1.1-1.1,2.1-3,4.3-1.9C59.3,327.8,60.1,328.5,60.8,329.3z" class="st82"/><path d="M347.9,101.3c-0.8-0.7-0.4-1.2,0.1-1.9c10.7-14.3,21.4-28.6,32.1-42.9c0.6-0.8,1.1-1.6,2.3-1.6 c0.7,0.5,1.5,1,2.2,1.5c-8.1,9.6-14.7,20.3-23.1,29.6c-0.2,0.3-0.3,0.7-0.3,1C357,91.9,351.9,96,347.9,101.3z" class="st83"/><path d="M366.7,297.8c-9.4,6.6-18.9,13.2-28.3,19.8c-6.3,4.4-12.5,8.9-18.7,13.4c-0.6,0.4-1.1,0.5-1.6-0.2 c2.5-4.2,6.2-7.1,10.1-9.7c4.6-3,9.1-6,13.7-9c6.4-4,12.8-8,19.2-12c2.6-1.6,4-4.3,5.6-6.8C366.7,294.8,366.7,296.3,366.7,297.8z" class="st84"/><path d="M58.6,327c-0.9,0-1.6,0.5-2.3,1.1c-7.7,7.8-15.5,15.7-23.2,23.5c-1-0.4-1.7-1.2-2.3-2.1 c7.3-7.5,14.7-14.9,22-22.4c1-1.1,2.3-1.9,2.9-3.4C56.6,324.8,57.6,325.9,58.6,327z" class="st85"/><path d="M38.3,356.9c7.8-7.9,15.5-15.7,23.3-23.6c0.6-0.7,1.4-1,2.3-1.1c0.6,0.5,1.3,1.1,1.9,1.6 c-0.1,1.1-0.8,1.8-1.5,2.5c-7.2,7.2-14.4,14.5-21.7,21.7c-0.6,0.6-1.2,1.3-2.2,1.4C39.5,358.8,38.8,357.9,38.3,356.9z" class="st86"/><path d="M365.3,283.6c0,1-0.1,2-0.9,2.7c-8.8,7.9-17.5,15.7-26.3,23.6c-1.2-0.2-2.2-0.6-3.1-1.5 c5.3-6.2,11.7-11.1,17.6-16.6c3.7-3.5,7.2-7.3,11.1-10.5C364.6,281.8,365.1,282.6,365.3,283.6z" class="st87"/><path d="M328.6,305.3c-1.2-0.2-2.2-0.6-3.1-1.5c5.7-6.4,12.3-11.9,18.7-17.6c3.8-3.4,6.8-7.6,11.4-10.1 c1,0.5,2,1,3,1.5c0.4,1-0.2,1.7-0.8,2.3c-9.1,8.1-17.8,16.5-26.8,24.6C330.3,305.1,329.5,305.6,328.6,305.3z" class="st88"/><path d="M187.6,315.9c-0.7,1.7-0.3,3.6-1.4,5.2c-1.7,1.9-3.7,3.3-5.9,4.4c-5.5,2.6-10.1,6.4-14.7,10.3 c-1.9,1.5-3.5,3.4-5.6,4.7c-2.5,2-5,3.8-7.8,5.4c-1.2,0.6-2.2,1.6-3.7,0.8c-0.6-1.4,0.4-2.1,1.3-2.8c11.4-9.6,23.1-18.8,34.7-28.1 c0.9-0.7,1.8-1.3,3.1-0.9C187.8,315.2,187.8,315.6,187.6,315.9z" class="st89"/><path d="M355.5,276.1c-2.6,2.7-5.1,5.6-7.9,8.2c-6.7,6.1-13.5,12-19.8,18.4c-0.6,0.6-1.3,1.1-2.3,1.1 c-1.3,0.1-2.1-0.7-3-1.5c0.2-1.2,1.1-1.7,2.1-2.2c2.6-1.4,5-3,6.6-5.6c7.1-6.6,14.3-13.2,21.4-19.9 C353.5,275.1,354.5,275.6,355.5,276.1z" class="st90"/><path d="M85.5,153.1c-0.8-0.6-0.8-1.5-0.8-2.4c0-11.2,0-22.5,0-33.7c0-0.8,0-1.5,0.6-2.1c0.8,0.9,1.7,1.7,2.5,2.6 c0.4,0.9,1,1.8,1,2.8c0,9.9,0.6,19.9-0.3,29.8C87.6,151.1,86.5,152.1,85.5,153.1z" class="st91"/><path d="M361.3,87c-0.9-1.3,0.3-2,0.9-2.9c6.3-8.3,12.6-16.6,18.9-24.9c1-1.3,1.8-2.7,3.6-2.9 c0.8,0.2,1.5,0.5,1.5,1.5c-4.5,5.9-9,11.8-13.4,17.6c-0.5,0.6-0.7,1.3-0.7,2C369,81.2,364.1,82.9,361.3,87z" class="st92"/><path d="M116,339.9c8.5-6.9,17.1-13.8,25.6-20.6c1-0.8,2.1-1.3,3.1-2c0.2,0.2,0.3,0.3,0.2,0.5 c-0.1,0.2-0.2,0.3-0.2,0.3c0.2,2.1-0.7,3.3-2.4,4.6c-8,6.5-16.4,12.5-24,19.5C117.7,341.4,116.8,340.7,116,339.9z" class="st93"/><path d="M113.3,262.3c-2.8,1.1-4.2,4.4-7.5,4.7c-3.7-0.6-7.2,1-10.4,2.2c-4.3,1.6-8.8,2.6-12.9,4.7c-1-0.5-2-1-3-1.5 c-0.8-1.2-0.1-1.9,0.9-2.3c4.7-1.8,9-4.4,14-5.7c5-0.9,9.6-3.3,14.6-4.1C110.6,260,113,259.2,113.3,262.3z" class="st94"/><path d="M168.8,344.2c-6,5.9-13.2,10-20.8,13.5c-1.6,0.7-3.6,1-5.4,0.1c-0.1-2.5,1.9-3.2,3.6-4.2 c3.9-2.3,8.2-4.1,11.8-7c2.1-2.1,4.8-3.3,7.7-4C167.1,342.2,168.6,341.9,168.8,344.2z" class="st95"/><path d="M113.3,262.3c-2.4-3.1-5.8-1.2-7.6-0.2c-3.6,2-7.7,1.5-11.1,3.5c-0.4-0.5-0.5-1-0.3-1.6 c4.8-3.6,10.3-5.8,16-7.4c2.5-1,5-1.9,7.4-3c1.9-0.8,3.5-0.7,4.6,1.3C119.6,257.7,116.6,260.2,113.3,262.3z" class="st96"/><path d="M346.5,271.7c1.1-0.1,1.4,1.2,2.3,1.4c-1.3,3.3-3.9,5.6-6.5,7.8c-5.6,4.7-10.8,9.8-16,14.8 c-2.1,2-4.1,4-6.7,5.2c-1.2-0.1-2.1-0.7-2.8-1.6c0.3-1.3,1.2-2.2,2.2-2.9c5.4-4,9.8-9.1,14.8-13.4 C338,279.2,341.9,275.1,346.5,271.7z" class="st97"/><path d="M71.9,338.3c-2.6,0.4-3.2,3-4.7,4.5c-7.5,7.5-15.3,14.6-22.3,22.6c-0.8-0.5-1.3-1.3-1.5-2.2 c-0.5-1.5,0.6-2.3,1.5-3.2c7.2-7.3,14.4-14.5,21.7-21.7c0.9-0.8,1.7-1.9,3.1-1.6C70.6,337.1,71.4,337.6,71.9,338.3z" class="st98"/><path d="M363.8,281.3c0,1.7-1.4,2.6-2.5,3.6c-7.3,6.4-13.9,13.6-21.7,19.5c-1.6,1.2-2,3.9-4.6,4 c-0.5-0.2-0.9-0.4-1.4-0.6c-0.5-1,0-1.7,0.6-2.3c9-8.9,18.2-17.6,28-25.7C363,280,363.5,280.6,363.8,281.3z" class="st99"/><path d="M210,116.3c-1.4-3.3-4-5.9-5.8-9c-0.7-1.1-1.3-2,0.6-2.2c2.6,0.9,5.3,1.5,8.2,1.3c2.5-0.1,4.4,0.8,5,3.5 c0.5,2.7-1.1,4.1-3.4,5C213.1,115.3,211.6,115.8,210,116.3z" class="st100"/><path d="M40.5,359.4c8.1-8.9,16.7-17.2,25.4-25.5c0.9,0.7,1.7,1.4,2.6,2.1c-8,8-16,16-24,23.9 c-0.7,0.7-1.4,1.4-2.5,1.6C41.5,360.8,41,360.1,40.5,359.4z" class="st101"/><path d="M108.7,186.7c1.1,0.8,0.5,1.4-0.1,2.1c-5.9,6.2-11.9,12.4-17.8,18.6c-0.6,0.6-1.3,1.2-2.3,1.1 c0-1.5,0-3,0-4.5c4.5-5.2,9.5-10,13.5-15.7C104.1,187.2,106.3,186.7,108.7,186.7z" class="st102"/><path d="M82.5,273.9c0.6-1.2,1.4-2,2.7-2.4c5.6-1.7,11.1-3.5,16.7-5.3c1.6-0.5,2.9-0.6,4,0.8 c-3.8,2.5-7.4,5.3-11.6,7.1C90.3,275.8,86.3,276.2,82.5,273.9z" class="st103"/><path d="M362.3,279.8c0,0.8-0.6,1.2-1.2,1.8c-8.3,7.7-16.6,15.4-24.8,23.1c-1,0.9-1.8,2.1-2.6,3.1 c-1.2-0.6-2.4-1.2-3.6-1.8c3-3.8,7.1-6.5,10.6-9.8c6.4-6,12.8-12,19.4-17.8C361,278.5,361.7,279,362.3,279.8z" class="st104"/><path d="M88.6,150.1c-1-0.7-0.8-1.8-0.8-2.7c0-10,0.1-19.9,0.1-29.9c1.4,0.9,2.6,2,3.6,3.4 c0.9,8.8,0.5,17.5,0.2,26.3C90.7,148.1,89.6,149.1,88.6,150.1z" class="st105"/><path d="M360,278.3c-0.5,2.6-2.7,3.8-4.4,5.4c-7.7,7.1-15.6,14.1-23.3,21.2c-0.7,0.6-1.3,1.2-2.3,1.1 c-0.5-0.3-1-0.5-1.5-0.8c5-5,10.7-9.2,15.5-14.3c3.7-3.8,7.9-7.1,11.9-10.7c0.9-0.8,1.7-1.8,2.5-2.7 C359,277.8,359.5,278.1,360,278.3z" class="st106"/><path d="M346.5,271.7c-0.8,1.6-1.9,2.7-3.3,3.9c-5.9,4.8-11.3,10.1-16.7,15.5c-3,3-6.5,5.5-9.8,8.2 c-0.8-0.2-1.3-0.7-1.6-1.5c4.4-1.6,6.1-6,9.5-8.7c5.5-4.3,10.8-8.9,15.3-14.3c1.3-1.5,3.5-2,4.3-4 C345,271.1,345.8,271.4,346.5,271.7z" class="st107"/><path d="M319.5,300.9c2.2-3.4,5.5-5.9,8.4-8.3c4.9-4,8.9-9,14.1-12.6c2.6-1.8,4.5-4.5,6.7-6.8c1-0.3,1.6,0.3,2.3,0.8 c0.9,1.1,0.1,1.9-0.7,2.5c-9.8,8.2-18.7,17.5-28.6,25.7C321,301.8,320.3,301.3,319.5,300.9z" class="st108"/><path d="M257.3,270c0.1-2-0.4-4.1,0.7-6c3.9-4.7,8.8-7.8,15-8.3c-0.5,3.3-3,5.2-5.2,7.3c-2,2-4.2,3.8-6,6 C260.7,270.4,259.3,272.2,257.3,270z" class="st109"/><path d="M187.6,315.9c-0.1-0.3-0.1-0.5-0.2-0.8c-0.9-0.9-0.8-2.1-0.8-3.3c0.1-0.6,0.1-1.2,0.9-1.9 c-9,7.4-17.9,14.4-26.7,21.4c-1.3,1-2.5,2.5-4.6,1.9c-0.8-1.2,0.3-2,0.7-3c5.1-5.5,11.5-9.6,17.2-14.4c3.2-2.7,6.6-5.4,10-7.9 c1-0.8,1.9-2.2,3.5-1.1c0.2,0.5,0.4,1,0.6,1.5C188.1,310.8,188.7,313.4,187.6,315.9z" class="st110"/><path d="M48.7,85.5c-1.2,1-2.4,2.1-3.5,3.1c-2-0.1-1.9-1.8-2-3c-0.2-5.6-0.1-11.2,0-16.8c0-1.2,0.1-2.6,1.8-2.8 c1.3,1.2,2.6,2.4,4,3.6C49.1,75,49.5,80.3,48.7,85.5z" class="st105"/><path d="M321.8,302.2c1.7-2.6,3.9-4.7,6.3-6.7c5.3-4.5,10.3-9.4,15.3-14.4c2.5-2.5,6.1-3.7,7.7-7.2 c0.5,0.2,1,0.5,1.5,0.7c-0.6,2.6-2.9,4.1-4.7,5.6c-5.6,4.7-10.3,10.4-16.3,14.6c-1.8,2.5-4.6,3.9-6.8,6c-0.8,0.5-1.6,1-2.3,1.5 l-0.3,0L321.8,302.2z" class="st111"/><path d="M102,188.3c1.3,2.5-1.3,3.2-2.3,4.3c-3.7,3.9-6.1,9-11.2,11.5c0-2,0-4,0-6c0.2-0.3,0.5-0.5,0.7-0.8 C92.6,193,96.7,189.8,102,188.3z" class="st112"/><path d="M42.1,361.5c8-8.1,16.1-16.3,24.1-24.4c0.6-0.7,1.4-1,2.3-1.1c0.4,0.3,0.8,0.6,1.2,0.9 c-9,8.5-17.9,17.2-26.3,26.4C43,362.6,42.5,362,42.1,361.5z" class="st113"/><path d="M91.7,147.1c-0.3-0.5-0.9-1-0.9-1.5c-0.1-7.8,0-15.7,0-23.5c0-0.4,0.4-0.9,0.6-1.3c1.3,0.7,2.3,1.7,3.2,2.8 c0.2,7,0.5,14.1-0.2,21.1C93.8,145.9,92.8,146.5,91.7,147.1z" class="st114"/><path d="M94.5,144.8c-1-7.1-1.5-14.1,0.2-21.1c1.6,0.7,2.9,1.9,4.2,3.2c-0.7,4.9,0.2,10-0.8,14.9 C97.4,143.3,95.8,143.9,94.5,144.8z" class="st9"/><path d="M277.5,316.4c-4.4,4-9.5,6.8-14.7,9.5c-2.4,1.3-5,2.2-7.8,1c-0.9-1.5,0.3-2.1,1.2-2.5c4.1-2,7.7-4.8,12-6.6 c2-0.6,3.9-1.6,5.9-2.2C275.3,315.3,276.8,314.4,277.5,316.4z" class="st115"/><path d="M40.4,93.7c-1-1.1-0.6-2.4-0.6-3.6c0-8.3,0-16.6,0-24.9c0-1.3-0.5-2.8,0.8-3.8c0.9,0.6,1.7,1.3,2.1,2.3 c0.7,9,0.4,18.1,0.2,27.1C42.1,91.8,41.2,92.8,40.4,93.7z" class="st15"/><path d="M292.7,301.8c-2.5,1.9-3.2,5.5-6.2,7c-5.6,1.7-10.1,5.5-15.5,7.7c-1,0.3-2.1,0.8-3.2,0.2 c-0.7-2.1,1.3-2.6,2.3-3.8c2.2-1.4,4.1-3.2,6.4-4.4c4.7-1.7,8.5-5,13-7.2C290.6,300.9,291.9,299.2,292.7,301.8z" class="st116"/><path d="M144.8,300.8c0.1-2-0.4-4.1,0.7-6c3.8-4.9,8.9-7.5,15-8.2c0.5,1.5-0.6,2.3-1.5,3.1c-4,3.4-7.7,7.2-11.9,10.4 C146.4,300.6,145.8,301.2,144.8,300.8z" class="st117"/><path d="M144.8,300.8c5.4-4.6,11.1-8.8,15.7-14.2c0.2-0.1,0.4-0.2,0.6-0.1c0.7-0.3,1.5-0.3,2.2-0.2 c1.3,1.3,0.4,2.3-0.4,3.2c-4.7,5.4-10.5,9.6-15.5,14.7c-0.7,0.7-1.6,1.3-2.7,0.4C144.8,303.3,144.8,302,144.8,300.8z" class="st118"/><path d="M148.5,346.6c4.3-1.3,7.5-4.5,11.2-6.8c2-0.3,3.4-2.9,5.8-1.8c0.8,2.2-1.2,2.4-2.3,3.3 c-7.9,5.5-16.8,9.2-24.6,14.9c-1.7-0.7-3.4-1.2-4.7-2.6c0.5-3.4,3.6-2.2,5.5-3.1C142.8,349.6,145.4,347.4,148.5,346.6z" class="st119"/><path d="M94.5,264c0,0.5,0,1,0,1.5c-4.4,0.3-7.7,3.3-11.7,4.7c-1.1,0.4-3.2,0-3.4,2.2c-2.6-1.4-5.3-2.5-7.5-4.4 c0-2.5,1.4-2.2,3.1-1.6c0.5,0.2,1,0.5,1.5,0.7c3.3,0.1,6.7,0.2,9.7-1.5c0.2,0,0.5,0,0.7,0C89.6,265.4,91.5,262,94.5,264z" class="st120"/><path d="M42.9,90.9c-0.9-0.5-0.9-1.4-0.9-2.3c0-7.6,0-15.2,0-22.8c0-0.8,0.1-1.5,0.7-2c0.8,0.7,1.5,1.5,2.3,2.2 c-1.7,4.5-0.6,9.1-0.6,13.6c0,3-1.1,6.2,0.8,9C44.4,89.4,43.7,90.1,42.9,90.9z" class="st121"/><path d="M297.9,292.7c-0.4,1.7-1,3.2-2.2,4.5c-5.4,2.2-10,5.9-15.1,8.6c-2.1,0.4-3.6,2.6-6,1.9 c-0.6-2.3,1.4-3.1,2.7-4.3c1-0.9,2.1-1.7,3.2-2.4c4.7-2.8,9.3-5.8,14.2-8.5C295.6,292.1,296.9,290.4,297.9,292.7z" class="st122"/><path d="M257.3,270c1.3,0.8,2.6,0.2,3.3-0.8c3.5-5.1,9.1-8.2,12.4-13.5c0.2-0.1,0.4-0.2,0.6-0.1 c0.9-0.4,1.9-0.2,2.8-0.2c1.5,1.6,0.1,2.7-0.9,3.6c-4.8,4.5-9.8,8.8-14.6,13.4c-0.9,0.9-2.1,2.6-3.6,0.6 C257.3,272,257.3,271,257.3,270z" class="st123"/><path d="M168.8,344.2c-3-2.4-5.3,0.5-7.9,1.2c-1,0.3-1.7,1.3-2.6,2c-0.8,0.3-1-0.2-1.1-0.8c0.6-3.1,3.7-3.3,5.6-5 c3.8-2.1,7.5-4.2,11.3-6.3c1.4-0.8,3-1.7,3.2,1.1C174.3,338.8,172.5,342.5,168.8,344.2z" class="st124"/><path d="M100.7,128.2c0.8,0.5,1.7,0.9,2.5,1.5c3.8,2.8,3.8,6.3-0.1,9c-0.9,0.6-1.9,1-2.9,1.6 C97.7,137.4,98,130.1,100.7,128.2z" class="st125"/><path d="M165,335.3c6.1-6.2,13.8-10,21.2-14.2c-0.6,1.9-1,3.9-2.3,5.5c-3.9,1-6.3,4.5-10,5.8c-2,0.4-3.3,2-5.2,2.7 C167.5,335.5,166.4,336.5,165,335.3z" class="st122"/><path d="M280.5,305.3c4.2-3.6,9.3-5.9,14-8.7c0.2-0.1,0.8,0.4,1.2,0.6c-0.6,1.8-1.6,3.3-3,4.6 c-0.8-1.4-1.5-0.4-2.3,0.1c-4.6,2.3-8.4,6.1-13.5,7.2C276.5,306.2,279.2,306.5,280.5,305.3z" class="st126"/><path d="M177.1,336.3c-0.7-1.8-1.4-1.2-2.7-0.4c-3.7,2.3-7.5,4.7-11.6,6.1c-0.5-0.5-0.4-1,0-1.5 c1.1-0.6,2.5-0.9,3-2.3c0.5-1.9,2.3-2.1,3.7-3c2.9-2.2,6.3-3.6,9.4-5.7c0.9-0.6,2.6-2.1,2.6,0.9 C180.3,332.6,179.1,334.8,177.1,336.3z" class="st127"/><path d="M162.8,340.6c0,0.5,0,1,0,1.5c-1.1,2.2-4.4,2-5.3,4.5c-5.2,4.3-11.7,6.5-17.2,10.4c-0.5-0.3-1-0.5-1.5-0.8 c0.1-1.6,1.2-2.6,2.3-3.2C148.6,349.3,155.8,345.1,162.8,340.6z" class="st128"/><path d="M270.8,313.5c-0.9,1.1-2.5,1.5-3,3c-1.1,2.1-3.1,3.1-5,4.1c-3.4,1.7-6.4,4.1-9.9,5.5c-1.3-0.7-2.6-1.3-3.8-2 c-0.3-1.1,0.5-1.3,1.2-1.7c5.9-2.1,10.9-6,16.6-8.3C268.1,313.7,269.2,312.3,270.8,313.5z" class="st129"/><path d="M270.8,315.8c4.9-2.1,9-5.9,14.3-7.2c0.4-0.1,0.9,0.1,1.3,0.2c-3,2.5-5.3,5.9-9,7.6c-3.5-1-5.9,1.7-9,2.4 C267.5,316.4,270.2,316.9,270.8,315.8z" class="st130"/><path d="M48.7,85.5c-1-5.3-1.4-10.6,0.2-15.9c1,0.8,1.9,1.5,2.9,2.3c-0.1,3.9,1,7.9-0.8,11.7 C50.3,84.3,49.5,84.9,48.7,85.5z" class="st131"/><path d="M300.1,285.2c0,1.9-0.4,3.7-1.4,5.4c-3.4,1.2-6.2,3.6-9.4,5.2c-1.1,0.6-2.1,1.4-3.5,0.8 c-0.2-0.3-0.4-0.6-0.4-1c2.2-4.1,6.5-5.9,9.7-8.8c1.4-1.3,2.7-3,5-2.6C300.4,284.5,300.4,284.8,300.1,285.2z" class="st132"/><path d="M52.8,72.7c0.3,0.2,0.5,0.6,0.8,0.7c2.1,0.8,4.1,1.8,3.9,4.3c-0.1,2.3-2.1,3.4-4.1,4.2 c-1.1,0.2-1.8-0.4-1.9-1.3c-0.3-2.5-0.3-4.9,0-7.4C51.6,72.6,52.2,72.5,52.8,72.7z" class="st133"/><path d="M140.3,356.9c0.7-3.1,3.8-3.4,5.9-4.4c3.8-1.9,7.1-4.9,11.3-6c0.2,0.3,0.5,0.5,0.7,0.8 c-3.4,3-7.7,4.7-11.6,6.9c-1.6,0.9-3.1,1.9-4.1,3.5C141.6,357.9,140.9,357.5,140.3,356.9z" class="st134"/><path d="M285.8,296.3c3.6-1.1,6.7-3.4,9.9-5.3c0.8-0.5,1.7-2.3,3-0.5c-0.1,0.8-0.1,1.6-0.8,2.2 c-1.1-1.1-1.8,0-2.5,0.5c-4.2,2.7-8.8,4.8-12.7,8c-0.5,0.4-1.4,0.3-2.1,0.4C281,298.6,282.7,296.8,285.8,296.3z" class="st135"/><path d="M270.8,315.8c-0.3,1.3-2.3,1.4-2.3,3c-4.7,2.4-9.6,4.5-13.5,8.2c-0.9,0.2-1.6-0.2-2.2-0.8 c4.3-4.3,10.2-6.2,15-9.6C268.8,316.3,269.8,316,270.8,315.8z" class="st136"/><path d="M100.7,128.2c-1.7,4-1.1,8-0.4,12c-0.2,1.2-1.8,0.6-2.2,1.5c-1.3-4.6-0.4-9.2-0.5-13.8c0-0.7,0.6-1,1.3-1.1 C99.5,127.3,100.1,127.7,100.7,128.2z" class="st137"/><path d="M75,266.3c-1.4-0.1-2.5,0.2-3.1,1.6c-3.2-1.7-6.2-3.8-9-6.1c-0.4-0.8,0.1-1.3,0.7-1.8c1.5-0.3,2.7,0.7,4,1.2 c1.5,0.9,3.2,1.3,4.3,2.8C73,264.8,74,265.5,75,266.3z" class="st138"/><path d="M181.5,330.5c-0.5-1.8-1.3-0.8-2.1-0.3c-3.3,2-6.6,3.8-9.9,5.8c0.1-2.9,2.8-3.2,4.5-4.5 c2.1-1.5,4.2-3,6.3-4.4c1.1-0.7,2.2-1.6,3.5-0.6C182.9,327.8,183.1,329.7,181.5,330.5z" class="st139"/><path d="M250.5,323.3c-0.7,0-1.3,0.2-1.6,0.9c-1.7-1-3.4-2.1-5.2-3.1c-0.2-1.2,0.3-1.7,1.5-1.5c0.5,0,1,0,1.5,0 c1.5,1,2.9-0.4,4.4-0.2c0.8,0,1.5,0.1,2.2,0.6C253.9,322.4,251.2,321.9,250.5,323.3z" class="st140"/><path d="M187.5,208.5c0-4,0-8,0-12c0-0.8-0.2-1.8,0.9-2.2c-0.1,9.2-0.2,18.5-0.3,27.7c-0.2,0-0.4,0-0.6,0 C187.5,217.5,187.5,213,187.5,208.5z" class="st16"/><path d="M245.3,319.5c-0.7,0.3-1.2,0.8-1.5,1.5c-2.5-1.2-4.7-2.7-6.8-4.5c0.5-0.9,1.4-0.8,2.3-0.8 c1,0.7,2.3,0.3,3.2,1c1,0.6,2.1,0.9,2.8,2C245.3,319,245.3,319.3,245.3,319.5z" class="st141"/><path d="M63.8,260.3c-0.3,0.5-0.5,1-0.8,1.6c-2.5-2-5-4-7.5-6c0.7-1.3,1.5-0.3,2.3-0.1c0.8,0.6,1.9,0.3,2.6,1 c1.2,0.9,2.7,1.2,3.6,2.6C64.1,259.7,64,260,63.8,260.3z" class="st142"/><path d="M140.3,351.1c-1.8,1.5-4.8-0.1-6.1,2.5c-1.6-0.6-3-1.5-4.3-2.6c-0.2-1.1,0.7-1.3,1.5-1.7 c0.7-0.1,1.3,0.1,2,0.2c0.5,0.1,1,0.2,1.5,0.4c1.4,0.4,2.8,0.2,4.1,0.4C139.5,350.4,139.9,350.6,140.3,351.1z" class="st143"/><path d="M52.8,72.7c-1.3,3.2-2.2,6.3,0.7,9.2c-0.8,0.6-1.5,1.2-2.3,1.8c0.3-3.9-1-7.9,0.8-11.7 C52.2,72.2,52.5,72.4,52.8,72.7z" class="st144"/><path d="M127.6,349.4c-1.4-0.7-2.8-1.5-3.8-2.8c-0.4-1,0.4-1.2,1.1-1.4c0.3,0,0.7,0,1,0c0.7,0.2,1.3,0.5,1.9,0.8 c0.7,0.4,1.4,0.8,1.6,1.8C129,348.7,128.2,349,127.6,349.4z" class="st145"/><path d="M127.6,349.4c0-0.9,0.6-1.3,1.5-1.4c0.3-0.3,0.6-0.3,0.9-0.3c0.7,0.4,1.7,0.6,1.3,1.8 c-0.5,0.5-1,0.9-1.4,1.4C129.1,350.4,128.3,349.9,127.6,349.4z" class="st146"/><path d="M163.5,286.6c-0.8,0-1.6-0.1-2.4-0.1c1.7-1.1,3.6-0.3,5.4-0.7c0.6,0,1.2,0.1,1.5,0.7c-0.3,0.3-0.6,0.6-1,0.7 C165.8,287.6,164.6,287.5,163.5,286.6z" class="st16"/><path d="M276.8,255.8c-1.1,0-2.1-0.1-3.2-0.1c1.7-1.1,3.6-0.3,5.4-0.7c0.6,0,1.2,0.1,1.5,0.7c-0.3,0.3-0.6,0.5-1,0.7 C278.5,256.7,277.6,256.7,276.8,255.8z" class="st28"/><path d="M300.1,285.2c-0.1-0.3-0.1-0.5-0.2-0.8c-0.9-0.8-0.8-1.9-0.8-2.9c0-0.9,0.3-1.6,0.9-2.3c0,0,0.1-0.1,0.1-0.1 C301.4,281,300.8,283.1,300.1,285.2z" class="st10"/><path d="M125.3,345.8c-0.7,0-1.2,0.2-1.6,0.9c-0.7-0.6-1.4-1.2-2.1-1.7c0.6-0.8,1.4-0.6,2.2-0.6 C124.3,344.8,125.7,344.4,125.3,345.8z" class="st40"/><path d="M150.2,72.7c-1.8-0.1-3.7,0.6-5.4-0.5C146.6,72.1,148.5,71.8,150.2,72.7z" class="st33"/><path d="M276.8,255.8c1,0,2,0,3,0c0.5,1.5-0.6,2.4-1.5,3.1c-5.8,4.7-10,10.8-15.6,15.6c-1.5,1.3-2.8,3.4-5.4,2.3 c0,0,0,0,0,0c0-1.3,0-2.5,0-3.8c0.6,0.2,1.2,0.6,1.7,0.1c5.6-5.2,11.3-10.4,16.9-15.7C276.3,257.1,276.5,256.4,276.8,255.8z" class="st147"/><path d="M163.5,286.6c1.3,0,2.5,0,3.8-0.1c0.4,1-0.1,1.8-0.8,2.3c-6.3,4.7-10.4,11.4-16.3,16.4 c-1.5,1.3-2.8,3.4-5.4,2.3c0-0.2,0-0.5,0-0.7c0-0.8,0-1.5,0-2.3c0.5-0.1,1.1-0.1,1.4-0.4c5.6-5.3,11.1-10.5,16.7-15.8 C163.2,287.9,163.3,287.2,163.5,286.6z" class="st147"/><path d="M245.3,318.8c-1.2-0.1-2.2-0.5-3-1.5c5.6-5.7,12.2-10.2,18.4-15.2c10.9-8.9,21.9-17.6,33-26.4 c1.6-1.3,2.9-3.6,5.6-2.7c0.5,0.9,0.9,1.9,0.7,3c-11.1,8.7-22.2,17.4-33.3,26.2c-6.7,5.3-13.3,10.7-20,16.1 C246.3,318.7,245.8,318.7,245.3,318.8z" class="st148"/><path d="M299.3,273c-5,2.3-8.8,6.4-13,9.7c-14.3,11.3-28.4,22.8-42.6,34.1c-0.4,0.3-0.9,0.3-1.4,0.4 c-1.2-0.1-2.2-0.5-3-1.5c4.9-2.2,8.6-6.2,12.7-9.5c14.4-11.4,28.6-23,42.9-34.4c1-0.8,2-1.9,3.6-1.9C299,271,299.4,272,299.3,273z" class="st149"/><path d="M257.3,287.3c0-1.3,0-2.5,0-3.8c4.3-4.4,8.8-8.8,13.3-13c4-3.8,7.5-8.2,11.5-12.1c0.7-0.7,1.2-1.6,2.2-1.9 c0.8,0.5,1.5,1,2.3,1.5C276.8,267.8,268.2,278.7,257.3,287.3z" class="st150"/><path d="M284.3,256.5c-0.3,0.7-0.6,1.4-1,2c-7.9,8.4-16.1,16.7-24.6,24.6c-0.3,0.3-0.9,0.3-1.4,0.4c0-1,0-2,0-3 c7.5-7.3,14.6-15,22-22.3c0.9-0.9,1.7-1.8,2.8-2.4C282.8,256,283.5,256.3,284.3,256.5z" class="st151"/><path d="M282,255.8c-3.5,5.4-8.3,9.5-13.1,13.7c-1.9,1.7-3.4,3.9-5,5.9c-1.8,2.2-3.5,4.6-6.7,5.1c0-1.3,0-2.5,0-3.8 c1.3-0.1,2.4-0.6,3.3-1.5c6.4-6.5,12.8-13,19.2-19.5c0.3,0,0.5,0,0.8,0C281,255.8,281.5,255.8,282,255.8z" class="st152"/><path d="M72,264.1c-1.7-0.3-3.2-1-4.5-2.3c0.5-2,2.1-3,3.6-4.2c21-16.8,41.9-33.5,62.9-50.3c1.6-1.3,3.1-3.1,5.5-2.5 c0.5,1.5,1,3,1.5,4.5c-4.6,0.9-7.1,4.7-10.5,7.3c-9.5,7.3-18.8,15-28.1,22.5c-9.6,7.7-19.2,15.3-28.7,23 C73,262.6,72.6,263.4,72,264.1z" class="st153"/><path d="M139.5,204.8c-7.5,4.4-13.8,10.5-20.6,15.8c-13.3,10.4-26.4,21-39.5,31.5c-4,3.2-7.9,6.4-11.8,9.6 c-1.2-0.5-2.5-1-3.7-1.5c0-0.2,0-0.5,0-0.7c0.3-1.6,1.6-2.5,2.8-3.4c22.2-17.7,44.4-35.4,66.5-53.2c1.2-1,2.3-2.3,4.2-1.9 C138,202.3,138.8,203.6,139.5,204.8z" class="st154"/><path d="M137.3,201c-10.1,8-20.2,15.9-30.3,23.9c-13.3,10.6-26.5,21.1-39.8,31.7c-1.2,0.9-2.3,1.9-3.4,2.8 c-1.2-0.8-2.8-1-3.7-2.2c7.7-6.7,15.8-13,23.8-19.4c15.9-12.7,31.8-25.5,47.7-38.1c1-0.8,1.8-2.2,3.5-1.7 C136.4,198.6,136.7,200,137.3,201z" class="st66"/><path d="M135,198c-20.4,16.3-40.8,32.5-61.1,48.8c-4.5,3.6-8.5,8-13.9,10.5c-0.8-0.5-1.5-1-2.3-1.5 c4-1.8,6.9-5.1,10.3-7.8c16.2-12.7,32.2-25.6,48.2-38.5c4.4-3.5,8.5-7.2,13-10.5C130.8,197.9,132.5,194.6,135,198z" class="st18"/><path d="M88.5,225.8c0-0.3,0-0.5,0-0.8c0-1,0-2,0-3c6.9-6.2,13.2-13,19.4-20c3.2-3.6,6.4-7.2,9.6-10.9 c1-1.1,2.4-1.9,2.5-3.6c1.4-0.1,2.9,0.1,3.5,1.5c0.5,1.3-0.8,1.9-1.5,2.8c-6.5,8.9-15.2,15.8-22.3,24.2 C95.6,218.9,93.2,223.6,88.5,225.8z" class="st155"/><path d="M131.3,349.5c-0.5-0.5-1-1-1.5-1.5c5.7-5.8,12.4-10.5,18.7-15.5c11.7-9.3,23.4-18.7,35.1-28 c0.9-0.7,1.7-2,3.2-1.5c0.2,1.2,0.5,2.5,0.7,3.7c-4.4,2.3-7.9,5.9-11.7,8.9c-5.6,4.3-11.1,8.7-16.6,13.1c-0.7,0.5-1.1,1.3-1.7,2 c-6.3,6-13.4,11.1-20,16.6c-1.5,1.2-3,2.1-4.7,2.9C132.3,350,131.8,349.8,131.3,349.5z" class="st148"/><path d="M125.3,345.8c-0.5-0.5-1-1-1.5-1.5c9.2-7.5,18.3-15.2,27.6-22.6c9.4-7.6,19-15.1,28.5-22.6 c1.2-0.9,2.3-1.8,3.9-2c0.5,0.8,1,1.5,1.5,2.3c-19,14.8-37.6,30.1-56.4,45.1c-0.8,0.7-1.5,1.8-2.8,1.4 C125.8,345.8,125.5,345.8,125.3,345.8z" class="st70"/><path d="M126,345.8c8.8-7.2,17.7-14.5,26.6-21.6c9.8-7.9,19.6-15.6,29.4-23.5c1-0.8,1.9-1.5,3.3-1.4 c0.2,0.5,0.5,1,0.7,1.5c-1,2.4-3.3,3.7-5.2,5.2c-16.1,12.9-32.3,25.8-48.4,38.7c-1.4,1.1-2.6,2.8-4.9,1.8 C126.9,346.5,126.4,346.4,126,345.8z" class="st40"/><path d="M127.5,346.6c4.7-1.7,7.9-5.5,11.7-8.4c15.7-12.3,31.2-24.9,46.8-37.3c0.3,0.8,0.5,1.5,0.8,2.3 c-18.3,14.7-36.7,29.4-55,44.1c-0.6,0.5-1.2,0.8-2,0.9c-0.2,0-0.5,0-0.7,0C128.5,347.5,128,347,127.5,346.6z" class="st156"/><path d="M174,288c1,0.6,1.9,1.1,2.9,1.7c2,1.2,2.3,2.8,0.5,4.2c-6.9,5.5-13.4,11.3-20.7,16.2 c-0.8,0.5-1.8,1.7-2.9,0.4c0.5-3.5,3.4-5.4,5.5-7.7C163.9,297.7,168.9,292.8,174,288z" class="st157"/><path d="M174,288c0,1.7-1.4,2.5-2.5,3.6c-6.1,6.2-12.4,12.1-17.8,18.9c-3,2.5-6,5-9,7.5c0-0.3,0-0.5,0-0.8 c0-1,0-2,0-3c1.9-3,4.8-5,7.3-7.5c6.5-6.3,12.6-13.1,19-19.5C172,287.5,173,287.8,174,288z" class="st150"/><path d="M171,287.3c-0.2,1.7-1,3.1-2.3,4.1c-7.5,5.6-12.2,14-20,19.3c-1.5,1-1.6,3.5-4,3.6c0-1,0-2,0-3 c7.7-8.5,15.7-16.8,24-24.7C169.5,286.8,170.3,287,171,287.3z" class="st158"/><path d="M168.8,286.6c0,1.1-0.7,1.8-1.4,2.5c-6.5,6.6-13.4,12.9-19.3,20c-0.8,1-1.7,2.2-3.3,2.2c0-1.3,0-2.5,0-3.8 c4.4-1.3,7.1-5,9.8-8.1c4-4.5,8.3-8.8,12.6-12.9c0.3,0,0.5,0,0.8,0C168.3,286.5,168.5,286.5,168.8,286.6z" class="st159"/><path d="M94.5,264c-2.7-0.5-4.8,2-7.5,1.5c4.1-2.8,8.3-5.3,12.8-7.5c3.6,0,6.9-1.7,10.5-1.5 C105,259,99.8,261.5,94.5,264z" class="st160"/><path d="M300,279.1c0,0.7,0,1.5,0.1,2.2c-4.5,5.1-10.2,8.7-15.4,13c-9.4,7.7-18.9,15.2-28.3,22.7 c-1.6,1.3-3.3,2.3-5,3.3c-1.5-0.2-3.2,0.6-4.5-0.7c4.6-1,7.3-4.8,10.8-7.5c13.1-10.2,25.9-20.8,38.9-31.1 C297.4,280.2,298.4,279.1,300,279.1z" class="st7"/><path d="M140.3,351.1c-0.5,0-1,0-1.5,0c-0.4-1.7,0.9-2.5,1.9-3.3c14.7-11.7,29.2-23.6,43.9-35.2 c0.8-0.7,1.6-1.7,2.9-1.2c0,1.3-0.1,2.5-0.1,3.8c-5,2.8-9,6.9-13.5,10.4c-8.2,6.3-16.2,13-24.2,19.6c-0.5,0.4-0.8,1-1.1,1.5 C146.3,349,143.3,350,140.3,351.1z" class="st161"/><path d="M174,331.5c-1.1,1.9-3.7,2.3-4.5,4.5c-1.3,0.8-2.5,1.5-3.8,2.3c-2.2-0.3-3.8,1.8-6,1.5 c1.8-1.5,3.5-3,5.3-4.5c2.4-0.1,4.1-1.5,5.9-2.7C172,332,172.8,331.5,174,331.5z" class="st162"/><path d="M324.8,300.8c1.7-2.6,4.2-4.4,6.8-6C330.5,298.2,327.5,299.3,324.8,300.8z" class="st163"/><path d="M187.5,311.3c-15.6,12.5-31.2,25-46.8,37.5c-0.8,0.6-1.3,1.5-1.9,2.2c-1.5-0.2-3.2,0.6-4.5-0.7 c6.8-5.4,13.3-11.1,20.2-16.4c0.5-0.4,0.9-0.8,1.6-0.9c4.8-1.8,8-5.7,12-8.7c5.7-4.2,11-8.9,16.6-13.3 C185,310.8,186.9,307.5,187.5,311.3z" class="st164"/><path d="M156,333c-4.9,5-10.5,9.3-16,13.6c-1.8,1.4-2.8,4-5.7,3.7c-0.5,0-1,0-1.5,0c8.1-6.7,16-13.7,24.7-19.5 C157,331.5,156.5,332.3,156,333z" class="st110"/><path d="M250.5,323.3c0-2,2.3-1.7,3-3c0.6-1.7,2.4-2,3.7-2.9c4.7-2.5,9-5.4,13.4-8.4c1.2-0.8,2.2-2.1,3.9-1.5 c2.2-0.3,3.6-2.7,6-2.2c-0.8,1.7-3.1,1.9-3.8,3.8c-2,1.5-4,3-6,4.5c-5.1,2.3-10.2,4.4-14.9,7.4C254.2,322,252.5,322.9,250.5,323.3z" class="st165"/><path d="M274.5,307.5c-4.6,3-9.3,6-13.9,9c-1,0.7-2.1,1.4-3.3,1.5c-0.3-2.4,1.7-3.2,3-4.3c7.1-5.6,14.1-11.4,21.2-17 c1.2-1,2.4-2.3,4.2-1.3c0,0.2,0,0.5,0,0.7c-2,1.5-3.8,3.2-5.2,5.3C279,304.1,275.8,304.8,274.5,307.5z" class="st166"/><path d="M285.8,295.5c-3.9,1-6.3,4.2-9.3,6.5c-5.6,4.4-11.2,8.8-16.8,13.3c-0.9,0.8-1.6,1.8-2.4,2.8 c-1.2,0.8-2.5,1.5-3.7,2.3c-0.8,0-1.5,0-2.3,0c5.1-5.2,11.2-9.3,16.9-14c9.5-7.8,19.2-15.4,28.8-23c1-0.8,2.1-1.3,3.1-2 c0,1-0.1,2-0.1,3.1C294.8,287.6,290.3,291.6,285.8,295.5z" class="st48"/></g></svg>